{
  "accessors": [
    {
      "bufferView": 2,
      "componentType": 5126,
      "count": 31022,
      "max": [
        1.2084548473358154,
        1.70914888381958,
        5.185667991638184
      ],
      "min": [
        -1.2084548473358154,
        -1.5923527479171753,
        -3.98005747795105
      ],
      "type": "VEC3"
    },
    {
      "bufferView": 2,
      "byteOffset": 372264,
      "componentType": 5126,
      "count": 31022,
      "max": [
        0.9998389482498169,
        0.9999770522117615,
        0.9998233318328857
      ],
      "min": [
        -0.9998374581336975,
        -0.9999999403953552,
        -0.999836266040802
      ],
      "type": "VEC3"
    },
    {
      "bufferView": 3,
      "componentType": 5126,
      "count": 31022,
      "max": [
        0.9994345903396606,
        0.9999756217002869,
        0.9999241828918457,
        1.0
      ],
      "min": [
        -0.9999999403953552,
        -0.9999951720237732,
        -0.9993603229522705,
        -1.0
      ],
      "type": "VEC4"
    },
    {
      "bufferView": 1,
      "componentType": 5126,
      "count": 31022,
      "max": [
        0.9962537884712219,
        0.998265266418457
      ],
      "min": [
        0.005312850698828697,
        0.0016931891441345215
      ],
      "type": "VEC2"
    },
    {
      "bufferView": 0,
      "componentType": 5125,
      "count": 180336,
      "type": "SCALAR"
    }
  ],
  "asset": {
    "extras": {
      "author": "CARI'MAM (https://sketchfab.com/CARIMAM)",
      "license": "CC-BY-NC-SA-4.0 (http://creativecommons.org/licenses/by-nc-sa/4.0/)",
      "source": "https://sketchfab.com/3d-models/frasers-dolphin-dc1e9529e48241d98e74b63b61bdefec",
      "title": "Fraser's dolphin"
    },
    "generator": "Sketchfab-12.68.0",
    "version": "2.0"
  },
  "bufferViews": [
    {
      "buffer": 0,
      "byteLength": 721344,
      "name": "floatBufferViews",
      "target": 34963
    },
    {
      "buffer": 0,
      "byteLength": 248176,
      "byteOffset": 721344,
      "byteStride": 8,
      "name": "floatBufferViews",
      "target": 34962
    },
    {
      "buffer": 0,
      "byteLength": 744528,
      "byteOffset": 969520,
      "byteStride": 12,
      "name": "floatBufferViews",
      "target": 34962
    },
    {
      "buffer": 0,
      "byteLength": 496352,
      "byteOffset": 1714048,
      "byteStride": 16,
      "name": "floatBufferViews",
      "target": 34962
    }
  ],
  "buffers": [
    {
      "byteLength": 2210400,
      "uri": "scene.bin"
    }
  ],
  "images": [
    {
      "uri": "textures/lambert2_baseColor.png"
    },
    {
      "uri": "textures/lambert2_metallicRoughness.png"
    },
    {
      "uri": "textures/lambert2_normal.png"
    }
  ],
  "materials": [
    {
      "doubleSided": true,
      "name": "lambert2",
      "normalTexture": {
        "index": 2
      },
      "pbrMetallicRoughness": {
        "baseColorTexture": {
          "index": 0
        },
        "metallicRoughnessTexture": {
          "index": 1
        },
        "roughnessFactor": 0.0
      }
    }
  ],
  "meshes": [
    {
      "name": "polySurface1_lambert2_0",
      "primitives": [
        {
          "attributes": {
            "NORMAL": 1,
            "POSITION": 0,
            "TANGENT": 2,
            "TEXCOORD_0": 3
          },
          "indices": 4,
          "material": 0,
          "mode": 4
        }
      ]
    }
  ],
  "nodes": [
    {
      "children": [
        1
      ],
      "matrix": [
        16.220293045043945,
        0.0,
        0.0,
        0.0,
        0.0,
        3.601628560955016e-15,
        -16.220293045043945,
        0.0,
        0.0,
        16.220293045043945,
        3.601628560955016e-15,
        0.0,
        0.0,
        0.0,
        0.0,
        1.0
      ],
      "name": "Sketchfab_model"
    },
    {
      "children": [
        2
      ],
      "matrix": [
        0.009999999776482582,
        0.0,
        0.0,
        0.0,
        0.0,
        0.0,
        0.009999999776482582,
        0.0,
        0.0,
        -0.009999999776482582,
        0.0,
        0.0,
        0.0,
        0.0,
        0.0,
        1.0
      ],
      "name": "Lagenodelphis hosei_LODa.fbx"
    },
    {
      "children": [
        3
      ],
      "name": "RootNode"
    },
    {
      "children": [
        4
      ],
      "name": "polySurface1"
    },
    {
      "mesh": 0,
      "name": "polySurface1_lambert2_0"
    }
  ],
  "samplers": [
    {
      "magFilter": 9729,
      "minFilter": 9987,
      "wrapS": 10497,
      "wrapT": 10497
    }
  ],
  "scene": 0,
  "scenes": [
    {
      "name": "Sketchfab_Scene",
      "nodes": [
        0
      ]
    }
  ],
  "textures": [
    {
      "sampler": 0,
      "source": 0
    },
    {
      "sampler": 0,
      "source": 1
    },
    {
      "sampler": 0,
      "source": 2
    }
  ]
}
