{
  "accessors": [
    {
      "bufferView": 2,
      "componentType": 5126,
      "count": 12518,
      "max": [
        0.55623459815979,
        0.6407309770584106,
        2.6453607082366943
      ],
      "min": [
        -0.5564437508583069,
        -0.5585132837295532,
        -0.9123238921165466
      ],
      "type": "VEC3"
    },
    {
      "bufferView": 2,
      "byteOffset": 150216,
      "componentType": 5126,
      "count": 12518,
      "max": [
        0.9999321103096008,
        0.9999964833259583,
        0.999807596206665
      ],
      "min": [
        -0.9999509453773499,
        -0.9999911785125732,
        -0.9992811679840088
      ],
      "type": "VEC3"
    },
    {
      "bufferView": 3,
      "componentType": 5126,
      "count": 12518,
      "max": [
        0.9990121126174927,
        0.9999546408653259,
        0.9994235634803772,
        1.0
      ],
      "min": [
        -0.9998140931129456,
        -0.9999408721923828,
        -0.9999939203262329,
        -1.0
      ],
      "type": "VEC4"
    },
    {
      "bufferView": 1,
      "componentType": 5126,
      "count": 12518,
      "max": [
        0.9948234558105469,
        0.9917858839035034
      ],
      "min": [
        0.00536254420876503,
        0.0032870210707187653
      ],
      "type": "VEC2"
    },
    {
      "bufferView": 0,
      "componentType": 5125,
      "count": 71532,
      "type": "SCALAR"
    }
  ],
  "asset": {
    "extras": {
      "author": "CARI'MAM (https://sketchfab.com/CARIMAM)",
      "license": "CC-BY-NC-SA-4.0 (http://creativecommons.org/licenses/by-nc-sa/4.0/)",
      "source": "https://sketchfab.com/3d-models/pilot-whale-ba8090530f3148eb984f098a68a315d5",
      "title": "Pilot whale"
    },
    "generator": "Sketchfab-12.68.0",
    "version": "2.0"
  },
  "bufferViews": [
    {
      "buffer": 0,
      "byteLength": 286128,
      "name": "floatBufferViews",
      "target": 34963
    },
    {
      "buffer": 0,
      "byteLength": 100144,
      "byteOffset": 286128,
      "byteStride": 8,
      "name": "floatBufferViews",
      "target": 34962
    },
    {
      "buffer": 0,
      "byteLength": 300432,
      "byteOffset": 386272,
      "byteStride": 12,
      "name": "floatBufferViews",
      "target": 34962
    },
    {
      "buffer": 0,
      "byteLength": 200288,
      "byteOffset": 686704,
      "byteStride": 16,
      "name": "floatBufferViews",
      "target": 34962
    }
  ],
  "buffers": [
    {
      "byteLength": 886992,
      "uri": "scene.bin"
    }
  ],
  "images": [
    {
      "uri": "textures/lambert1_baseColor.png"
    },
    {
      "uri": "textures/lambert1_metallicRoughness.png"
    },
    {
      "uri": "textures/lambert1_normal.png"
    }
  ],
  "materials": [
    {
      "doubleSided": true,
      "name": "lambert1",
      "normalTexture": {
        "index": 2
      },
      "pbrMetallicRoughness": {
        "baseColorTexture": {
          "index": 0
        },
        "metallicFactor": 0.7115027946394012,
        "metallicRoughnessTexture": {
          "index": 1
        },
        "roughnessFactor": 0.0
      }
    }
  ],
  "meshes": [
    {
      "name": "polySurface1_lambert1_0",
      "primitives": [
        {
          "attributes": {
            "NORMAL": 1,
            "POSITION": 0,
            "TANGENT": 2,
            "TEXCOORD_0": 3
          },
          "indices": 4,
          "material": 0,
          "mode": 4
        }
      ]
    }
  ],
  "nodes": [
    {
      "children": [
        1
      ],
      "matrix": [
        143.99356079101563,
        0.0,
        0.0,
        0.0,
        0.0,
        3.197299331758954e-14,
        -143.99356079101563,
        0.0,
        0.0,
        143.99356079101563,
        3.197299331758954e-14,
        0.0,
        0.0,
        0.0,
        0.0,
        1.0
      ],
      "name": "Sketchfab_model"
    },
    {
      "children": [
        2
      ],
      "matrix": [
        0.009999999776482582,
        0.0,
        0.0,
        0.0,
        0.0,
        0.0,
        0.009999999776482582,
        0.0,
        0.0,
        -0.009999999776482582,
        0.0,
        0.0,
        0.0,
        0.0,
        0.0,
        1.0
      ],
      "name": "Globicephala macrorhynchus_LODa.fbx"
    },
    {
      "children": [
        3
      ],
      "name": "RootNode"
    },
    {
      "children": [
        4
      ],
      "name": "polySurface1"
    },
    {
      "mesh": 0,
      "name": "polySurface1_lambert1_0"
    }
  ],
  "samplers": [
    {
      "magFilter": 9729,
      "minFilter": 9987,
      "wrapS": 10497,
      "wrapT": 10497
    }
  ],
  "scene": 0,
  "scenes": [
    {
      "name": "Sketchfab_Scene",
      "nodes": [
        0
      ]
    }
  ],
  "textures": [
    {
      "sampler": 0,
      "source": 0
    },
    {
      "sampler": 0,
      "source": 1
    },
    {
      "sampler": 0,
      "source": 2
    }
  ]
}
