{
  "accessors": [
    {
      "bufferView": 3,
      "componentType": 5126,
      "count": 18294,
      "max": [
        0.20197539031505585,
        0.25486496090888977,
        0.7707052826881409
      ],
      "min": [
        -0.20197536051273346,
        -0.16214244067668915,
        -0.7723891139030457
      ],
      "type": "VEC3"
    },
    {
      "bufferView": 3,
      "byteOffset": 219528,
      "componentType": 5126,
      "count": 18294,
      "max": [
        0.9998890161514282,
        0.9999992847442627,
        0.999508261680603
      ],
      "min": [
        -0.9998890161514282,
        -1.0,
        -0.9968371987342834
      ],
      "type": "VEC3"
    },
    {
      "bufferView": 4,
      "componentType": 5126,
      "count": 18294,
      "max": [
        1.0,
        0.9993302226066589,
        0.9838418960571289,
        1.0
      ],
      "min": [
        -1.0,
        -0.9846290946006775,
        -0.9999871850013733,
        -1.0
      ],
      "type": "VEC4"
    },
    {
      "bufferView": 2,
      "componentType": 5126,
      "count": 18294,
      "max": [
        0.9985723495483398,
        0.5227036476135254
      ],
      "min": [
        8.61435109982267e-05,
        8.61435109982267e-05
      ],
      "type": "VEC2"
    },
    {
      "bufferView": 2,
      "byteOffset": 146352,
      "componentType": 5126,
      "count": 18294,
      "max": [
        0.9998753070831299,
        0.924699604511261
      ],
      "min": [
        0.0,
        0.0
      ],
      "type": "VEC2"
    },
    {
      "bufferView": 1,
      "componentType": 5125,
      "count": 84624,
      "type": "SCALAR"
    },
    {
      "bufferView": 3,
      "byteOffset": 439056,
      "componentType": 5126,
      "count": 5162,
      "max": [
        0.09022308140993118,
        0.004541134461760521,
        0.6089232563972473
      ],
      "min": [
        -0.09022307395935059,
        -0.020405398681759834,
        0.5838578939437866
      ],
      "type": "VEC3"
    },
    {
      "bufferView": 3,
      "byteOffset": 501000,
      "componentType": 5126,
      "count": 5162,
      "max": [
        0.9996815919876099,
        0.9995412826538086,
        0.9995040893554688
      ],
      "min": [
        -0.9996815919876099,
        -0.9990466237068176,
        -0.9996707439422607
      ],
      "type": "VEC3"
    },
    {
      "bufferView": 2,
      "byteOffset": 292704,
      "componentType": 5126,
      "count": 5162,
      "max": [
        0.30249157547950745,
        0.4283669888973236
      ],
      "min": [
        0.2621830701828003,
        0.4078325927257538
      ],
      "type": "VEC2"
    },
    {
      "bufferView": 2,
      "byteOffset": 334000,
      "componentType": 5126,
      "count": 5162,
      "max": [
        0.4950026869773865,
        0.9948647618293762
      ],
      "min": [
        0.0,
        0.0
      ],
      "type": "VEC2"
    },
    {
      "bufferView": 1,
      "byteOffset": 338496,
      "componentType": 5125,
      "count": 23808,
      "type": "SCALAR"
    },
    {
      "bufferView": 5,
      "componentType": 5126,
      "count": 20,
      "max": [
        1.0,
        0.8873220086097717,
        0.4270855486392975,
        0.0,
        0.6374986171722412,
        1.0,
        0.9999036192893982,
        0.0,
        0.9814562201499939,
        0.9873732328414917,
        1.0,
        0.0,
        0.5249215960502625,
        0.30813974142074585,
        0.2535496950149536,
        1.0
      ],
      "min": [
        -0.48655229806900024,
        -0.8582237958908081,
        -0.14502720534801483,
        0.0,
        -0.4460664689540863,
        -0.4766992926597595,
        -0.9873774647712708,
        0.0,
        -0.7923240661621094,
        -0.9999036192893982,
        -0.446880966424942,
        0.0,
        -0.5085496306419373,
        -0.649918794631958,
        -0.29523974657058716,
        1.0
      ],
      "type": "MAT4"
    },
    {
      "bufferView": 0,
      "componentType": 5123,
      "count": 18294,
      "type": "VEC4"
    },
    {
      "bufferView": 4,
      "byteOffset": 292704,
      "componentType": 5126,
      "count": 18294,
      "max": [
        1.0,
        0.49948492646217346,
        0.2885468602180481,
        0.2133796215057373
      ],
      "min": [
        0.3039247989654541,
        0.0,
        0.0,
        0.0
      ],
      "type": "VEC4"
    },
    {
      "bufferView": 0,
      "byteOffset": 146352,
      "componentType": 5123,
      "count": 5162,
      "type": "VEC4"
    },
    {
      "bufferView": 4,
      "byteOffset": 585408,
      "componentType": 5126,
      "count": 5162,
      "max": [
        0.7349700331687927,
        0.2825208306312561,
        0.10384685546159744,
        0.0
      ],
      "min": [
        0.6502310633659363,
        0.23422017693519592,
        0.0,
        0.0
      ],
      "type": "VEC4"
    },
    {
      "bufferView": 6,
      "componentType": 5126,
      "count": 30,
      "max": [
        1.2000000476837158
      ],
      "min": [
        0.03999999910593033
      ],
      "type": "SCALAR"
    },
    {
      "bufferView": 8,
      "componentType": 5126,
      "count": 30,
      "max": [
        -0.6970157623291016,
        -2.1971902437063782e-27,
        2.369143624710087e-27,
        0.7170557975769043
      ],
      "min": [
        -0.7122606039047241,
        -2.247583356259237e-27,
        2.3213909621109834e-27,
        0.7019151449203491
      ],
      "type": "VEC4"
    },
    {
      "bufferView": 6,
      "byteOffset": 120,
      "componentType": 5126,
      "count": 19,
      "max": [
        1.2000000476837158
      ],
      "min": [
        0.03999999910593033
      ],
      "type": "SCALAR"
    },
    {
      "bufferView": 7,
      "componentType": 5126,
      "count": 19,
      "max": [
        1.0,
        1.000000238418579,
        1.000000238418579
      ],
      "min": [
        1.0,
        1.0000001192092896,
        1.0000001192092896
      ],
      "type": "VEC3"
    },
    {
      "bufferView": 6,
      "byteOffset": 196,
      "componentType": 5126,
      "count": 29,
      "max": [
        1.2000000476837158
      ],
      "min": [
        0.03999999910593033
      ],
      "type": "SCALAR"
    },
    {
      "bufferView": 7,
      "byteOffset": 228,
      "componentType": 5126,
      "count": 29,
      "max": [
        4.511946372076636e-13,
        0.1787552684545517,
        0.06709148734807968
      ],
      "min": [
        -4.583000645652646e-13,
        0.1787552386522293,
        0.0670914426445961
      ],
      "type": "VEC3"
    },
    {
      "bufferView": 6,
      "byteOffset": 312,
      "componentType": 5126,
      "count": 26,
      "max": [
        1.2000000476837158
      ],
      "min": [
        0.03999999910593033
      ],
      "type": "SCALAR"
    },
    {
      "bufferView": 8,
      "byteOffset": 480,
      "componentType": 5126,
      "count": 26,
      "max": [
        0.21227337419986725,
        1.1649253650602986e-07,
        2.5304956352556474e-08,
        0.9772103428840637
      ],
      "min": [
        0.21227334439754486,
        1.1649252229517515e-07,
        2.5304949247129116e-08,
        0.9772103428840637
      ],
      "type": "VEC4"
    },
    {
      "bufferView": 6,
      "byteOffset": 416,
      "componentType": 5126,
      "count": 20,
      "max": [
        1.2000000476837158
      ],
      "min": [
        0.03999999910593033
      ],
      "type": "SCALAR"
    },
    {
      "bufferView": 7,
      "byteOffset": 576,
      "componentType": 5126,
      "count": 20,
      "max": [
        1.0,
        1.0000001192092896,
        1.0000001192092896
      ],
      "min": [
        1.0,
        0.9999998807907104,
        0.9999998807907104
      ],
      "type": "VEC3"
    },
    {
      "bufferView": 6,
      "byteOffset": 496,
      "componentType": 5126,
      "count": 30,
      "max": [
        1.2000000476837158
      ],
      "min": [
        0.03999999910593033
      ],
      "type": "SCALAR"
    },
    {
      "bufferView": 7,
      "byteOffset": 816,
      "componentType": 5126,
      "count": 30,
      "max": [
        4.547473508864641e-13,
        -0.07541831582784653,
        -0.051376089453697205
      ],
      "min": [
        -2.2737367544323206e-13,
        -0.0754183754324913,
        -0.051376111805438995
      ],
      "type": "VEC3"
    },
    {
      "bufferView": 6,
      "byteOffset": 616,
      "componentType": 5126,
      "count": 30,
      "max": [
        1.2000000476837158
      ],
      "min": [
        0.03999999910593033
      ],
      "type": "SCALAR"
    },
    {
      "bufferView": 8,
      "byteOffset": 896,
      "componentType": 5126,
      "count": 30,
      "max": [
        -0.9952786564826965,
        3.1347752629446126e-28,
        3.218981783086332e-27,
        0.09705927968025208
      ],
      "min": [
        -0.9962314367294312,
        2.80104362216763e-28,
        3.215903569256218e-27,
        0.08673568814992905
      ],
      "type": "VEC4"
    },
    {
      "bufferView": 6,
      "byteOffset": 736,
      "componentType": 5126,
      "count": 28,
      "max": [
        1.2000000476837158
      ],
      "min": [
        0.03999999910593033
      ],
      "type": "SCALAR"
    },
    {
      "bufferView": 7,
      "byteOffset": 1176,
      "componentType": 5126,
      "count": 28,
      "max": [
        1.0,
        1.0000001192092896,
        0.9999959468841553
      ],
      "min": [
        1.0,
        0.9999999403953552,
        0.999995768070221
      ],
      "type": "VEC3"
    },
    {
      "bufferView": 6,
      "byteOffset": 848,
      "componentType": 5126,
      "count": 30,
      "max": [
        1.2000000476837158
      ],
      "min": [
        0.03999999910593033
      ],
      "type": "SCALAR"
    },
    {
      "bufferView": 7,
      "byteOffset": 1512,
      "componentType": 5126,
      "count": 30,
      "max": [
        4.547473508864641e-13,
        0.22937645018100739,
        3.509112644906054e-08
      ],
      "min": [
        -4.90274650304795e-13,
        0.22937636077404022,
        -9.163660052990963e-09
      ],
      "type": "VEC3"
    },
    {
      "bufferView": 6,
      "byteOffset": 968,
      "componentType": 5126,
      "count": 30,
      "max": [
        1.2000000476837158
      ],
      "min": [
        0.03999999910593033
      ],
      "type": "SCALAR"
    },
    {
      "bufferView": 8,
      "byteOffset": 1376,
      "componentType": 5126,
      "count": 30,
      "max": [
        0.07578342407941818,
        1.1895078841916984e-06,
        8.778274462883928e-08,
        0.9976822733879089
      ],
      "min": [
        0.06804616749286652,
        1.1888625977007905e-06,
        7.855775407961119e-08,
        0.9971243739128113
      ],
      "type": "VEC4"
    },
    {
      "bufferView": 6,
      "byteOffset": 1088,
      "componentType": 5126,
      "count": 26,
      "max": [
        1.2000000476837158
      ],
      "min": [
        0.03999999910593033
      ],
      "type": "SCALAR"
    },
    {
      "bufferView": 7,
      "byteOffset": 1872,
      "componentType": 5126,
      "count": 26,
      "max": [
        1.0091289281845093,
        1.0091290473937988,
        1.0091290473937988
      ],
      "min": [
        1.0091289281845093,
        1.0091288089752197,
        1.0091288089752197
      ],
      "type": "VEC3"
    },
    {
      "bufferView": 6,
      "byteOffset": 1192,
      "componentType": 5126,
      "count": 30,
      "max": [
        1.2000000476837158
      ],
      "min": [
        0.03999999910593033
      ],
      "type": "SCALAR"
    },
    {
      "bufferView": 7,
      "byteOffset": 2184,
      "componentType": 5126,
      "count": 30,
      "max": [
        -7.947975433353349e-08,
        0.13859766721725464,
        0.03333626687526703
      ],
      "min": [
        -7.948067803908998e-08,
        0.1385975480079651,
        0.03333621472120285
      ],
      "type": "VEC3"
    },
    {
      "bufferView": 6,
      "byteOffset": 1312,
      "componentType": 5126,
      "count": 30,
      "max": [
        1.2000000476837158
      ],
      "min": [
        0.03999999910593033
      ],
      "type": "SCALAR"
    },
    {
      "bufferView": 8,
      "byteOffset": 1856,
      "componentType": 5126,
      "count": 30,
      "max": [
        -0.03386939316987991,
        2.3871385224083497e-07,
        -8.31681106205906e-08,
        0.9994262456893921
      ],
      "min": [
        -0.03717513754963875,
        2.384372521646583e-07,
        -8.39572678046352e-08,
        0.9993087649345398
      ],
      "type": "VEC4"
    },
    {
      "bufferView": 6,
      "byteOffset": 1432,
      "componentType": 5126,
      "count": 30,
      "max": [
        1.2000000476837158
      ],
      "min": [
        0.03999999910593033
      ],
      "type": "SCALAR"
    },
    {
      "bufferView": 7,
      "byteOffset": 2544,
      "componentType": 5126,
      "count": 30,
      "max": [
        1.0,
        1.0000001192092896,
        1.0000001192092896
      ],
      "min": [
        0.9999997615814209,
        0.9999998807907104,
        0.9999998807907104
      ],
      "type": "VEC3"
    },
    {
      "bufferView": 6,
      "byteOffset": 1552,
      "componentType": 5126,
      "count": 30,
      "max": [
        1.2000000476837158
      ],
      "min": [
        0.03999999910593033
      ],
      "type": "SCALAR"
    },
    {
      "bufferView": 7,
      "byteOffset": 2904,
      "componentType": 5126,
      "count": 30,
      "max": [
        0.05798390507698059,
        0.06590624898672104,
        0.09900686144828796
      ],
      "min": [
        0.0579838827252388,
        0.06590615957975388,
        0.09900683909654617
      ],
      "type": "VEC3"
    },
    {
      "bufferView": 6,
      "byteOffset": 1672,
      "componentType": 5126,
      "count": 30,
      "max": [
        1.2000000476837158
      ],
      "min": [
        0.03999999910593033
      ],
      "type": "SCALAR"
    },
    {
      "bufferView": 8,
      "byteOffset": 2336,
      "componentType": 5126,
      "count": 30,
      "max": [
        0.7484764456748962,
        0.6388155817985535,
        0.12320250272750854,
        0.22261649370193481
      ],
      "min": [
        0.7326224446296692,
        0.6163398027420044,
        0.10173623263835907,
        0.2000005841255188
      ],
      "type": "VEC4"
    },
    {
      "bufferView": 6,
      "byteOffset": 1792,
      "componentType": 5126,
      "count": 29,
      "max": [
        1.2000000476837158
      ],
      "min": [
        0.03999999910593033
      ],
      "type": "SCALAR"
    },
    {
      "bufferView": 7,
      "byteOffset": 3264,
      "componentType": 5126,
      "count": 29,
      "max": [
        1.0,
        0.9999998807907104,
        1.0000001192092896
      ],
      "min": [
        0.9999997019767761,
        0.9999996423721313,
        0.9999999403953552
      ],
      "type": "VEC3"
    },
    {
      "bufferView": 6,
      "byteOffset": 1908,
      "componentType": 5126,
      "count": 30,
      "max": [
        1.2000000476837158
      ],
      "min": [
        0.03999999910593033
      ],
      "type": "SCALAR"
    },
    {
      "bufferView": 7,
      "byteOffset": 3612,
      "componentType": 5126,
      "count": 30,
      "max": [
        6.448009770565477e-08,
        0.06954111903905869,
        3.870652065529612e-08
      ],
      "min": [
        -1.1312286218867484e-08,
        0.06954105943441391,
        -1.5563196953394254e-08
      ],
      "type": "VEC3"
    },
    {
      "bufferView": 6,
      "byteOffset": 2028,
      "componentType": 5126,
      "count": 30,
      "max": [
        1.2000000476837158
      ],
      "min": [
        0.03999999910593033
      ],
      "type": "SCALAR"
    },
    {
      "bufferView": 8,
      "byteOffset": 2816,
      "componentType": 5126,
      "count": 30,
      "max": [
        0.09953572601079941,
        -0.2778414785861969,
        0.3712634742259979,
        0.8904818892478943
      ],
      "min": [
        0.09492113441228867,
        -0.2922094762325287,
        0.34632182121276855,
        0.8762232065200806
      ],
      "type": "VEC4"
    },
    {
      "bufferView": 6,
      "byteOffset": 2148,
      "componentType": 5126,
      "count": 30,
      "max": [
        1.2000000476837158
      ],
      "min": [
        0.03999999910593033
      ],
      "type": "SCALAR"
    },
    {
      "bufferView": 7,
      "byteOffset": 3972,
      "componentType": 5126,
      "count": 30,
      "max": [
        1.0000001192092896,
        1.0000001192092896,
        1.0000001192092896
      ],
      "min": [
        0.9999997615814209,
        0.9999997019767761,
        0.9999998807907104
      ],
      "type": "VEC3"
    },
    {
      "bufferView": 6,
      "byteOffset": 2268,
      "componentType": 5126,
      "count": 30,
      "max": [
        1.2000000476837158
      ],
      "min": [
        0.03999999910593033
      ],
      "type": "SCALAR"
    },
    {
      "bufferView": 7,
      "byteOffset": 4332,
      "componentType": 5126,
      "count": 30,
      "max": [
        -0.059375353157520294,
        0.06590622663497925,
        0.09900688380002975
      ],
      "min": [
        -0.05937539041042328,
        0.06590616703033447,
        0.09900680929422379
      ],
      "type": "VEC3"
    },
    {
      "bufferView": 6,
      "byteOffset": 2388,
      "componentType": 5126,
      "count": 30,
      "max": [
        1.2000000476837158
      ],
      "min": [
        0.03999999910593033
      ],
      "type": "SCALAR"
    },
    {
      "bufferView": 8,
      "byteOffset": 3296,
      "componentType": 5126,
      "count": 30,
      "max": [
        -0.19350485503673553,
        0.481939435005188,
        0.7267140746116638,
        0.4677857756614685
      ],
      "min": [
        -0.1947532445192337,
        0.4743290841579437,
        0.7199223041534424,
        0.4496408700942993
      ],
      "type": "VEC4"
    },
    {
      "bufferView": 6,
      "byteOffset": 2508,
      "componentType": 5126,
      "count": 30,
      "max": [
        1.2000000476837158
      ],
      "min": [
        0.03999999910593033
      ],
      "type": "SCALAR"
    },
    {
      "bufferView": 7,
      "byteOffset": 4692,
      "componentType": 5126,
      "count": 30,
      "max": [
        1.0,
        1.0,
        1.0
      ],
      "min": [
        0.9999996423721313,
        0.9999997615814209,
        0.9999997615814209
      ],
      "type": "VEC3"
    },
    {
      "bufferView": 6,
      "byteOffset": 2628,
      "componentType": 5126,
      "count": 30,
      "max": [
        1.2000000476837158
      ],
      "min": [
        0.03999999910593033
      ],
      "type": "SCALAR"
    },
    {
      "bufferView": 7,
      "byteOffset": 5052,
      "componentType": 5126,
      "count": 30,
      "max": [
        1.9104238191403056e-08,
        0.07666844129562378,
        5.880615461251182e-08
      ],
      "min": [
        -4.2019152601824317e-08,
        0.07666835933923721,
        -9.845440018807494e-09
      ],
      "type": "VEC3"
    },
    {
      "bufferView": 6,
      "byteOffset": 2748,
      "componentType": 5126,
      "count": 30,
      "max": [
        1.2000000476837158
      ],
      "min": [
        0.03999999910593033
      ],
      "type": "SCALAR"
    },
    {
      "bufferView": 8,
      "byteOffset": 3776,
      "componentType": 5126,
      "count": 30,
      "max": [
        -0.17648328840732574,
        0.9480525851249695,
        -0.260709285736084,
        0.04561421275138855
      ],
      "min": [
        -0.19136041402816772,
        0.9426848292350769,
        -0.2703295350074768,
        0.04060279577970505
      ],
      "type": "VEC4"
    },
    {
      "bufferView": 6,
      "byteOffset": 2868,
      "componentType": 5126,
      "count": 30,
      "max": [
        1.2000000476837158
      ],
      "min": [
        0.03999999910593033
      ],
      "type": "SCALAR"
    },
    {
      "bufferView": 7,
      "byteOffset": 5412,
      "componentType": 5126,
      "count": 30,
      "max": [
        1.000000238418579,
        0.9999997615814209,
        1.0000001192092896
      ],
      "min": [
        0.9999998807907104,
        0.9999995827674866,
        0.9999998211860657
      ],
      "type": "VEC3"
    },
    {
      "bufferView": 6,
      "byteOffset": 2988,
      "componentType": 5126,
      "count": 30,
      "max": [
        1.2000000476837158
      ],
      "min": [
        0.03999999910593033
      ],
      "type": "SCALAR"
    },
    {
      "bufferView": 7,
      "byteOffset": 5772,
      "componentType": 5126,
      "count": 30,
      "max": [
        4.547473508864641e-13,
        -0.07541831582784653,
        -0.051376089453697205
      ],
      "min": [
        -2.2737367544323206e-13,
        -0.07541834563016891,
        -0.051376111805438995
      ],
      "type": "VEC3"
    },
    {
      "bufferView": 6,
      "byteOffset": 3108,
      "componentType": 5126,
      "count": 30,
      "max": [
        1.2000000476837158
      ],
      "min": [
        0.03999999910593033
      ],
      "type": "SCALAR"
    },
    {
      "bufferView": 8,
      "byteOffset": 4256,
      "componentType": 5126,
      "count": 30,
      "max": [
        0.01867707632482052,
        5.653569662864664e-27,
        -1.5087288308397197e-29,
        0.9998255968093872
      ],
      "min": [
        0.01867707259953022,
        5.653569277678675e-27,
        -1.5087339465911345e-29,
        0.9998255968093872
      ],
      "type": "VEC4"
    },
    {
      "bufferView": 6,
      "byteOffset": 3228,
      "componentType": 5126,
      "count": 19,
      "max": [
        1.2000000476837158
      ],
      "min": [
        0.03999999910593033
      ],
      "type": "SCALAR"
    },
    {
      "bufferView": 7,
      "byteOffset": 6132,
      "componentType": 5126,
      "count": 19,
      "max": [
        1.0,
        1.0,
        1.0
      ],
      "min": [
        1.0,
        0.9999998807907104,
        0.9999998807907104
      ],
      "type": "VEC3"
    },
    {
      "bufferView": 6,
      "byteOffset": 3304,
      "componentType": 5126,
      "count": 29,
      "max": [
        1.2000000476837158
      ],
      "min": [
        0.03999999910593033
      ],
      "type": "SCALAR"
    },
    {
      "bufferView": 7,
      "byteOffset": 6360,
      "componentType": 5126,
      "count": 29,
      "max": [
        6.821210263296962e-13,
        0.24403607845306396,
        2.00629663993368e-08
      ],
      "min": [
        -4.583000645652646e-13,
        0.24403606355190277,
        -2.9293212300274263e-09
      ],
      "type": "VEC3"
    },
    {
      "bufferView": 6,
      "byteOffset": 3420,
      "componentType": 5126,
      "count": 30,
      "max": [
        1.2000000476837158
      ],
      "min": [
        0.03999999910593033
      ],
      "type": "SCALAR"
    },
    {
      "bufferView": 8,
      "byteOffset": 4736,
      "componentType": 5126,
      "count": 30,
      "max": [
        -0.025682833045721054,
        -1.1879416206284077e-07,
        1.0398967908997747e-08,
        0.999670147895813
      ],
      "min": [
        -0.07684501260519028,
        -1.1945671474222763e-07,
        -2.6359119331686998e-09,
        0.9970430731773376
      ],
      "type": "VEC4"
    },
    {
      "bufferView": 6,
      "byteOffset": 3540,
      "componentType": 5126,
      "count": 21,
      "max": [
        1.2000000476837158
      ],
      "min": [
        0.03999999910593033
      ],
      "type": "SCALAR"
    },
    {
      "bufferView": 7,
      "byteOffset": 6708,
      "componentType": 5126,
      "count": 21,
      "max": [
        1.0,
        1.0,
        1.0
      ],
      "min": [
        1.0,
        0.9999997615814209,
        0.9999998211860657
      ],
      "type": "VEC3"
    },
    {
      "bufferView": 6,
      "byteOffset": 3624,
      "componentType": 5126,
      "count": 30,
      "max": [
        1.2000000476837158
      ],
      "min": [
        0.03999999910593033
      ],
      "type": "SCALAR"
    },
    {
      "bufferView": 7,
      "byteOffset": 6960,
      "componentType": 5126,
      "count": 30,
      "max": [
        3.963496197911809e-13,
        0.22996117174625397,
        8.031842746447637e-09
      ],
      "min": [
        -5.131450819817474e-13,
        0.22996114194393158,
        -1.5750595494523623e-08
      ],
      "type": "VEC3"
    },
    {
      "bufferView": 6,
      "byteOffset": 3744,
      "componentType": 5126,
      "count": 30,
      "max": [
        1.2000000476837158
      ],
      "min": [
        0.03999999910593033
      ],
      "type": "SCALAR"
    },
    {
      "bufferView": 8,
      "byteOffset": 5216,
      "componentType": 5126,
      "count": 30,
      "max": [
        0.041662827134132385,
        1.1920789688701916e-07,
        1.9145705465462015e-08,
        0.9999881982803345
      ],
      "min": [
        -0.16060581803321838,
        1.1766181273742404e-07,
        -4.966597799693773e-09,
        0.9870186448097229
      ],
      "type": "VEC4"
    },
    {
      "bufferView": 6,
      "byteOffset": 3864,
      "componentType": 5126,
      "count": 19,
      "max": [
        1.2000000476837158
      ],
      "min": [
        0.03999999910593033
      ],
      "type": "SCALAR"
    },
    {
      "bufferView": 7,
      "byteOffset": 7320,
      "componentType": 5126,
      "count": 19,
      "max": [
        1.0,
        1.0000001192092896,
        1.0000001192092896
      ],
      "min": [
        1.0,
        0.9999998807907104,
        0.9999998211860657
      ],
      "type": "VEC3"
    },
    {
      "bufferView": 6,
      "byteOffset": 3940,
      "componentType": 5126,
      "count": 30,
      "max": [
        1.2000000476837158
      ],
      "min": [
        0.03999999910593033
      ],
      "type": "SCALAR"
    },
    {
      "bufferView": 7,
      "byteOffset": 7548,
      "componentType": 5126,
      "count": 30,
      "max": [
        6.782008223245317e-13,
        0.1830763816833496,
        1.2998938814234862e-08
      ],
      "min": [
        -2.3129390655345083e-13,
        0.18307632207870483,
        -9.23407128539111e-09
      ],
      "type": "VEC3"
    },
    {
      "bufferView": 6,
      "byteOffset": 4060,
      "componentType": 5126,
      "count": 30,
      "max": [
        1.2000000476837158
      ],
      "min": [
        0.03999999910593033
      ],
      "type": "SCALAR"
    },
    {
      "bufferView": 8,
      "byteOffset": 5696,
      "componentType": 5126,
      "count": 30,
      "max": [
        0.09890134632587433,
        -2.8182405682145723e-14,
        1.9286770802390968e-15,
        0.999998152256012
      ],
      "min": [
        -0.06976056098937988,
        -2.8461635175405786e-14,
        -3.1944261536502204e-15,
        0.9950973391532898
      ],
      "type": "VEC4"
    },
    {
      "bufferView": 6,
      "byteOffset": 4180,
      "componentType": 5126,
      "count": 27,
      "max": [
        1.2000000476837158
      ],
      "min": [
        0.03999999910593033
      ],
      "type": "SCALAR"
    },
    {
      "bufferView": 7,
      "byteOffset": 7908,
      "componentType": 5126,
      "count": 27,
      "max": [
        1.0,
        0.9999998807907104,
        0.9999999403953552
      ],
      "min": [
        1.0,
        0.9999997615814209,
        0.9999998211860657
      ],
      "type": "VEC3"
    },
    {
      "bufferView": 6,
      "byteOffset": 4288,
      "componentType": 5126,
      "count": 30,
      "max": [
        1.2000000476837158
      ],
      "min": [
        0.03999999910593033
      ],
      "type": "SCALAR"
    },
    {
      "bufferView": 7,
      "byteOffset": 8232,
      "componentType": 5126,
      "count": 30,
      "max": [
        6.821210263296962e-13,
        0.13744430243968964,
        9.287040469985186e-09
      ],
      "min": [
        -4.547473508864641e-13,
        0.13744421303272247,
        -1.859049625352327e-08
      ],
      "type": "VEC3"
    },
    {
      "bufferView": 6,
      "byteOffset": 4408,
      "componentType": 5126,
      "count": 30,
      "max": [
        1.2000000476837158
      ],
      "min": [
        0.03999999910593033
      ],
      "type": "SCALAR"
    },
    {
      "bufferView": 8,
      "byteOffset": 6176,
      "componentType": 5126,
      "count": 30,
      "max": [
        0.08140111714601517,
        -1.1813388312020834e-07,
        -1.4536393422304172e-08,
        1.0
      ],
      "min": [
        -0.034113071858882904,
        -1.1868573324136378e-07,
        -2.8300435772621313e-08,
        0.9966814517974854
      ],
      "type": "VEC4"
    },
    {
      "bufferView": 6,
      "byteOffset": 4528,
      "componentType": 5126,
      "count": 28,
      "max": [
        1.2000000476837158
      ],
      "min": [
        0.03999999910593033
      ],
      "type": "SCALAR"
    },
    {
      "bufferView": 7,
      "byteOffset": 8592,
      "componentType": 5126,
      "count": 28,
      "max": [
        1.0,
        1.0,
        1.0000001192092896
      ],
      "min": [
        1.0,
        0.9999997019767761,
        0.9999997615814209
      ],
      "type": "VEC3"
    },
    {
      "bufferView": 6,
      "byteOffset": 4640,
      "componentType": 5126,
      "count": 30,
      "max": [
        1.2000000476837158
      ],
      "min": [
        0.03999999910593033
      ],
      "type": "SCALAR"
    },
    {
      "bufferView": 7,
      "byteOffset": 8928,
      "componentType": 5126,
      "count": 30,
      "max": [
        3.060022125012801e-13,
        0.08820970356464386,
        1.7796557116867007e-08
      ],
      "min": [
        -3.8321822386395976e-13,
        0.08820958435535431,
        -1.5702614319934582e-08
      ],
      "type": "VEC3"
    },
    {
      "bufferView": 6,
      "byteOffset": 4760,
      "componentType": 5126,
      "count": 30,
      "max": [
        1.2000000476837158
      ],
      "min": [
        0.03999999910593033
      ],
      "type": "SCALAR"
    },
    {
      "bufferView": 8,
      "byteOffset": 6656,
      "componentType": 5126,
      "count": 30,
      "max": [
        0.23179636895656586,
        -0.0020779259502887726,
        -0.0019941325299441814,
        0.9999613165855408
      ],
      "min": [
        -0.21407608687877655,
        -0.00207792897708714,
        -0.001994185848161578,
        0.9727600812911987
      ],
      "type": "VEC4"
    },
    {
      "bufferView": 6,
      "byteOffset": 4880,
      "componentType": 5126,
      "count": 29,
      "max": [
        1.2000000476837158
      ],
      "min": [
        0.03999999910593033
      ],
      "type": "SCALAR"
    },
    {
      "bufferView": 7,
      "byteOffset": 9288,
      "componentType": 5126,
      "count": 29,
      "max": [
        1.0,
        1.0,
        1.0
      ],
      "min": [
        1.0,
        0.9999997615814209,
        0.9999998211860657
      ],
      "type": "VEC3"
    },
    {
      "bufferView": 6,
      "byteOffset": 4996,
      "componentType": 5126,
      "count": 30,
      "max": [
        1.2000000476837158
      ],
      "min": [
        0.03999999910593033
      ],
      "type": "SCALAR"
    },
    {
      "bufferView": 7,
      "byteOffset": 9636,
      "componentType": 5126,
      "count": 30,
      "max": [
        0.0223922748118639,
        0.09529781341552734,
        0.007118423469364643
      ],
      "min": [
        0.022246405482292175,
        0.09522116184234619,
        0.006125384476035833
      ],
      "type": "VEC3"
    },
    {
      "bufferView": 6,
      "byteOffset": 5116,
      "componentType": 5126,
      "count": 30,
      "max": [
        1.2000000476837158
      ],
      "min": [
        0.03999999910593033
      ],
      "type": "SCALAR"
    },
    {
      "bufferView": 8,
      "byteOffset": 7136,
      "componentType": 5126,
      "count": 30,
      "max": [
        0.14490191638469696,
        0.11459282785654068,
        -0.44800010323524475,
        0.8881776928901672
      ],
      "min": [
        -0.07079435139894485,
        -0.02383926883339882,
        -0.4858282804489136,
        0.873668909072876
      ],
      "type": "VEC4"
    },
    {
      "bufferView": 6,
      "byteOffset": 5236,
      "componentType": 5126,
      "count": 29,
      "max": [
        1.2000000476837158
      ],
      "min": [
        0.03999999910593033
      ],
      "type": "SCALAR"
    },
    {
      "bufferView": 7,
      "byteOffset": 9996,
      "componentType": 5126,
      "count": 29,
      "max": [
        1.0000001192092896,
        1.0000001192092896,
        1.0000001192092896
      ],
      "min": [
        0.9999998211860657,
        0.9999998807907104,
        0.9999999403953552
      ],
      "type": "VEC3"
    },
    {
      "bufferView": 6,
      "byteOffset": 5352,
      "componentType": 5126,
      "count": 30,
      "max": [
        1.2000000476837158
      ],
      "min": [
        0.03999999910593033
      ],
      "type": "SCALAR"
    },
    {
      "bufferView": 7,
      "byteOffset": 10344,
      "componentType": 5126,
      "count": 30,
      "max": [
        6.775373151413078e-08,
        0.07741839438676834,
        2.3748725652694702e-08
      ],
      "min": [
        -1.7066486179828644e-07,
        0.0774182453751564,
        -3.585591912269592e-08
      ],
      "type": "VEC3"
    },
    {
      "bufferView": 6,
      "byteOffset": 5472,
      "componentType": 5126,
      "count": 30,
      "max": [
        1.2000000476837158
      ],
      "min": [
        0.03999999910593033
      ],
      "type": "SCALAR"
    },
    {
      "bufferView": 8,
      "byteOffset": 7616,
      "componentType": 5126,
      "count": 30,
      "max": [
        0.03126191347837448,
        -0.004380417056381702,
        0.04895408824086189,
        0.9967615604400635
      ],
      "min": [
        -0.12051025032997131,
        -0.14300450682640076,
        -0.08344659954309464,
        0.987479031085968
      ],
      "type": "VEC4"
    },
    {
      "bufferView": 6,
      "byteOffset": 5592,
      "componentType": 5126,
      "count": 30,
      "max": [
        1.2000000476837158
      ],
      "min": [
        0.03999999910593033
      ],
      "type": "SCALAR"
    },
    {
      "bufferView": 7,
      "byteOffset": 10704,
      "componentType": 5126,
      "count": 30,
      "max": [
        1.000000238418579,
        1.0000001192092896,
        1.0000001192092896
      ],
      "min": [
        0.9999998807907104,
        0.9999996423721313,
        0.9999998807907104
      ],
      "type": "VEC3"
    },
    {
      "bufferView": 6,
      "byteOffset": 5712,
      "componentType": 5126,
      "count": 30,
      "max": [
        1.2000000476837158
      ],
      "min": [
        0.03999999910593033
      ],
      "type": "SCALAR"
    },
    {
      "bufferView": 7,
      "byteOffset": 11064,
      "componentType": 5126,
      "count": 30,
      "max": [
        -0.023036926984786987,
        0.0905752182006836,
        0.007597733289003372
      ],
      "min": [
        -0.023448575288057327,
        0.09048093855381012,
        0.00527973985299468
      ],
      "type": "VEC3"
    },
    {
      "bufferView": 6,
      "byteOffset": 5832,
      "componentType": 5126,
      "count": 30,
      "max": [
        1.2000000476837158
      ],
      "min": [
        0.03999999910593033
      ],
      "type": "SCALAR"
    },
    {
      "bufferView": 8,
      "byteOffset": 8096,
      "componentType": 5126,
      "count": 30,
      "max": [
        0.15904724597930908,
        0.10120270401239395,
        0.4800325036048889,
        0.8842630386352539
      ],
      "min": [
        -0.07538864016532898,
        -0.19077551364898682,
        0.4470398426055908,
        0.8707696795463562
      ],
      "type": "VEC4"
    },
    {
      "bufferView": 6,
      "byteOffset": 5952,
      "componentType": 5126,
      "count": 30,
      "max": [
        1.2000000476837158
      ],
      "min": [
        0.03999999910593033
      ],
      "type": "SCALAR"
    },
    {
      "bufferView": 7,
      "byteOffset": 11424,
      "componentType": 5126,
      "count": 30,
      "max": [
        1.0000001192092896,
        1.0000001192092896,
        1.0000001192092896
      ],
      "min": [
        0.9999998211860657,
        0.9999997615814209,
        0.9999998211860657
      ],
      "type": "VEC3"
    },
    {
      "bufferView": 6,
      "byteOffset": 6072,
      "componentType": 5126,
      "count": 30,
      "max": [
        1.2000000476837158
      ],
      "min": [
        0.03999999910593033
      ],
      "type": "SCALAR"
    },
    {
      "bufferView": 7,
      "byteOffset": 11784,
      "componentType": 5126,
      "count": 30,
      "max": [
        1.1676456779241562e-07,
        0.07754456251859665,
        3.073364496231079e-08
      ],
      "min": [
        -9.185169602687893e-08,
        0.07754441350698471,
        -2.8871001589436673e-08
      ],
      "type": "VEC3"
    },
    {
      "bufferView": 6,
      "byteOffset": 6192,
      "componentType": 5126,
      "count": 30,
      "max": [
        1.2000000476837158
      ],
      "min": [
        0.03999999910593033
      ],
      "type": "SCALAR"
    },
    {
      "bufferView": 8,
      "byteOffset": 8576,
      "componentType": 5126,
      "count": 30,
      "max": [
        -0.02180381678044796,
        0.23466354608535767,
        0.11667844653129578,
        0.9991210103034973
      ],
      "min": [
        -0.11074551194906235,
        -0.07041113823652267,
        -0.057452909648418427,
        0.9645293354988098
      ],
      "type": "VEC4"
    },
    {
      "bufferView": 6,
      "byteOffset": 6312,
      "componentType": 5126,
      "count": 29,
      "max": [
        1.2000000476837158
      ],
      "min": [
        0.03999999910593033
      ],
      "type": "SCALAR"
    },
    {
      "bufferView": 7,
      "byteOffset": 12144,
      "componentType": 5126,
      "count": 29,
      "max": [
        1.000000238418579,
        1.0,
        1.0000001192092896
      ],
      "min": [
        0.9999998211860657,
        0.9999998211860657,
        0.9999998807907104
      ],
      "type": "VEC3"
    }
  ],
  "animations": [
    {
      "channels": [
        {
          "sampler": 0,
          "target": {
            "node": 9,
            "path": "rotation"
          }
        },
        {
          "sampler": 1,
          "target": {
            "node": 9,
            "path": "scale"
          }
        },
        {
          "sampler": 2,
          "target": {
            "node": 10,
            "path": "translation"
          }
        },
        {
          "sampler": 3,
          "target": {
            "node": 10,
            "path": "rotation"
          }
        },
        {
          "sampler": 4,
          "target": {
            "node": 10,
            "path": "scale"
          }
        },
        {
          "sampler": 5,
          "target": {
            "node": 11,
            "path": "translation"
          }
        },
        {
          "sampler": 6,
          "target": {
            "node": 11,
            "path": "rotation"
          }
        },
        {
          "sampler": 7,
          "target": {
            "node": 11,
            "path": "scale"
          }
        },
        {
          "sampler": 8,
          "target": {
            "node": 12,
            "path": "translation"
          }
        },
        {
          "sampler": 9,
          "target": {
            "node": 12,
            "path": "rotation"
          }
        },
        {
          "sampler": 10,
          "target": {
            "node": 12,
            "path": "scale"
          }
        },
        {
          "sampler": 11,
          "target": {
            "node": 13,
            "path": "translation"
          }
        },
        {
          "sampler": 12,
          "target": {
            "node": 13,
            "path": "rotation"
          }
        },
        {
          "sampler": 13,
          "target": {
            "node": 13,
            "path": "scale"
          }
        },
        {
          "sampler": 14,
          "target": {
            "node": 14,
            "path": "translation"
          }
        },
        {
          "sampler": 15,
          "target": {
            "node": 14,
            "path": "rotation"
          }
        },
        {
          "sampler": 16,
          "target": {
            "node": 14,
            "path": "scale"
          }
        },
        {
          "sampler": 17,
          "target": {
            "node": 15,
            "path": "translation"
          }
        },
        {
          "sampler": 18,
          "target": {
            "node": 15,
            "path": "rotation"
          }
        },
        {
          "sampler": 19,
          "target": {
            "node": 15,
            "path": "scale"
          }
        },
        {
          "sampler": 20,
          "target": {
            "node": 16,
            "path": "translation"
          }
        },
        {
          "sampler": 21,
          "target": {
            "node": 16,
            "path": "rotation"
          }
        },
        {
          "sampler": 22,
          "target": {
            "node": 16,
            "path": "scale"
          }
        },
        {
          "sampler": 23,
          "target": {
            "node": 17,
            "path": "translation"
          }
        },
        {
          "sampler": 24,
          "target": {
            "node": 17,
            "path": "rotation"
          }
        },
        {
          "sampler": 25,
          "target": {
            "node": 17,
            "path": "scale"
          }
        },
        {
          "sampler": 26,
          "target": {
            "node": 18,
            "path": "translation"
          }
        },
        {
          "sampler": 27,
          "target": {
            "node": 18,
            "path": "rotation"
          }
        },
        {
          "sampler": 28,
          "target": {
            "node": 18,
            "path": "scale"
          }
        },
        {
          "sampler": 29,
          "target": {
            "node": 19,
            "path": "translation"
          }
        },
        {
          "sampler": 30,
          "target": {
            "node": 19,
            "path": "rotation"
          }
        },
        {
          "sampler": 31,
          "target": {
            "node": 19,
            "path": "scale"
          }
        },
        {
          "sampler": 32,
          "target": {
            "node": 20,
            "path": "translation"
          }
        },
        {
          "sampler": 33,
          "target": {
            "node": 20,
            "path": "rotation"
          }
        },
        {
          "sampler": 34,
          "target": {
            "node": 20,
            "path": "scale"
          }
        },
        {
          "sampler": 35,
          "target": {
            "node": 21,
            "path": "translation"
          }
        },
        {
          "sampler": 36,
          "target": {
            "node": 21,
            "path": "rotation"
          }
        },
        {
          "sampler": 37,
          "target": {
            "node": 21,
            "path": "scale"
          }
        },
        {
          "sampler": 38,
          "target": {
            "node": 22,
            "path": "translation"
          }
        },
        {
          "sampler": 39,
          "target": {
            "node": 22,
            "path": "rotation"
          }
        },
        {
          "sampler": 40,
          "target": {
            "node": 22,
            "path": "scale"
          }
        },
        {
          "sampler": 41,
          "target": {
            "node": 23,
            "path": "translation"
          }
        },
        {
          "sampler": 42,
          "target": {
            "node": 23,
            "path": "rotation"
          }
        },
        {
          "sampler": 43,
          "target": {
            "node": 23,
            "path": "scale"
          }
        },
        {
          "sampler": 44,
          "target": {
            "node": 24,
            "path": "translation"
          }
        },
        {
          "sampler": 45,
          "target": {
            "node": 24,
            "path": "rotation"
          }
        },
        {
          "sampler": 46,
          "target": {
            "node": 24,
            "path": "scale"
          }
        },
        {
          "sampler": 47,
          "target": {
            "node": 25,
            "path": "translation"
          }
        },
        {
          "sampler": 48,
          "target": {
            "node": 25,
            "path": "rotation"
          }
        },
        {
          "sampler": 49,
          "target": {
            "node": 25,
            "path": "scale"
          }
        },
        {
          "sampler": 50,
          "target": {
            "node": 26,
            "path": "translation"
          }
        },
        {
          "sampler": 51,
          "target": {
            "node": 26,
            "path": "rotation"
          }
        },
        {
          "sampler": 52,
          "target": {
            "node": 26,
            "path": "scale"
          }
        },
        {
          "sampler": 53,
          "target": {
            "node": 27,
            "path": "translation"
          }
        },
        {
          "sampler": 54,
          "target": {
            "node": 27,
            "path": "rotation"
          }
        },
        {
          "sampler": 55,
          "target": {
            "node": 27,
            "path": "scale"
          }
        }
      ],
      "name": "Swim Cycle",
      "samplers": [
        {
          "input": 16,
          "interpolation": "LINEAR",
          "output": 17
        },
        {
          "input": 18,
          "interpolation": "LINEAR",
          "output": 19
        },
        {
          "input": 20,
          "interpolation": "LINEAR",
          "output": 21
        },
        {
          "input": 22,
          "interpolation": "LINEAR",
          "output": 23
        },
        {
          "input": 24,
          "interpolation": "LINEAR",
          "output": 25
        },
        {
          "input": 26,
          "interpolation": "LINEAR",
          "output": 27
        },
        {
          "input": 28,
          "interpolation": "LINEAR",
          "output": 29
        },
        {
          "input": 30,
          "interpolation": "LINEAR",
          "output": 31
        },
        {
          "input": 32,
          "interpolation": "LINEAR",
          "output": 33
        },
        {
          "input": 34,
          "interpolation": "LINEAR",
          "output": 35
        },
        {
          "input": 36,
          "interpolation": "LINEAR",
          "output": 37
        },
        {
          "input": 38,
          "interpolation": "LINEAR",
          "output": 39
        },
        {
          "input": 40,
          "interpolation": "LINEAR",
          "output": 41
        },
        {
          "input": 42,
          "interpolation": "LINEAR",
          "output": 43
        },
        {
          "input": 44,
          "interpolation": "LINEAR",
          "output": 45
        },
        {
          "input": 46,
          "interpolation": "LINEAR",
          "output": 47
        },
        {
          "input": 48,
          "interpolation": "LINEAR",
          "output": 49
        },
        {
          "input": 50,
          "interpolation": "LINEAR",
          "output": 51
        },
        {
          "input": 52,
          "interpolation": "LINEAR",
          "output": 53
        },
        {
          "input": 54,
          "interpolation": "LINEAR",
          "output": 55
        },
        {
          "input": 56,
          "interpolation": "LINEAR",
          "output": 57
        },
        {
          "input": 58,
          "interpolation": "LINEAR",
          "output": 59
        },
        {
          "input": 60,
          "interpolation": "LINEAR",
          "output": 61
        },
        {
          "input": 62,
          "interpolation": "LINEAR",
          "output": 63
        },
        {
          "input": 64,
          "interpolation": "LINEAR",
          "output": 65
        },
        {
          "input": 66,
          "interpolation": "LINEAR",
          "output": 67
        },
        {
          "input": 68,
          "interpolation": "LINEAR",
          "output": 69
        },
        {
          "input": 70,
          "interpolation": "LINEAR",
          "output": 71
        },
        {
          "input": 72,
          "interpolation": "LINEAR",
          "output": 73
        },
        {
          "input": 74,
          "interpolation": "LINEAR",
          "output": 75
        },
        {
          "input": 76,
          "interpolation": "LINEAR",
          "output": 77
        },
        {
          "input": 78,
          "interpolation": "LINEAR",
          "output": 79
        },
        {
          "input": 80,
          "interpolation": "LINEAR",
          "output": 81
        },
        {
          "input": 82,
          "interpolation": "LINEAR",
          "output": 83
        },
        {
          "input": 84,
          "interpolation": "LINEAR",
          "output": 85
        },
        {
          "input": 86,
          "interpolation": "LINEAR",
          "output": 87
        },
        {
          "input": 88,
          "interpolation": "LINEAR",
          "output": 89
        },
        {
          "input": 90,
          "interpolation": "LINEAR",
          "output": 91
        },
        {
          "input": 92,
          "interpolation": "LINEAR",
          "output": 93
        },
        {
          "input": 94,
          "interpolation": "LINEAR",
          "output": 95
        },
        {
          "input": 96,
          "interpolation": "LINEAR",
          "output": 97
        },
        {
          "input": 98,
          "interpolation": "LINEAR",
          "output": 99
        },
        {
          "input": 100,
          "interpolation": "LINEAR",
          "output": 101
        },
        {
          "input": 102,
          "interpolation": "LINEAR",
          "output": 103
        },
        {
          "input": 104,
          "interpolation": "LINEAR",
          "output": 105
        },
        {
          "input": 106,
          "interpolation": "LINEAR",
          "output": 107
        },
        {
          "input": 108,
          "interpolation": "LINEAR",
          "output": 109
        },
        {
          "input": 110,
          "interpolation": "LINEAR",
          "output": 111
        },
        {
          "input": 112,
          "interpolation": "LINEAR",
          "output": 113
        },
        {
          "input": 114,
          "interpolation": "LINEAR",
          "output": 115
        },
        {
          "input": 116,
          "interpolation": "LINEAR",
          "output": 117
        },
        {
          "input": 118,
          "interpolation": "LINEAR",
          "output": 119
        },
        {
          "input": 120,
          "interpolation": "LINEAR",
          "output": 121
        },
        {
          "input": 122,
          "interpolation": "LINEAR",
          "output": 123
        },
        {
          "input": 124,
          "interpolation": "LINEAR",
          "output": 125
        },
        {
          "input": 126,
          "interpolation": "LINEAR",
          "output": 127
        }
      ]
    }
  ],
  "asset": {
    "extras": {
      "author": "DigitalLife3D (https://sketchfab.com/DigitalLife3D)",
      "license": "CC-BY-NC-4.0 (http://creativecommons.org/licenses/by-nc/4.0/)",
      "source": "https://sketchfab.com/3d-models/model-75a-harbor-porpoise-eb02e57f17d741329a66844a3a8d2094",
      "title": "Model 75A - Harbor Porpoise"
    },
    "generator": "Sketchfab-16.53.0",
    "version": "2.0"
  },
  "bufferViews": [
    {
      "buffer": 0,
      "byteLength": 187648,
      "byteStride": 8,
      "name": "shortBufferViews",
      "target": 34962
    },
    {
      "buffer": 0,
      "byteLength": 433728,
      "byteOffset": 187648,
      "name": "floatBufferViews",
      "target": 34963
    },
    {
      "buffer": 0,
      "byteLength": 375296,
      "byteOffset": 621376,
      "byteStride": 8,
      "name": "floatBufferViews",
      "target": 34962
    },
    {
      "buffer": 0,
      "byteLength": 562944,
      "byteOffset": 996672,
      "byteStride": 12,
      "name": "floatBufferViews",
      "target": 34962
    },
    {
      "buffer": 0,
      "byteLength": 668000,
      "byteOffset": 1559616,
      "byteStride": 16,
      "name": "floatBufferViews",
      "target": 34962
    },
    {
      "buffer": 0,
      "byteLength": 1280,
      "byteOffset": 2227616,
      "name": "floatBufferViews"
    },
    {
      "buffer": 0,
      "byteLength": 6428,
      "byteOffset": 2228896,
      "name": "floatBufferViews"
    },
    {
      "buffer": 0,
      "byteLength": 12492,
      "byteOffset": 2235324,
      "byteStride": 12,
      "name": "floatBufferViews"
    },
    {
      "buffer": 0,
      "byteLength": 9056,
      "byteOffset": 2247816,
      "byteStride": 16,
      "name": "floatBufferViews"
    }
  ],
  "buffers": [
    {
      "byteLength": 2256872,
      "uri": "scene.bin"
    }
  ],
  "extensionsUsed": [
    "KHR_materials_clearcoat",
    "KHR_materials_specular"
  ],
  "images": [
    {
      "uri": "textures/porpoise_skin_baseColor.png"
    },
    {
      "uri": "textures/porpoise_skin_metallicRoughness.png"
    },
    {
      "uri": "textures/porpoise_skin_normal.png"
    }
  ],
  "materials": [
    {
      "doubleSided": true,
      "extensions": {
        "KHR_materials_clearcoat": {
          "clearcoatFactor": 0.03830030487804878,
          "clearcoatNormalTexture": {
            "index": 2,
            "scale": 0.4346417682926829
          },
          "clearcoatRoughnessFactor": 1.0,
          "clearcoatRoughnessTexture": {
            "index": 1
          }
        },
        "KHR_materials_specular": {
          "specularColorFactor": [
            1.0,
            1.0,
            1.0
          ],
          "specularFactor": 0.032202743902439025
        }
      },
      "name": "porpoise_skin",
      "normalTexture": {
        "index": 2,
        "scale": 0.4346417682926829
      },
      "pbrMetallicRoughness": {
        "baseColorTexture": {
          "index": 0
        },
        "metallicFactor": 0.0,
        "metallicRoughnessTexture": {
          "index": 1
        }
      }
    },
    {
      "doubleSided": true,
      "extensions": {
        "KHR_materials_specular": {
          "specularColorFactor": [
            1.0,
            1.0,
            1.0
          ],
          "specularFactor": 0.05659298780487805
        }
      },
      "name": "porpoise_eye",
      "pbrMetallicRoughness": {
        "baseColorFactor": [
          0.00530946,
          0.00530946,
          0.00530946,
          1.0
        ],
        "metallicFactor": 0.0,
        "roughnessFactor": 0.17244664634146342
      }
    }
  ],
  "meshes": [
    {
      "name": "Object_0",
      "primitives": [
        {
          "attributes": {
            "JOINTS_0": 12,
            "NORMAL": 1,
            "POSITION": 0,
            "TANGENT": 2,
            "TEXCOORD_0": 3,
            "TEXCOORD_1": 4,
            "TEXCOORD_2": 3,
            "TEXCOORD_3": 3,
            "TEXCOORD_4": 3,
            "WEIGHTS_0": 13
          },
          "indices": 5,
          "material": 0,
          "mode": 4
        }
      ]
    },
    {
      "name": "Object_1",
      "primitives": [
        {
          "attributes": {
            "JOINTS_0": 14,
            "NORMAL": 7,
            "POSITION": 6,
            "TEXCOORD_0": 8,
            "TEXCOORD_1": 9,
            "WEIGHTS_0": 15
          },
          "indices": 10,
          "material": 1,
          "mode": 4
        }
      ]
    }
  ],
  "nodes": [
    {
      "children": [
        1
      ],
      "matrix": [
        1.0,
        0.0,
        0.0,
        0.0,
        0.0,
        2.220446049250313e-16,
        -1.0,
        0.0,
        0.0,
        1.0,
        2.220446049250313e-16,
        0.0,
        0.0,
        0.0,
        0.0,
        1.0
      ],
      "name": "Sketchfab_model"
    },
    {
      "children": [
        2
      ],
      "name": "root"
    },
    {
      "children": [
        3
      ],
      "matrix": [
        1.0,
        0.0,
        0.0,
        0.0,
        0.0,
        2.220446049250313e-16,
        1.0,
        0.0,
        0.0,
        -1.0,
        2.220446049250313e-16,
        0.0,
        0.0,
        0.0,
        0.0,
        1.0
      ],
      "name": "GLTF_SceneRootNode"
    },
    {
      "children": [
        4
      ],
      "name": "Arm_20"
    },
    {
      "children": [
        5,
        7,
        8,
        6
      ],
      "name": "GLTF_created_0"
    },
    {
      "children": [
        9
      ],
      "name": "GLTF_created_0_rootJoint"
    },
    {
      "name": "mesh_19"
    },
    {
      "mesh": 0,
      "name": "Object_7",
      "skin": 0
    },
    {
      "mesh": 1,
      "name": "Object_8",
      "skin": 0
    },
    {
      "children": [
        10,
        11,
        18
      ],
      "name": "MAIN_18",
      "rotation": [
        -0.7153550982475281,
        -2.2578189035416773e-27,
        2.3114373709724013e-27,
        0.6987611055374146
      ],
      "scale": [
        1.0,
        0.9999999403953552,
        0.9999999403953552
      ],
      "translation": [
        -3.4116674214601517e-06,
        0.1153678223490715,
        0.23247985541820526
      ]
    },
    {
      "name": "dorsal_0",
      "rotation": [
        0.21227335929870605,
        1.1649252940060251e-07,
        2.5304952799842795e-08,
        0.9772103428840637
      ],
      "translation": [
        0.0,
        0.1787552535533905,
        0.06709147244691849
      ]
    },
    {
      "children": [
        12,
        14,
        16
      ],
      "name": "spine.001_7",
      "rotation": [
        -0.9958374500274658,
        2.943669808646685e-28,
        3.2177089359860866e-27,
        0.09114761650562286
      ],
      "scale": [
        1.0,
        1.0,
        0.9999958276748657
      ],
      "translation": [
        0.0,
        -0.07541834563016891,
        -0.0513760969042778
      ]
    },
    {
      "children": [
        13
      ],
      "name": "head_01_2",
      "rotation": [
        0.07084193080663681,
        1.1891039548572735e-06,
        8.445060473150079e-08,
        0.9974875450134277
      ],
      "scale": [
        1.0,
        0.9999999403953552,
        0.9999999403953552
      ],
      "translation": [
        0.0,
        0.2293763905763626,
        5.587935447692871e-09
      ]
    },
    {
      "name": "jaw_1",
      "rotation": [
        -0.03216755390167236,
        2.3829412043596676e-07,
        -8.436314402615608e-08,
        0.9994825124740601
      ],
      "translation": [
        -7.94802232917391e-08,
        0.13859760761260986,
        0.03333623334765434
      ]
    },
    {
      "children": [
        15
      ],
      "name": "scapula.L_4",
      "rotation": [
        0.7398179769515991,
        0.6316226720809937,
        0.11865437030792236,
        0.19910648465156555
      ],
      "scale": [
        0.9999998807907104,
        0.9999997019767761,
        0.9999999403953552
      ],
      "translation": [
        0.0579838901758194,
        0.06590618938207626,
        0.09900685399770737
      ]
    },
    {
      "name": "flipper.L_3",
      "rotation": [
        0.08234598487615585,
        -0.2751186192035675,
        0.33949869871139526,
        0.8956949710845947
      ],
      "scale": [
        1.0,
        0.9999998211860657,
        1.0
      ],
      "translation": [
        3.632158041000366e-08,
        0.0695410892367363,
        6.2282197177410126e-09
      ]
    },
    {
      "children": [
        17
      ],
      "name": "scapula.R_6",
      "rotation": [
        -0.1946803331375122,
        0.4743290841579437,
        0.7199223041534424,
        0.4677858054637909
      ],
      "scale": [
        0.9999998807907104,
        0.9999999403953552,
        0.9999999403953552
      ],
      "translation": [
        -0.05937537923455238,
        0.06590618938207626,
        0.09900685399770737
      ]
    },
    {
      "name": "flipper.R_5",
      "rotation": [
        -0.21164970099925995,
        0.9314153790473938,
        -0.2956857979297638,
        0.015485319308936596
      ],
      "scale": [
        1.0,
        0.9999997019767761,
        0.9999999403953552
      ],
      "translation": [
        -1.4901161193847656e-08,
        0.0766684040427208,
        2.0489096641540527e-08
      ]
    },
    {
      "children": [
        19
      ],
      "name": "spine.002_17",
      "rotation": [
        0.01867707446217537,
        5.653569662864664e-27,
        -1.5087312382521502e-29,
        0.9998255968093872
      ],
      "scale": [
        1.0,
        0.9999999403953552,
        0.9999999403953552
      ],
      "translation": [
        0.0,
        -0.07541834563016891,
        -0.0513760969042778
      ]
    },
    {
      "children": [
        20
      ],
      "name": "spine.003_16",
      "rotation": [
        -0.05079125240445137,
        -1.1905541441592504e-07,
        6.054787782261428e-09,
        0.9987093210220337
      ],
      "scale": [
        1.0,
        0.9999998807907104,
        0.9999999403953552
      ],
      "translation": [
        0.0,
        0.24403606355190277,
        5.238689482212067e-09
      ]
    },
    {
      "children": [
        21
      ],
      "name": "spine.004_15",
      "rotation": [
        -0.05215785279870033,
        1.1904704422249779e-07,
        6.217700132538084e-09,
        0.9986388683319092
      ],
      "translation": [
        -5.839773109528323e-14,
        0.22996115684509277,
        -9.305091697164869e-10
      ]
    },
    {
      "children": [
        22
      ],
      "name": "spine.005_14",
      "rotation": [
        0.05153607577085495,
        -2.8429718973953244e-14,
        5.777452914543972e-16,
        0.9986711144447327
      ],
      "scale": [
        1.0,
        0.9999998807907104,
        0.9999999403953552
      ],
      "translation": [
        2.2345344433301328e-13,
        0.18307635188102722,
        5.587935447692871e-09
      ]
    },
    {
      "children": [
        23
      ],
      "name": "spine.006_13",
      "rotation": [
        0.03106697089970112,
        -1.1915173558918468e-07,
        -3.703471085358956e-09,
        0.9995173215866089
      ],
      "scale": [
        1.0,
        0.9999998807907104,
        0.9999999403953552
      ],
      "translation": [
        4.235164736271502e-22,
        0.13744427263736725,
        0.0
      ]
    },
    {
      "children": [
        24,
        26
      ],
      "name": "spine.007_12",
      "rotation": [
        -0.020594434812664986,
        1.1918403686195234e-07,
        2.45504749862846e-09,
        0.9997879266738892
      ],
      "scale": [
        1.0,
        0.9999998807907104,
        0.9999999403953552
      ],
      "translation": [
        -1.5229484340295585e-13,
        0.08820964395999908,
        -8.140938478895521e-10
      ]
    },
    {
      "children": [
        25
      ],
      "name": "fluke.L_9",
      "rotation": [
        0.06716646999120712,
        -0.04732627049088478,
        -0.45474332571029663,
        0.886824369430542
      ],
      "translation": [
        0.022246291860938072,
        0.09539079666137695,
        0.006368923932313919
      ]
    },
    {
      "name": "fluke.L.001_8",
      "rotation": [
        2.200249582529068e-08,
        -3.14321368932724e-09,
        -2.7939677238464355e-07,
        1.0
      ],
      "translation": [
        -5.145557224750519e-08,
        0.07741830497980118,
        -6.05359673500061e-09
      ]
    },
    {
      "children": [
        27
      ],
      "name": "fluke.R_11",
      "rotation": [
        0.05705467611551285,
        0.06958947330713272,
        0.44368478655815125,
        0.8916534185409546
      ],
      "scale": [
        1.0,
        0.9999999403953552,
        0.9999999403953552
      ],
      "translation": [
        -0.023448601365089417,
        0.09040570259094238,
        0.006029259879142046
      ]
    },
    {
      "name": "fluke.R.001_10",
      "rotation": [
        7.916241884231567e-09,
        2.0023435354232788e-08,
        2.2118912923474454e-08,
        1.0
      ],
      "scale": [
        1.0,
        0.9999999403953552,
        1.0
      ],
      "translation": [
        2.735760062932968e-08,
        0.07754447311162949,
        9.313225746154785e-10
      ]
    }
  ],
  "samplers": [
    {
      "magFilter": 9729,
      "minFilter": 9987,
      "wrapS": 10497,
      "wrapT": 10497
    }
  ],
  "scene": 0,
  "scenes": [
    {
      "name": "Sketchfab_Scene",
      "nodes": [
        0
      ]
    }
  ],
  "skins": [
    {
      "inverseBindMatrices": 11,
      "joints": [
        5,
        9,
        10,
        11,
        12,
        13,
        14,
        15,
        16,
        17,
        18,
        19,
        20,
        21,
        22,
        23,
        24,
        25,
        26,
        27
      ],
      "skeleton": 5
    }
  ],
  "textures": [
    {
      "sampler": 0,
      "source": 0
    },
    {
      "sampler": 0,
      "source": 1
    },
    {
      "sampler": 0,
      "source": 2
    }
  ]
}
