{
  "accessors": [
    {
      "bufferView": 2,
      "componentType": 5126,
      "count": 36343,
      "max": [
        1.0004199743270874,
        5.759730815887451,
        -0.48718100786209106
      ],
      "min": [
        -0.2816540002822876,
        5.526638984680176,
        -0.702925980091095
      ],
      "type": "VEC3"
    },
    {
      "bufferView": 2,
      "byteOffset": 436116,
      "componentType": 5126,
      "count": 36343,
      "max": [
        0.9994677305221558,
        0.9999710917472839,
        0.9999836683273315
      ],
      "min": [
        -0.9913620352745056,
        -0.9999943971633911,
        -0.9999739527702332
      ],
      "type": "VEC3"
    },
    {
      "bufferView": 1,
      "componentType": 5126,
      "count": 36343,
      "max": [
        0.9987300038337708,
        0.995058000087738
      ],
      "min": [
        0.00010199999815085903,
        0.00017600000137463212
      ],
      "type": "VEC2"
    },
    {
      "bufferView": 0,
      "componentType": 5125,
      "count": 206112,
      "type": "SCALAR"
    }
  ],
  "asset": {
    "extras": {
      "author": "MooreLab (https://sketchfab.com/MooreLab)",
      "license": "CC-BY-4.0 (http://creativecommons.org/licenses/by/4.0/)",
      "source": "https://sketchfab.com/3d-models/common-tern-sterna-hirundo-743e28f64bd24a4fa9363ae4403fbdc8",
      "title": "Common Tern - Sterna hirundo"
    },
    "generator": "Sketchfab-15.18.0",
    "version": "2.0"
  },
  "bufferViews": [
    {
      "buffer": 0,
      "byteLength": 824448,
      "name": "floatBufferViews",
      "target": 34963
    },
    {
      "buffer": 0,
      "byteLength": 290744,
      "byteOffset": 824448,
      "byteStride": 8,
      "name": "floatBufferViews",
      "target": 34962
    },
    {
      "buffer": 0,
      "byteLength": 872232,
      "byteOffset": 1115192,
      "byteStride": 12,
      "name": "floatBufferViews",
      "target": 34962
    }
  ],
  "buffers": [
    {
      "byteLength": 1987424,
      "uri": "scene.bin"
    }
  ],
  "extensionsUsed": [
    "KHR_materials_specular"
  ],
  "images": [
    {
      "uri": "textures/Sterna_baseColor.png"
    }
  ],
  "materials": [
    {
      "doubleSided": true,
      "extensions": {
        "KHR_materials_specular": {
          "specularColorFactor": [
            1.0,
            1.0,
            1.0
          ],
          "specularFactor": 0.0
        }
      },
      "name": "Sterna",
      "pbrMetallicRoughness": {
        "baseColorTexture": {
          "index": 0
        },
        "metallicFactor": 0.0
      }
    }
  ],
  "meshes": [
    {
      "name": "Object_0",
      "primitives": [
        {
          "attributes": {
            "NORMAL": 1,
            "POSITION": 0,
            "TEXCOORD_0": 2
          },
          "indices": 3,
          "material": 0,
          "mode": 4
        }
      ]
    }
  ],
  "nodes": [
    {
      "children": [
        1
      ],
      "matrix": [
        0.9907593131065369,
        3.01162862181287e-17,
        -0.13563169538974762,
        0.0,
        -0.11194382607936859,
        0.5646191835403445,
        -0.8177247643470763,
        0.0,
        0.07658025622367859,
        0.8253515362739562,
        0.5594016909599306,
        0.0,
        0.0,
        0.0,
        0.0,
        1.0
      ],
      "name": "Sketchfab_model"
    },
    {
      "children": [
        2
      ],
      "name": "Sterna.obj.cleaner.materialmerger.gles"
    },
    {
      "mesh": 0,
      "name": "Object_2"
    }
  ],
  "samplers": [
    {
      "magFilter": 9729,
      "minFilter": 9987,
      "wrapS": 10497,
      "wrapT": 10497
    }
  ],
  "scene": 0,
  "scenes": [
    {
      "name": "Sketchfab_Scene",
      "nodes": [
        0
      ]
    }
  ],
  "textures": [
    {
      "sampler": 0,
      "source": 0
    }
  ]
}
