{
  "accessors": [
    {
      "bufferView": 2,
      "componentType": 5126,
      "count": 65532,
      "max": [
        1.3931469917297363,
        1.4622780084609985,
        2.20135498046875
      ],
      "min": [
        -1.4501440525054932,
        -1.4338539838790894,
        -2.076503038406372
      ],
      "type": "VEC3"
    },
    {
      "bufferView": 2,
      "byteOffset": 786384,
      "componentType": 5126,
      "count": 65532,
      "max": [
        0.9998955726623535,
        0.9999927282333374,
        0.9998185038566589
      ],
      "min": [
        -0.9999736547470093,
        -0.9999816417694092,
        -1.0
      ],
      "type": "VEC3"
    },
    {
      "bufferView": 1,
      "componentType": 5126,
      "count": 65532,
      "max": [
        0.9971439838409424,
        0.9978700280189514
      ],
      "min": [
        0.005286999978125095,
        0.001075000036507845
      ],
      "type": "VEC2"
    },
    {
      "bufferView": 0,
      "componentType": 5125,
      "count": 160410,
      "type": "SCALAR"
    },
    {
      "bufferView": 2,
      "byteOffset": 1572768,
      "componentType": 5126,
      "count": 65532,
      "max": [
        1.3896770477294922,
        1.4601420164108276,
        2.2003109455108643
      ],
      "min": [
        -1.4525959491729736,
        -1.412039041519165,
        -2.076503038406372
      ],
      "type": "VEC3"
    },
    {
      "bufferView": 2,
      "byteOffset": 2359152,
      "componentType": 5126,
      "count": 65532,
      "max": [
        0.9998294711112976,
        0.9999197721481323,
        0.9998185038566589
      ],
      "min": [
        -0.9999737739562988,
        -0.9999818801879883,
        -0.9999558925628662
      ],
      "type": "VEC3"
    },
    {
      "bufferView": 1,
      "byteOffset": 524256,
      "componentType": 5126,
      "count": 65532,
      "max": [
        0.9971799850463867,
        0.9979079961776733
      ],
      "min": [
        0.0017940000398084521,
        0.0009970000246539712
      ],
      "type": "VEC2"
    },
    {
      "bufferView": 0,
      "byteOffset": 641640,
      "componentType": 5125,
      "count": 128691,
      "type": "SCALAR"
    },
    {
      "bufferView": 2,
      "byteOffset": 3145536,
      "componentType": 5126,
      "count": 65532,
      "max": [
        1.3963489532470703,
        1.460584044456482,
        2.2032508850097656
      ],
      "min": [
        -1.4378279447555542,
        -1.4110209941864014,
        -2.076503038406372
      ],
      "type": "VEC3"
    },
    {
      "bufferView": 2,
      "byteOffset": 3931920,
      "componentType": 5126,
      "count": 65532,
      "max": [
        0.9998955726623535,
        0.9999189376831055,
        0.9998388886451721
      ],
      "min": [
        -0.9999735355377197,
        -0.9999024868011475,
        -0.9992011785507202
      ],
      "type": "VEC3"
    },
    {
      "bufferView": 1,
      "byteOffset": 1048512,
      "componentType": 5126,
      "count": 65532,
      "max": [
        0.9979910254478455,
        0.9975510239601135
      ],
      "min": [
        0.0017940000398084521,
        0.003281000070273876
      ],
      "type": "VEC2"
    },
    {
      "bufferView": 0,
      "byteOffset": 1156404,
      "componentType": 5125,
      "count": 119367,
      "type": "SCALAR"
    },
    {
      "bufferView": 2,
      "byteOffset": 4718304,
      "componentType": 5126,
      "count": 65533,
      "max": [
        1.4147160053253174,
        1.1915580034255981,
        2.202630043029785
      ],
      "min": [
        -1.445999026298523,
        -1.391577959060669,
        -2.076503038406372
      ],
      "type": "VEC3"
    },
    {
      "bufferView": 2,
      "byteOffset": 5504700,
      "componentType": 5126,
      "count": 65533,
      "max": [
        0.9999604225158691,
        0.999962329864502,
        0.9991965293884277
      ],
      "min": [
        -0.999366044998169,
        -0.9999991655349731,
        -0.9999558925628662
      ],
      "type": "VEC3"
    },
    {
      "bufferView": 1,
      "byteOffset": 1572768,
      "componentType": 5126,
      "count": 65533,
      "max": [
        0.9995179772377014,
        0.9990890026092529
      ],
      "min": [
        0.0036989999935030937,
        0.002724000019952655
      ],
      "type": "VEC2"
    },
    {
      "bufferView": 0,
      "byteOffset": 1633872,
      "componentType": 5125,
      "count": 177378,
      "type": "SCALAR"
    },
    {
      "bufferView": 2,
      "byteOffset": 6291096,
      "componentType": 5126,
      "count": 65534,
      "max": [
        1.442234992980957,
        1.3606319427490234,
        2.1937789916992188
      ],
      "min": [
        -1.4573570489883423,
        -1.3281439542770386,
        -2.076503038406372
      ],
      "type": "VEC3"
    },
    {
      "bufferView": 2,
      "byteOffset": 7077504,
      "componentType": 5126,
      "count": 65534,
      "max": [
        0.9999395608901978,
        0.9999713897705078,
        0.9997923970222473
      ],
      "min": [
        -0.9999737739562988,
        -0.9999587535858154,
        -0.9999432563781738
      ],
      "type": "VEC3"
    },
    {
      "bufferView": 1,
      "byteOffset": 2097032,
      "componentType": 5126,
      "count": 65534,
      "max": [
        0.9994580149650574,
        0.9995260238647461
      ],
      "min": [
        6.600000051548705e-05,
        6.600000051548705e-05
      ],
      "type": "VEC2"
    },
    {
      "bufferView": 0,
      "byteOffset": 2343384,
      "componentType": 5125,
      "count": 173076,
      "type": "SCALAR"
    },
    {
      "bufferView": 2,
      "byteOffset": 7863912,
      "componentType": 5126,
      "count": 65533,
      "max": [
        1.3963489532470703,
        1.4612109661102295,
        2.203648090362549
      ],
      "min": [
        -1.393671989440918,
        -1.441437005996704,
        -2.076503038406372
      ],
      "type": "VEC3"
    },
    {
      "bufferView": 2,
      "byteOffset": 8650308,
      "componentType": 5126,
      "count": 65533,
      "max": [
        0.9998888969421387,
        0.9999479055404663,
        0.9998460412025452
      ],
      "min": [
        -0.9999407529830933,
        -0.9999991655349731,
        -0.9999432563781738
      ],
      "type": "VEC3"
    },
    {
      "bufferView": 1,
      "byteOffset": 2621304,
      "componentType": 5126,
      "count": 65533,
      "max": [
        0.9955499768257141,
        0.9952899813652039
      ],
      "min": [
        0.0037869999650865793,
        0.0014479999663308263
      ],
      "type": "VEC2"
    },
    {
      "bufferView": 0,
      "byteOffset": 3035688,
      "componentType": 5125,
      "count": 162102,
      "type": "SCALAR"
    },
    {
      "bufferView": 2,
      "byteOffset": 9436704,
      "componentType": 5126,
      "count": 65533,
      "max": [
        1.3824260234832764,
        1.4596329927444458,
        2.203648090362549
      ],
      "min": [
        -1.457110047340393,
        -1.438454031944275,
        -2.076503038406372
      ],
      "type": "VEC3"
    },
    {
      "bufferView": 2,
      "byteOffset": 10223100,
      "componentType": 5126,
      "count": 65533,
      "max": [
        0.9999555349349976,
        0.9999479055404663,
        0.9997294545173645
      ],
      "min": [
        -0.9999737739562988,
        -0.999794065952301,
        -0.9968050122261047
      ],
      "type": "VEC3"
    },
    {
      "bufferView": 1,
      "byteOffset": 3145568,
      "componentType": 5126,
      "count": 65533,
      "max": [
        0.9971060156822205,
        0.9973589777946472
      ],
      "min": [
        0.01488799974322319,
        0.002302000066265464
      ],
      "type": "VEC2"
    },
    {
      "bufferView": 0,
      "byteOffset": 3684096,
      "componentType": 5125,
      "count": 118665,
      "type": "SCALAR"
    },
    {
      "bufferView": 2,
      "byteOffset": 11009496,
      "componentType": 5126,
      "count": 12061,
      "max": [
        1.3969700336456299,
        1.4622780084609985,
        2.1800379753112793
      ],
      "min": [
        -1.4525959491729736,
        -1.1973730325698853,
        -2.076503038406372
      ],
      "type": "VEC3"
    },
    {
      "bufferView": 2,
      "byteOffset": 11154228,
      "componentType": 5126,
      "count": 12061,
      "max": [
        0.9999102354049683,
        0.9991047978401184,
        0.9995883107185364
      ],
      "min": [
        -0.9997857213020325,
        -0.9915176033973694,
        -0.97866290807724
      ],
      "type": "VEC3"
    },
    {
      "bufferView": 1,
      "byteOffset": 3669832,
      "componentType": 5126,
      "count": 12061,
      "max": [
        0.9958249926567078,
        0.9948149919509888
      ],
      "min": [
        0.023385999724268913,
        0.0020459999796003103
      ],
      "type": "VEC2"
    },
    {
      "bufferView": 0,
      "byteOffset": 4158756,
      "componentType": 5125,
      "count": 16179,
      "type": "SCALAR"
    }
  ],
  "asset": {
    "extras": {
      "author": "The Watt Institution (https://sketchfab.com/wattinstitution)",
      "license": "CC-BY-4.0 (http://creativecommons.org/licenses/by/4.0/)",
      "source": "https://sketchfab.com/3d-models/common-guillemot-4ccd9ecc2ae744619e1f664a33e8736c",
      "title": "Common Guillemot"
    },
    "generator": "Sketchfab-16.54.0",
    "version": "2.0"
  },
  "bufferViews": [
    {
      "buffer": 0,
      "byteLength": 4223472,
      "name": "floatBufferViews",
      "target": 34963
    },
    {
      "buffer": 0,
      "byteLength": 3766320,
      "byteOffset": 4223472,
      "byteStride": 8,
      "name": "floatBufferViews",
      "target": 34962
    },
    {
      "buffer": 0,
      "byteLength": 11298960,
      "byteOffset": 7989792,
      "byteStride": 12,
      "name": "floatBufferViews",
      "target": 34962
    }
  ],
  "buffers": [
    {
      "byteLength": 19288752,
      "uri": "scene.bin"
    }
  ],
  "extensionsUsed": [
    "KHR_materials_unlit"
  ],
  "images": [
    {
      "uri": "textures/material_1.001_baseColor.png"
    }
  ],
  "materials": [
    {
      "doubleSided": true,
      "extensions": {
        "KHR_materials_unlit": {}
      },
      "name": "material_1.001",
      "pbrMetallicRoughness": {
        "baseColorTexture": {
          "index": 0
        },
        "metallicFactor": 0.0
      }
    }
  ],
  "meshes": [
    {
      "name": "Object_0",
      "primitives": [
        {
          "attributes": {
            "NORMAL": 1,
            "POSITION": 0,
            "TEXCOORD_0": 2
          },
          "indices": 3,
          "material": 0,
          "mode": 4
        }
      ]
    },
    {
      "name": "Object_1",
      "primitives": [
        {
          "attributes": {
            "NORMAL": 5,
            "POSITION": 4,
            "TEXCOORD_0": 6
          },
          "indices": 7,
          "material": 0,
          "mode": 4
        }
      ]
    },
    {
      "name": "Object_2",
      "primitives": [
        {
          "attributes": {
            "NORMAL": 9,
            "POSITION": 8,
            "TEXCOORD_0": 10
          },
          "indices": 11,
          "material": 0,
          "mode": 4
        }
      ]
    },
    {
      "name": "Object_3",
      "primitives": [
        {
          "attributes": {
            "NORMAL": 13,
            "POSITION": 12,
            "TEXCOORD_0": 14
          },
          "indices": 15,
          "material": 0,
          "mode": 4
        }
      ]
    },
    {
      "name": "Object_4",
      "primitives": [
        {
          "attributes": {
            "NORMAL": 17,
            "POSITION": 16,
            "TEXCOORD_0": 18
          },
          "indices": 19,
          "material": 0,
          "mode": 4
        }
      ]
    },
    {
      "name": "Object_5",
      "primitives": [
        {
          "attributes": {
            "NORMAL": 21,
            "POSITION": 20,
            "TEXCOORD_0": 22
          },
          "indices": 23,
          "material": 0,
          "mode": 4
        }
      ]
    },
    {
      "name": "Object_6",
      "primitives": [
        {
          "attributes": {
            "NORMAL": 25,
            "POSITION": 24,
            "TEXCOORD_0": 26
          },
          "indices": 27,
          "material": 0,
          "mode": 4
        }
      ]
    },
    {
      "name": "Object_7",
      "primitives": [
        {
          "attributes": {
            "NORMAL": 29,
            "POSITION": 28,
            "TEXCOORD_0": 30
          },
          "indices": 31,
          "material": 0,
          "mode": 4
        }
      ]
    }
  ],
  "nodes": [
    {
      "children": [
        1
      ],
      "matrix": [
        1.0,
        0.0,
        0.0,
        0.0,
        0.0,
        2.220446049250313e-16,
        -1.0,
        0.0,
        0.0,
        1.0,
        2.220446049250313e-16,
        0.0,
        0.0,
        0.0,
        0.0,
        1.0
      ],
      "name": "Sketchfab_model"
    },
    {
      "children": [
        2,
        3,
        4,
        5,
        6,
        7,
        8,
        9
      ],
      "name": "guillemot.obj.cleaner.materialmerger.gles"
    },
    {
      "mesh": 0,
      "name": "Object_2"
    },
    {
      "mesh": 1,
      "name": "Object_3"
    },
    {
      "mesh": 2,
      "name": "Object_4"
    },
    {
      "mesh": 3,
      "name": "Object_5"
    },
    {
      "mesh": 4,
      "name": "Object_6"
    },
    {
      "mesh": 5,
      "name": "Object_7"
    },
    {
      "mesh": 6,
      "name": "Object_8"
    },
    {
      "mesh": 7,
      "name": "Object_9"
    }
  ],
  "samplers": [
    {
      "magFilter": 9729,
      "minFilter": 9987,
      "wrapS": 10497,
      "wrapT": 10497
    }
  ],
  "scene": 0,
  "scenes": [
    {
      "name": "Sketchfab_Scene",
      "nodes": [
        0
      ]
    }
  ],
  "textures": [
    {
      "sampler": 0,
      "source": 0
    }
  ]
}
