{
  "accessors": [
    {
      "bufferView": 2,
      "componentType": 5126,
      "count": 28255,
      "max": [
        0.7396796941757202,
        1.2319073677062988,
        3.4743075370788574
      ],
      "min": [
        -0.739679753780365,
        -0.6970851421356201,
        -2.9588420391082764
      ],
      "type": "VEC3"
    },
    {
      "bufferView": 2,
      "byteOffset": 339060,
      "componentType": 5126,
      "count": 28255,
      "max": [
        0.9999699592590332,
        0.9999971389770508,
        0.9998621344566345
      ],
      "min": [
        -0.9999699592590332,
        -0.9999988675117493,
        -0.9999434351921082
      ],
      "type": "VEC3"
    },
    {
      "bufferView": 3,
      "componentType": 5126,
      "count": 28255,
      "max": [
        0.9999999403953552,
        0.999912440776825,
        0.999323308467865,
        1.0
      ],
      "min": [
        -0.9998993277549744,
        -0.9998730421066284,
        -0.9999995827674866,
        1.0
      ],
      "type": "VEC4"
    },
    {
      "bufferView": 1,
      "componentType": 5126,
      "count": 28255,
      "max": [
        0.9927204847335815,
        0.9946930408477783
      ],
      "min": [
        0.010082483291625977,
        0.00541234016418457
      ],
      "type": "VEC2"
    },
    {
      "bufferView": 0,
      "componentType": 5125,
      "count": 165336,
      "type": "SCALAR"
    }
  ],
  "asset": {
    "extras": {
      "author": "CARI'MAM (https://sketchfab.com/CARIMAM)",
      "license": "CC-BY-NC-SA-4.0 (http://creativecommons.org/licenses/by-nc-sa/4.0/)",
      "source": "https://sketchfab.com/3d-models/pantropical-spotted-dolphin-94bcd912320747f7806132d936e47ea8",
      "title": "Pantropical spotted dolphin"
    },
    "generator": "Sketchfab-12.67.0",
    "version": "2.0"
  },
  "bufferViews": [
    {
      "buffer": 0,
      "byteLength": 661344,
      "name": "floatBufferViews",
      "target": 34963
    },
    {
      "buffer": 0,
      "byteLength": 226040,
      "byteOffset": 661344,
      "byteStride": 8,
      "name": "floatBufferViews",
      "target": 34962
    },
    {
      "buffer": 0,
      "byteLength": 678120,
      "byteOffset": 887384,
      "byteStride": 12,
      "name": "floatBufferViews",
      "target": 34962
    },
    {
      "buffer": 0,
      "byteLength": 452080,
      "byteOffset": 1565504,
      "byteStride": 16,
      "name": "floatBufferViews",
      "target": 34962
    }
  ],
  "buffers": [
    {
      "byteLength": 2017584,
      "uri": "scene.bin"
    }
  ],
  "images": [
    {
      "uri": "textures/lambert1_baseColor.png"
    },
    {
      "uri": "textures/lambert1_metallicRoughness.png"
    },
    {
      "uri": "textures/lambert1_normal.png"
    }
  ],
  "materials": [
    {
      "doubleSided": true,
      "name": "lambert1",
      "normalTexture": {
        "index": 2,
        "scale": 0.7680294218211721
      },
      "pbrMetallicRoughness": {
        "baseColorFactor": [
          0.7931523672352924,
          0.7931523672352924,
          0.7931523672352924,
          1.0
        ],
        "baseColorTexture": {
          "index": 0
        },
        "metallicFactor": 0.837117521710003,
        "metallicRoughnessTexture": {
          "index": 1
        },
        "roughnessFactor": 0.0
      }
    }
  ],
  "meshes": [
    {
      "name": "polySurface1_lambert1_0",
      "primitives": [
        {
          "attributes": {
            "NORMAL": 1,
            "POSITION": 0,
            "TANGENT": 2,
            "TEXCOORD_0": 3
          },
          "indices": 4,
          "material": 0,
          "mode": 4
        }
      ]
    }
  ],
  "nodes": [
    {
      "children": [
        1
      ],
      "matrix": [
        35.33900833129883,
        0.0,
        0.0,
        0.0,
        0.0,
        7.846836143365638e-15,
        -35.33900833129883,
        0.0,
        0.0,
        35.33900833129883,
        7.846836143365638e-15,
        0.0,
        0.0,
        0.0,
        0.0,
        1.0
      ],
      "name": "Sketchfab_model"
    },
    {
      "children": [
        2
      ],
      "matrix": [
        0.009999999776482582,
        0.0,
        0.0,
        0.0,
        0.0,
        0.0,
        0.009999999776482582,
        0.0,
        0.0,
        -0.009999999776482582,
        0.0,
        0.0,
        0.0,
        0.0,
        0.0,
        1.0
      ],
      "name": "Stenella attenuata_LODa.fbx"
    },
    {
      "children": [
        3
      ],
      "name": "RootNode"
    },
    {
      "children": [
        4
      ],
      "name": "polySurface1"
    },
    {
      "mesh": 0,
      "name": "polySurface1_lambert1_0"
    }
  ],
  "samplers": [
    {
      "magFilter": 9729,
      "minFilter": 9987,
      "wrapS": 10497,
      "wrapT": 10497
    }
  ],
  "scene": 0,
  "scenes": [
    {
      "name": "Sketchfab_Scene",
      "nodes": [
        0
      ]
    }
  ],
  "textures": [
    {
      "sampler": 0,
      "source": 0
    },
    {
      "sampler": 0,
      "source": 1
    },
    {
      "sampler": 0,
      "source": 2
    }
  ]
}
