{
  "accessors": [
    {
      "bufferView": 3,
      "componentType": 5126,
      "count": 65532,
      "max": [
        0.1927356868982315,
        0.40435442328453064,
        0.6642913818359375
      ],
      "min": [
        -0.34675735235214233,
        -0.20752432942390442,
        -1.525024652481079
      ],
      "type": "VEC3"
    },
    {
      "bufferView": 3,
      "byteOffset": 786384,
      "componentType": 5126,
      "count": 65532,
      "max": [
        0.9974029064178467,
        0.9999567866325378,
        0.999977707862854
      ],
      "min": [
        -0.9999915957450867,
        -0.9999987483024597,
        -0.9999417066574097
      ],
      "type": "VEC3"
    },
    {
      "bufferView": 2,
      "componentType": 5126,
      "count": 65532,
      "max": [
        0.7836844325065613,
        0.9993440508842468
      ],
      "min": [
        0.010620388202369213,
        0.0013981345109641552
      ],
      "type": "VEC2"
    },
    {
      "bufferView": 1,
      "componentType": 5125,
      "count": 351636,
      "type": "SCALAR"
    },
    {
      "bufferView": 3,
      "byteOffset": 1572768,
      "componentType": 5126,
      "count": 57888,
      "max": [
        0.3467767536640167,
        0.40435442328453064,
        0.6642913818359375
      ],
      "min": [
        -0.12942223250865936,
        -0.2085052877664566,
        -1.5250167846679688
      ],
      "type": "VEC3"
    },
    {
      "bufferView": 3,
      "byteOffset": 2267424,
      "componentType": 5126,
      "count": 57888,
      "max": [
        0.9999932050704956,
        0.9999567866325378,
        0.999977707862854
      ],
      "min": [
        -0.963645875453949,
        -0.9999987483024597,
        -0.9999414682388306
      ],
      "type": "VEC3"
    },
    {
      "bufferView": 2,
      "byteOffset": 524256,
      "componentType": 5126,
      "count": 57888,
      "max": [
        0.7823671698570251,
        0.999847412109375
      ],
      "min": [
        0.08173196017742157,
        0.0008548384066671133
      ],
      "type": "VEC2"
    },
    {
      "bufferView": 1,
      "byteOffset": 1406544,
      "componentType": 5125,
      "count": 310188,
      "type": "SCALAR"
    },
    {
      "bufferView": 3,
      "byteOffset": 2962080,
      "componentType": 5126,
      "count": 260,
      "max": [
        0.12790478765964508,
        -0.005106216296553612,
        0.32275882363319397
      ],
      "min": [
        -0.12738248705863953,
        -0.03897211328148842,
        0.2891347110271454
      ],
      "type": "VEC3"
    },
    {
      "bufferView": 3,
      "byteOffset": 2965200,
      "componentType": 5126,
      "count": 260,
      "max": [
        0.9861477613449097,
        0.9920412302017212,
        0.9939144253730774
      ],
      "min": [
        -0.9861478805541992,
        -0.9920413494110107,
        -0.9939143657684326
      ],
      "type": "VEC3"
    },
    {
      "bufferView": 2,
      "byteOffset": 987360,
      "componentType": 5126,
      "count": 260,
      "max": [
        0.940265953540802,
        0.26274070143699646
      ],
      "min": [
        0.8555745482444763,
        0.05323757976293564
      ],
      "type": "VEC2"
    },
    {
      "bufferView": 1,
      "byteOffset": 2647296,
      "componentType": 5125,
      "count": 1344,
      "type": "SCALAR"
    },
    {
      "bufferView": 3,
      "byteOffset": 2968320,
      "componentType": 5126,
      "count": 5169,
      "max": [
        0.05938858166337013,
        -0.03943248465657234,
        0.6447315216064453
      ],
      "min": [
        -0.05883419141173363,
        -0.08271486312150955,
        0.4053962528705597
      ],
      "type": "VEC3"
    },
    {
      "bufferView": 3,
      "byteOffset": 3030348,
      "componentType": 5126,
      "count": 5169,
      "max": [
        0.9965560436248779,
        0.9981517791748047,
        0.9999234080314636
      ],
      "min": [
        -0.9966346025466919,
        -0.37541958689689636,
        -0.9984476566314697
      ],
      "type": "VEC3"
    },
    {
      "bufferView": 2,
      "byteOffset": 989440,
      "componentType": 5126,
      "count": 5169,
      "max": [
        0.963041365146637,
        0.77836674451828
      ],
      "min": [
        0.6940892338752747,
        0.5070616602897644
      ],
      "type": "VEC2"
    },
    {
      "bufferView": 1,
      "byteOffset": 2652672,
      "componentType": 5125,
      "count": 15120,
      "type": "SCALAR"
    },
    {
      "bufferView": 3,
      "byteOffset": 3092376,
      "componentType": 5126,
      "count": 5295,
      "max": [
        0.0652565136551857,
        -0.041838228702545166,
        0.6510623693466187
      ],
      "min": [
        -0.06563150137662888,
        -0.08325429260730743,
        0.40113770961761475
      ],
      "type": "VEC3"
    },
    {
      "bufferView": 3,
      "byteOffset": 3155916,
      "componentType": 5126,
      "count": 5295,
      "max": [
        0.9999202489852905,
        0.9974837303161621,
        0.9999376535415649
      ],
      "min": [
        -0.9989864826202393,
        -0.9570104479789734,
        -0.9993870854377747
      ],
      "type": "VEC3"
    },
    {
      "bufferView": 2,
      "byteOffset": 1030792,
      "componentType": 5126,
      "count": 5295,
      "max": [
        0.9654005765914917,
        0.7780277729034424
      ],
      "min": [
        0.6941876411437988,
        0.5070791244506836
      ],
      "type": "VEC2"
    },
    {
      "bufferView": 1,
      "byteOffset": 2713152,
      "componentType": 5125,
      "count": 15456,
      "type": "SCALAR"
    },
    {
      "bufferView": 5,
      "componentType": 5126,
      "count": 26,
      "max": [
        100.00001525878906,
        0.9288567900657654,
        0.4220699071884155,
        0.0,
        0.6776784658432007,
        100.00000762939453,
        0.9999501705169678,
        0.0,
        0.9632912278175354,
        0.9954678416252136,
        100.0,
        0.0,
        1.2597696781158447,
        0.01872424967586994,
        0.19719038903713226,
        1.0
      ],
      "min": [
        -0.451322078704834,
        -0.938245952129364,
        -0.03875935450196266,
        0.0,
        -0.4634551703929901,
        -0.40549907088279724,
        -0.9954601526260376,
        0.0,
        -0.9300410151481628,
        -0.9999500513076782,
        -0.5204067826271057,
        0.0,
        -1.2698673009872437,
        -1.2244211435317993,
        -0.33742719888687134,
        1.0
      ],
      "type": "MAT4"
    },
    {
      "bufferView": 0,
      "componentType": 5123,
      "count": 65532,
      "type": "VEC4"
    },
    {
      "bufferView": 4,
      "componentType": 5126,
      "count": 65532,
      "max": [
        1.0,
        0.49994102120399475,
        0.32923537492752075,
        0.13375867903232574
      ],
      "min": [
        0.33474472165107727,
        0.0,
        0.0,
        0.0
      ],
      "type": "VEC4"
    },
    {
      "bufferView": 0,
      "byteOffset": 524256,
      "componentType": 5123,
      "count": 57888,
      "type": "VEC4"
    },
    {
      "bufferView": 4,
      "byteOffset": 1048512,
      "componentType": 5126,
      "count": 57888,
      "max": [
        1.0,
        0.4999217391014099,
        0.32923537492752075,
        0.143142968416214
      ],
      "min": [
        0.33162474632263184,
        0.0,
        0.0,
        0.0
      ],
      "type": "VEC4"
    },
    {
      "bufferView": 0,
      "byteOffset": 987360,
      "componentType": 5123,
      "count": 260,
      "type": "VEC4"
    },
    {
      "bufferView": 4,
      "byteOffset": 1974720,
      "componentType": 5126,
      "count": 260,
      "max": [
        1.0,
        0.0,
        0.0,
        0.0
      ],
      "min": [
        1.0,
        0.0,
        0.0,
        0.0
      ],
      "type": "VEC4"
    },
    {
      "bufferView": 0,
      "byteOffset": 989440,
      "componentType": 5123,
      "count": 5169,
      "type": "VEC4"
    },
    {
      "bufferView": 4,
      "byteOffset": 1978880,
      "componentType": 5126,
      "count": 5169,
      "max": [
        1.0,
        0.0,
        0.0,
        0.0
      ],
      "min": [
        1.0,
        0.0,
        0.0,
        0.0
      ],
      "type": "VEC4"
    },
    {
      "bufferView": 0,
      "byteOffset": 1030792,
      "componentType": 5123,
      "count": 5295,
      "type": "VEC4"
    },
    {
      "bufferView": 4,
      "byteOffset": 2061584,
      "componentType": 5126,
      "count": 5295,
      "max": [
        1.0,
        0.0,
        0.0,
        0.0
      ],
      "min": [
        1.0,
        0.0,
        0.0,
        0.0
      ],
      "type": "VEC4"
    },
    {
      "bufferView": 6,
      "componentType": 5126,
      "count": 38,
      "max": [
        1.25
      ],
      "min": [
        0.0
      ],
      "type": "SCALAR"
    },
    {
      "bufferView": 8,
      "componentType": 5126,
      "count": 38,
      "max": [
        0.3825772702693939,
        1.1014027023747985e-07,
        4.5606768139805354e-08,
        0.9239234924316406
      ],
      "min": [
        0.3825772702693939,
        1.1014027023747985e-07,
        4.5606768139805354e-08,
        0.9239234924316406
      ],
      "type": "VEC4"
    },
    {
      "bufferView": 6,
      "byteOffset": 152,
      "componentType": 5126,
      "count": 51,
      "max": [
        1.25
      ],
      "min": [
        0.0
      ],
      "type": "SCALAR"
    },
    {
      "bufferView": 8,
      "byteOffset": 608,
      "componentType": 5126,
      "count": 51,
      "max": [
        -0.10164406895637512,
        1.5446727275048033e-06,
        -5.285010047373362e-07,
        0.9948208332061768
      ],
      "min": [
        -0.10490421205759048,
        1.5429321820192854e-06,
        -5.335610353540687e-07,
        0.9944823384284973
      ],
      "type": "VEC4"
    },
    {
      "bufferView": 6,
      "byteOffset": 356,
      "componentType": 5126,
      "count": 58,
      "max": [
        1.25
      ],
      "min": [
        0.0
      ],
      "type": "SCALAR"
    },
    {
      "bufferView": 8,
      "byteOffset": 1424,
      "componentType": 5126,
      "count": 58,
      "max": [
        0.0823575109243393,
        -3.549800737800979e-07,
        3.247865834055119e-07,
        0.997211754322052
      ],
      "min": [
        0.07462405413389206,
        -3.574888864932291e-07,
        3.220231121758843e-07,
        0.9966028332710266
      ],
      "type": "VEC4"
    },
    {
      "bufferView": 6,
      "byteOffset": 588,
      "componentType": 5126,
      "count": 60,
      "max": [
        1.25
      ],
      "min": [
        0.0
      ],
      "type": "SCALAR"
    },
    {
      "bufferView": 8,
      "byteOffset": 2352,
      "componentType": 5126,
      "count": 60,
      "max": [
        0.09027918428182602,
        -0.3069402277469635,
        0.29284316301345825,
        0.9089843034744263
      ],
      "min": [
        0.08348774909973145,
        -0.32107195258140564,
        0.26726439595222473,
        0.8968027830123901
      ],
      "type": "VEC4"
    },
    {
      "bufferView": 6,
      "byteOffset": 828,
      "componentType": 5126,
      "count": 60,
      "max": [
        1.25
      ],
      "min": [
        0.0
      ],
      "type": "SCALAR"
    },
    {
      "bufferView": 8,
      "byteOffset": 3312,
      "componentType": 5126,
      "count": 60,
      "max": [
        0.7753176093101501,
        0.6088085174560547,
        0.1361989825963974,
        0.2043272852897644
      ],
      "min": [
        0.7594327926635742,
        0.5870174765586853,
        0.11247798800468445,
        0.1845647692680359
      ],
      "type": "VEC4"
    },
    {
      "bufferView": 6,
      "byteOffset": 1068,
      "componentType": 5126,
      "count": 59,
      "max": [
        1.25
      ],
      "min": [
        0.0
      ],
      "type": "SCALAR"
    },
    {
      "bufferView": 8,
      "byteOffset": 4272,
      "componentType": 5126,
      "count": 59,
      "max": [
        -0.14640164375305176,
        0.9736000299453735,
        -0.1546022891998291,
        0.0823645368218422
      ],
      "min": [
        -0.16097082197666168,
        0.9697755575180054,
        -0.16426241397857666,
        0.07949527353048325
      ],
      "type": "VEC4"
    },
    {
      "bufferView": 6,
      "byteOffset": 1304,
      "componentType": 5126,
      "count": 57,
      "max": [
        1.25
      ],
      "min": [
        0.0
      ],
      "type": "SCALAR"
    },
    {
      "bufferView": 8,
      "byteOffset": 5216,
      "componentType": 5126,
      "count": 57,
      "max": [
        -0.23932138085365295,
        0.43714556097984314,
        0.7421466708183289,
        0.4656156897544861
      ],
      "min": [
        -0.24023732542991638,
        0.4283795952796936,
        0.7362425327301025,
        0.44865813851356506
      ],
      "type": "VEC4"
    },
    {
      "bufferView": 6,
      "byteOffset": 1532,
      "componentType": 5126,
      "count": 40,
      "max": [
        1.25
      ],
      "min": [
        0.0
      ],
      "type": "SCALAR"
    },
    {
      "bufferView": 8,
      "byteOffset": 6128,
      "componentType": 5126,
      "count": 40,
      "max": [
        0.9983347654342651,
        -1.2537825000435987e-07,
        2.2615572561335284e-06,
        -0.057686250656843185
      ],
      "min": [
        0.9979026317596436,
        -1.413419710161179e-07,
        2.260615701743518e-06,
        -0.06473316997289658
      ],
      "type": "VEC4"
    },
    {
      "bufferView": 6,
      "byteOffset": 1692,
      "componentType": 5126,
      "count": 60,
      "max": [
        1.25
      ],
      "min": [
        0.0
      ],
      "type": "SCALAR"
    },
    {
      "bufferView": 8,
      "byteOffset": 6768,
      "componentType": 5126,
      "count": 60,
      "max": [
        0.0709695965051651,
        -0.020926520228385925,
        0.2266569435596466,
        0.9903632402420044
      ],
      "min": [
        -0.05886216461658478,
        -0.10810022056102753,
        0.1319957971572876,
        0.97237229347229
      ],
      "type": "VEC4"
    },
    {
      "bufferView": 6,
      "byteOffset": 1932,
      "componentType": 5126,
      "count": 60,
      "max": [
        1.25
      ],
      "min": [
        0.0
      ],
      "type": "SCALAR"
    },
    {
      "bufferView": 7,
      "componentType": 5126,
      "count": 60,
      "max": [
        0.03854387253522873,
        0.111350879073143,
        -0.009399637579917908
      ],
      "min": [
        0.03854387253522873,
        0.111350879073143,
        -0.010052921250462532
      ],
      "type": "VEC3"
    },
    {
      "bufferView": 6,
      "byteOffset": 2172,
      "componentType": 5126,
      "count": 60,
      "max": [
        1.25
      ],
      "min": [
        0.0
      ],
      "type": "SCALAR"
    },
    {
      "bufferView": 8,
      "byteOffset": 7728,
      "componentType": 5126,
      "count": 60,
      "max": [
        0.16566799581050873,
        0.19192086160182953,
        -0.5363640785217285,
        0.8261889219284058
      ],
      "min": [
        0.011962695978581905,
        0.08300843089818954,
        -0.5722108483314514,
        0.8020146489143372
      ],
      "type": "VEC4"
    },
    {
      "bufferView": 6,
      "byteOffset": 2412,
      "componentType": 5126,
      "count": 60,
      "max": [
        1.25
      ],
      "min": [
        0.0
      ],
      "type": "SCALAR"
    },
    {
      "bufferView": 8,
      "byteOffset": 8688,
      "componentType": 5126,
      "count": 60,
      "max": [
        0.07227469980716705,
        0.1692981719970703,
        -0.12772111594676971,
        0.9806360006332397
      ],
      "min": [
        -0.008206292986869812,
        -0.0393841415643692,
        -0.2420320063829422,
        0.9693586826324463
      ],
      "type": "VEC4"
    },
    {
      "bufferView": 6,
      "byteOffset": 2652,
      "componentType": 5126,
      "count": 60,
      "max": [
        1.25
      ],
      "min": [
        0.0
      ],
      "type": "SCALAR"
    },
    {
      "bufferView": 7,
      "byteOffset": 720,
      "componentType": 5126,
      "count": 60,
      "max": [
        -0.04012895002961159,
        0.1130809336900711,
        -0.008368058130145073
      ],
      "min": [
        -0.04012895002961159,
        0.11283322423696518,
        -0.010080456733703613
      ],
      "type": "VEC3"
    },
    {
      "bufferView": 6,
      "byteOffset": 2892,
      "componentType": 5126,
      "count": 60,
      "max": [
        1.25
      ],
      "min": [
        0.0
      ],
      "type": "SCALAR"
    },
    {
      "bufferView": 8,
      "byteOffset": 9648,
      "componentType": 5126,
      "count": 60,
      "max": [
        0.16382762789726257,
        -0.01805233210325241,
        0.596596896648407,
        0.8059455156326294
      ],
      "min": [
        -0.004237696528434753,
        -0.2457323968410492,
        0.5519389510154724,
        0.7921321392059326
      ],
      "type": "VEC4"
    },
    {
      "bufferView": 6,
      "byteOffset": 3132,
      "componentType": 5126,
      "count": 60,
      "max": [
        1.25
      ],
      "min": [
        0.0
      ],
      "type": "SCALAR"
    },
    {
      "bufferView": 8,
      "byteOffset": 10608,
      "componentType": 5126,
      "count": 60,
      "max": [
        0.0784335732460022,
        1.1920931797249068e-07,
        5.248212975317301e-10,
        0.9999998211860657
      ],
      "min": [
        -0.004402486607432365,
        1.1884208817036779e-07,
        -9.350010543585086e-09,
        0.9969193339347839
      ],
      "type": "VEC4"
    },
    {
      "bufferView": 6,
      "byteOffset": 3372,
      "componentType": 5126,
      "count": 60,
      "max": [
        1.25
      ],
      "min": [
        0.0
      ],
      "type": "SCALAR"
    },
    {
      "bufferView": 8,
      "byteOffset": 11568,
      "componentType": 5126,
      "count": 60,
      "max": [
        -0.024591991677880287,
        -1.199193206957716e-07,
        -1.017836304129105e-08,
        0.9996975660324097
      ],
      "min": [
        -0.08226501941680908,
        -1.2070825050614076e-07,
        -1.7130055596226157e-08,
        0.9966104626655579
      ],
      "type": "VEC4"
    },
    {
      "bufferView": 6,
      "byteOffset": 3612,
      "componentType": 5126,
      "count": 13,
      "max": [
        1.25
      ],
      "min": [
        0.0
      ],
      "type": "SCALAR"
    },
    {
      "bufferView": 7,
      "byteOffset": 1440,
      "componentType": 5126,
      "count": 13,
      "max": [
        -1.0716957703216234e-11,
        0.24720506370067596,
        1.8622381414701294e-09
      ],
      "min": [
        -1.0716957703216234e-11,
        0.24720506370067596,
        1.8622379194255245e-09
      ],
      "type": "VEC3"
    },
    {
      "bufferView": 6,
      "byteOffset": 3664,
      "componentType": 5126,
      "count": 60,
      "max": [
        1.25
      ],
      "min": [
        0.0
      ],
      "type": "SCALAR"
    },
    {
      "bufferView": 8,
      "byteOffset": 12528,
      "componentType": 5126,
      "count": 60,
      "max": [
        0.014573230408132076,
        7.222082429162759e-15,
        1.2718866741469282e-15,
        1.0
      ],
      "min": [
        -0.10685481876134872,
        7.120367324724673e-15,
        3.985522950891978e-16,
        0.9942746162414551
      ],
      "type": "VEC4"
    },
    {
      "bufferView": 6,
      "byteOffset": 3904,
      "componentType": 5126,
      "count": 60,
      "max": [
        1.25
      ],
      "min": [
        0.0
      ],
      "type": "SCALAR"
    },
    {
      "bufferView": 8,
      "byteOffset": 13488,
      "componentType": 5126,
      "count": 60,
      "max": [
        -0.03766195848584175,
        1.191247349652258e-07,
        1.2513948988157608e-08,
        0.9992905259132385
      ],
      "min": [
        -0.10497458279132843,
        1.1855066617272314e-07,
        4.489658422812681e-09,
        0.9944748878479004
      ],
      "type": "VEC4"
    },
    {
      "bufferView": 6,
      "byteOffset": 4144,
      "componentType": 5126,
      "count": 60,
      "max": [
        1.25
      ],
      "min": [
        0.0
      ],
      "type": "SCALAR"
    },
    {
      "bufferView": 8,
      "byteOffset": 14448,
      "componentType": 5126,
      "count": 60,
      "max": [
        -0.003746587550267577,
        -1.1883113160138237e-07,
        1.0891309187854858e-08,
        0.9999929666519165
      ],
      "min": [
        -0.0318269282579422,
        -1.1909011732313957e-07,
        7.549996183797703e-09,
        0.999493420124054
      ],
      "type": "VEC4"
    },
    {
      "bufferView": 6,
      "byteOffset": 4384,
      "componentType": 5126,
      "count": 38,
      "max": [
        1.25
      ],
      "min": [
        0.0
      ],
      "type": "SCALAR"
    },
    {
      "bufferView": 8,
      "byteOffset": 15408,
      "componentType": 5126,
      "count": 38,
      "max": [
        -0.015157344751060009,
        5.653906700604932e-27,
        1.2244056739407934e-29,
        0.9998851418495178
      ],
      "min": [
        -0.015157344751060009,
        5.653906700604932e-27,
        1.2244056739407934e-29,
        0.9998851418495178
      ],
      "type": "VEC4"
    },
    {
      "bufferView": 6,
      "byteOffset": 4536,
      "componentType": 5126,
      "count": 60,
      "max": [
        1.25
      ],
      "min": [
        0.0
      ],
      "type": "SCALAR"
    },
    {
      "bufferView": 8,
      "byteOffset": 16016,
      "componentType": 5126,
      "count": 60,
      "max": [
        0.03382293879985809,
        -3.230880370875751e-27,
        4.3627820196305624e-29,
        0.9998584985733032
      ],
      "min": [
        0.016821086406707764,
        -3.231175038157242e-27,
        -1.1325071430737337e-29,
        0.999427855014801
      ],
      "type": "VEC4"
    }
  ],
  "animations": [
    {
      "channels": [
        {
          "sampler": 0,
          "target": {
            "node": 12,
            "path": "rotation"
          }
        },
        {
          "sampler": 1,
          "target": {
            "node": 16,
            "path": "rotation"
          }
        },
        {
          "sampler": 2,
          "target": {
            "node": 15,
            "path": "rotation"
          }
        },
        {
          "sampler": 3,
          "target": {
            "node": 19,
            "path": "rotation"
          }
        },
        {
          "sampler": 4,
          "target": {
            "node": 18,
            "path": "rotation"
          }
        },
        {
          "sampler": 5,
          "target": {
            "node": 22,
            "path": "rotation"
          }
        },
        {
          "sampler": 6,
          "target": {
            "node": 21,
            "path": "rotation"
          }
        },
        {
          "sampler": 7,
          "target": {
            "node": 14,
            "path": "rotation"
          }
        },
        {
          "sampler": 8,
          "target": {
            "node": 31,
            "path": "rotation"
          }
        },
        {
          "sampler": 9,
          "target": {
            "node": 30,
            "path": "translation"
          }
        },
        {
          "sampler": 10,
          "target": {
            "node": 30,
            "path": "rotation"
          }
        },
        {
          "sampler": 11,
          "target": {
            "node": 34,
            "path": "rotation"
          }
        },
        {
          "sampler": 12,
          "target": {
            "node": 33,
            "path": "translation"
          }
        },
        {
          "sampler": 13,
          "target": {
            "node": 33,
            "path": "rotation"
          }
        },
        {
          "sampler": 14,
          "target": {
            "node": 29,
            "path": "rotation"
          }
        },
        {
          "sampler": 15,
          "target": {
            "node": 28,
            "path": "rotation"
          }
        },
        {
          "sampler": 16,
          "target": {
            "node": 27,
            "path": "translation"
          }
        },
        {
          "sampler": 17,
          "target": {
            "node": 27,
            "path": "rotation"
          }
        },
        {
          "sampler": 18,
          "target": {
            "node": 26,
            "path": "rotation"
          }
        },
        {
          "sampler": 19,
          "target": {
            "node": 25,
            "path": "rotation"
          }
        },
        {
          "sampler": 20,
          "target": {
            "node": 24,
            "path": "rotation"
          }
        },
        {
          "sampler": 21,
          "target": {
            "node": 11,
            "path": "rotation"
          }
        }
      ],
      "name": "Swim Cycle",
      "samplers": [
        {
          "input": 31,
          "interpolation": "LINEAR",
          "output": 32
        },
        {
          "input": 33,
          "interpolation": "LINEAR",
          "output": 34
        },
        {
          "input": 35,
          "interpolation": "LINEAR",
          "output": 36
        },
        {
          "input": 37,
          "interpolation": "LINEAR",
          "output": 38
        },
        {
          "input": 39,
          "interpolation": "LINEAR",
          "output": 40
        },
        {
          "input": 41,
          "interpolation": "LINEAR",
          "output": 42
        },
        {
          "input": 43,
          "interpolation": "LINEAR",
          "output": 44
        },
        {
          "input": 45,
          "interpolation": "LINEAR",
          "output": 46
        },
        {
          "input": 47,
          "interpolation": "LINEAR",
          "output": 48
        },
        {
          "input": 49,
          "interpolation": "LINEAR",
          "output": 50
        },
        {
          "input": 51,
          "interpolation": "LINEAR",
          "output": 52
        },
        {
          "input": 53,
          "interpolation": "LINEAR",
          "output": 54
        },
        {
          "input": 55,
          "interpolation": "LINEAR",
          "output": 56
        },
        {
          "input": 57,
          "interpolation": "LINEAR",
          "output": 58
        },
        {
          "input": 59,
          "interpolation": "LINEAR",
          "output": 60
        },
        {
          "input": 61,
          "interpolation": "LINEAR",
          "output": 62
        },
        {
          "input": 63,
          "interpolation": "LINEAR",
          "output": 64
        },
        {
          "input": 65,
          "interpolation": "LINEAR",
          "output": 66
        },
        {
          "input": 67,
          "interpolation": "LINEAR",
          "output": 68
        },
        {
          "input": 69,
          "interpolation": "LINEAR",
          "output": 70
        },
        {
          "input": 71,
          "interpolation": "LINEAR",
          "output": 72
        },
        {
          "input": 73,
          "interpolation": "LINEAR",
          "output": 74
        }
      ]
    }
  ],
  "asset": {
    "extras": {
      "author": "DigitalLife3D (https://sketchfab.com/DigitalLife3D)",
      "license": "CC-BY-NC-4.0 (http://creativecommons.org/licenses/by-nc/4.0/)",
      "source": "https://sketchfab.com/3d-models/model-101a-adult-common-dolphin-806e869737644122a57da96340fa167e",
      "title": "Model 101A - Adult Common Dolphin"
    },
    "generator": "Sketchfab-16.67.0",
    "version": "2.0"
  },
  "bufferViews": [
    {
      "buffer": 0,
      "byteLength": 1073152,
      "byteStride": 8,
      "name": "shortBufferViews",
      "target": 34962
    },
    {
      "buffer": 0,
      "byteLength": 2774976,
      "byteOffset": 1073152,
      "name": "floatBufferViews",
      "target": 34963
    },
    {
      "buffer": 0,
      "byteLength": 1073152,
      "byteOffset": 3848128,
      "byteStride": 8,
      "name": "floatBufferViews",
      "target": 34962
    },
    {
      "buffer": 0,
      "byteLength": 3219456,
      "byteOffset": 4921280,
      "byteStride": 12,
      "name": "floatBufferViews",
      "target": 34962
    },
    {
      "buffer": 0,
      "byteLength": 2146304,
      "byteOffset": 8140736,
      "byteStride": 16,
      "name": "floatBufferViews",
      "target": 34962
    },
    {
      "buffer": 0,
      "byteLength": 1664,
      "byteOffset": 10287040,
      "name": "floatBufferViews"
    },
    {
      "buffer": 0,
      "byteLength": 4776,
      "byteOffset": 10288704,
      "name": "floatBufferViews"
    },
    {
      "buffer": 0,
      "byteLength": 1596,
      "byteOffset": 10293480,
      "byteStride": 12,
      "name": "floatBufferViews"
    },
    {
      "buffer": 0,
      "byteLength": 16976,
      "byteOffset": 10295076,
      "byteStride": 16,
      "name": "floatBufferViews"
    }
  ],
  "buffers": [
    {
      "byteLength": 10312052,
      "uri": "scene.bin"
    }
  ],
  "extensionsUsed": [
    "KHR_materials_clearcoat",
    "KHR_materials_specular"
  ],
  "images": [
    {
      "uri": "textures/common-dolphin_baseColor.png"
    },
    {
      "uri": "textures/common-dolphin_metallicRoughness.png"
    }
  ],
  "materials": [
    {
      "doubleSided": true,
      "extensions": {
        "KHR_materials_clearcoat": {
          "clearcoatFactor": 0.05789358601850377,
          "clearcoatRoughnessFactor": 0.2557209758024646
        },
        "KHR_materials_specular": {
          "specularColorFactor": [
            1.0,
            1.0,
            1.0
          ],
          "specularFactor": 0.5000959867120633
        }
      },
      "name": "common-dolphin",
      "pbrMetallicRoughness": {
        "baseColorTexture": {
          "index": 0
        },
        "metallicFactor": 0.0,
        "metallicRoughnessTexture": {
          "index": 1
        },
        "roughnessFactor": 0.8666585030764614
      }
    }
  ],
  "meshes": [
    {
      "name": "common-dolphin_body_common-dolphin_0",
      "primitives": [
        {
          "attributes": {
            "JOINTS_0": 21,
            "NORMAL": 1,
            "POSITION": 0,
            "TEXCOORD_0": 2,
            "WEIGHTS_0": 22
          },
          "indices": 3,
          "material": 0,
          "mode": 4
        }
      ]
    },
    {
      "name": "common-dolphin_body_common-dolphin_0",
      "primitives": [
        {
          "attributes": {
            "JOINTS_0": 23,
            "NORMAL": 5,
            "POSITION": 4,
            "TEXCOORD_0": 6,
            "WEIGHTS_0": 24
          },
          "indices": 7,
          "material": 0,
          "mode": 4
        }
      ]
    },
    {
      "name": "common-dolphin_eyes_common-dolphin_0",
      "primitives": [
        {
          "attributes": {
            "JOINTS_0": 25,
            "NORMAL": 9,
            "POSITION": 8,
            "TEXCOORD_0": 10,
            "WEIGHTS_0": 26
          },
          "indices": 11,
          "material": 0,
          "mode": 4
        }
      ]
    },
    {
      "name": "common-dolphin_jaw_lower_common-dolphin_0",
      "primitives": [
        {
          "attributes": {
            "JOINTS_0": 27,
            "NORMAL": 13,
            "POSITION": 12,
            "TEXCOORD_0": 14,
            "WEIGHTS_0": 28
          },
          "indices": 15,
          "material": 0,
          "mode": 4
        }
      ]
    },
    {
      "name": "common-dolphin_jaw_upper_common-dolphin_0",
      "primitives": [
        {
          "attributes": {
            "JOINTS_0": 29,
            "NORMAL": 17,
            "POSITION": 16,
            "TEXCOORD_0": 18,
            "WEIGHTS_0": 30
          },
          "indices": 19,
          "material": 0,
          "mode": 4
        }
      ]
    }
  ],
  "nodes": [
    {
      "children": [
        1
      ],
      "matrix": [
        1.0,
        0.0,
        0.0,
        0.0,
        0.0,
        2.220446049250313e-16,
        -1.0,
        0.0,
        0.0,
        1.0,
        2.220446049250313e-16,
        0.0,
        0.0,
        0.0,
        0.0,
        1.0
      ],
      "name": "Sketchfab_model"
    },
    {
      "children": [
        2
      ],
      "matrix": [
        0.009999999776482582,
        0.0,
        0.0,
        0.0,
        0.0,
        0.0,
        0.009999999776482582,
        0.0,
        0.0,
        -0.009999999776482582,
        0.0,
        0.0,
        0.0,
        0.0,
        0.0,
        1.0
      ],
      "name": "2331ae3b099043d28e5f534ef2828c34.fbx"
    },
    {
      "children": [
        3
      ],
      "name": "Object_2"
    },
    {
      "children": [
        4,
        5,
        42,
        43,
        44
      ],
      "name": "RootNode"
    },
    {
      "name": "common-dolphin_body",
      "rotation": [
        -0.710049569606781,
        0.0004976305644959211,
        -0.0005075153894722462,
        0.7041513323783875
      ],
      "scale": [
        100.00000762939453,
        100.0,
        99.99999237060547
      ],
      "translation": [
        0.03576328605413437,
        3.3717379570007324,
        -40.32377624511719
      ]
    },
    {
      "children": [
        6
      ],
      "name": "common-dolphin_armature",
      "rotation": [
        -0.7071068286895752,
        0.0,
        0.0,
        0.7071067094802856
      ],
      "scale": [
        100.0,
        100.0,
        100.0
      ],
      "translation": [
        0.0,
        0.1306772232055664,
        0.0
      ]
    },
    {
      "children": [
        7,
        9,
        10,
        37,
        39,
        41,
        8,
        36,
        38,
        40
      ],
      "name": "Object_6"
    },
    {
      "children": [
        11
      ],
      "name": "_rootJoint"
    },
    {
      "matrix": [
        99.99991059303284,
        -0.14214200006808617,
        0.0019907518566541493,
        0.0,
        0.000805039464530114,
        -0.8341264581858814,
        -99.99652989785372,
        0.0,
        0.1421536474585139,
        99.99642255478341,
        -0.8341244183451839,
        0.0,
        0.03576328477356583,
        3.3717372760000472,
        -40.32378069255542,
        1.0
      ],
      "name": "Object_8"
    },
    {
      "mesh": 0,
      "name": "Object_9",
      "skin": 0
    },
    {
      "mesh": 1,
      "name": "Object_10",
      "skin": 0
    },
    {
      "children": [
        12,
        14,
        24
      ],
      "name": "MAIN_00",
      "rotation": [
        0.029465164989233017,
        -3.2310408008401183e-27,
        2.9540924600232227e-29,
        0.9995658993721008
      ],
      "translation": [
        0.0002390574081800878,
        -0.09262529760599136,
        0.16032230854034424
      ]
    },
    {
      "children": [
        13
      ],
      "name": "dorsal_01",
      "rotation": [
        0.3825772702693939,
        1.1014027023747985e-07,
        4.5606761034377996e-08,
        0.9239236116409302
      ],
      "scale": [
        1.0,
        0.9999999403953552,
        0.9999998807907104
      ],
      "translation": [
        0.0,
        0.5293986797332764,
        0.07799777388572693
      ]
    },
    {
      "name": "dorsal_end_019",
      "rotation": [
        0.0,
        -0.0,
        -6.617444900424222e-24,
        1.0
      ],
      "translation": [
        2.710505431213761e-20,
        0.20207132399082184,
        0.0
      ]
    },
    {
      "children": [
        15,
        18,
        21
      ],
      "name": "spine.001_02",
      "rotation": [
        0.9978837370872498,
        -1.2471967636429326e-07,
        2.261593408547924e-06,
        -0.06502372026443481
      ],
      "scale": [
        1.0,
        0.9999999403953552,
        1.0000075101852417
      ],
      "translation": [
        0.0,
        0.09809395670890808,
        -0.07993431389331818
      ]
    },
    {
      "children": [
        16
      ],
      "name": "head_01_03",
      "rotation": [
        0.08164213597774506,
        -3.5521270547178574e-07,
        3.245315554067929e-07,
        0.9966617226600647
      ],
      "scale": [
        1.0091289281845093,
        1.0091288089752197,
        1.0091288089752197
      ],
      "translation": [
        7.119638212316204e-12,
        0.3115616738796234,
        6.670881180781407e-09
      ]
    },
    {
      "children": [
        17
      ],
      "name": "jaw_04",
      "rotation": [
        -0.1026037260890007,
        1.612487494639936e-06,
        1.5522310548021778e-07,
        0.994722306728363
      ],
      "scale": [
        1.0,
        0.9999999403953552,
        1.0
      ],
      "translation": [
        -3.474162610928033e-07,
        0.04700654372572899,
        0.09106803685426712
      ]
    },
    {
      "name": "jaw_end_020",
      "rotation": [
        -1.6815581571897805e-43,
        7.940933880509066e-22,
        2.117582368135751e-22,
        1.0
      ],
      "translation": [
        0.0,
        0.32146987318992615,
        1.3877787807814457e-17
      ]
    },
    {
      "children": [
        19
      ],
      "name": "scapula.L_05",
      "rotation": [
        0.7681777477264404,
        0.5967705249786377,
        0.1254296451807022,
        0.19502633810043335
      ],
      "scale": [
        0.9999996423721313,
        0.9999997019767761,
        0.9999998211860657
      ],
      "translation": [
        0.11667105555534363,
        0.15646016597747803,
        0.1559441238641739
      ]
    },
    {
      "children": [
        20
      ],
      "name": "flipper.L_06",
      "rotation": [
        0.08730081468820572,
        -0.31299954652786255,
        0.27813905477523804,
        0.9039073586463928
      ],
      "scale": [
        1.0,
        0.9999998807907104,
        0.9999998807907104
      ],
      "translation": [
        -9.313225746154785e-09,
        0.10159505158662796,
        -4.423782229423523e-09
      ]
    },
    {
      "name": "flipper.L_end_021",
      "rotation": [
        -2.7755575615628914e-17,
        -4.163336342344337e-17,
        2.7755575615628914e-17,
        1.0
      ],
      "translation": [
        5.551115123125783e-17,
        0.21069084107875824,
        -2.7755575615628914e-17
      ]
    },
    {
      "children": [
        22
      ],
      "name": "scapula.R_07",
      "rotation": [
        -0.23988869786262512,
        0.4335310459136963,
        0.7401329278945923,
        0.45465096831321716
      ],
      "scale": [
        0.9999997019767761,
        0.9999999403953552,
        0.9999997615814209
      ],
      "translation": [
        -0.09014731645584106,
        0.15614286065101624,
        0.15635623037815094
      ]
    },
    {
      "children": [
        23
      ],
      "name": "flipper.R_08",
      "rotation": [
        -0.15503060817718506,
        0.9714664816856384,
        -0.1605069637298584,
        0.0803489089012146
      ],
      "scale": [
        1.0,
        0.9999998211860657,
        1.0
      ],
      "translation": [
        2.7755575615628914e-17,
        0.10756887495517731,
        -3.259629011154175e-09
      ]
    },
    {
      "name": "flipper.R_end_022",
      "rotation": [
        5.551115123125783e-17,
        -2.7755575615628914e-17,
        -2.7755575615628914e-17,
        1.0
      ],
      "translation": [
        -2.7755575615628914e-17,
        0.2158559113740921,
        0.0
      ]
    },
    {
      "children": [
        25
      ],
      "name": "spine.002_09",
      "rotation": [
        -0.01515734288841486,
        5.653906700604932e-27,
        1.2244064262571779e-29,
        0.9998851418495178
      ],
      "scale": [
        1.0,
        1.0,
        0.9999998807907104
      ],
      "translation": [
        0.0,
        0.09809398651123047,
        -0.07993430644273758
      ]
    },
    {
      "children": [
        26
      ],
      "name": "spine.003_010",
      "rotation": [
        -0.006532617378979921,
        -1.1904727159617323e-07,
        1.0566174601933653e-08,
        0.9999786615371704
      ],
      "translation": [
        0.0,
        0.3600459098815918,
        0.0
      ]
    },
    {
      "children": [
        27
      ],
      "name": "spine.004_011",
      "rotation": [
        -0.044325634837150574,
        1.1909216368621856e-07,
        5.284028770091709e-09,
        0.9990172386169434
      ],
      "translation": [
        -1.4917844737283303e-11,
        0.3026915490627289,
        -9.88271242619021e-10
      ]
    },
    {
      "children": [
        28
      ],
      "name": "spine.005_012",
      "rotation": [
        0.013870981521904469,
        7.15468825271447e-15,
        2.785583519982626e-16,
        0.9999037981033325
      ],
      "scale": [
        1.0,
        0.9999999403953552,
        0.9999999403953552
      ],
      "translation": [
        -1.2393561871215653e-11,
        0.24720510840415955,
        -1.490153067607025e-08
      ]
    },
    {
      "children": [
        29
      ],
      "name": "spine.006_013",
      "rotation": [
        -0.04502173885703087,
        -1.1983367187440308e-07,
        -1.2604412624739325e-08,
        0.998986005783081
      ],
      "scale": [
        1.0,
        0.9999999403953552,
        0.9999998807907104
      ],
      "translation": [
        -1.7894630222059504e-11,
        0.1842987984418869,
        3.725050934377805e-09
      ]
    },
    {
      "children": [
        30,
        33
      ],
      "name": "spine.007_014",
      "rotation": [
        0.07022916525602341,
        1.1891504669847563e-07,
        -8.3719706722718e-09,
        0.997530996799469
      ],
      "scale": [
        1.0,
        1.0000001192092896,
        1.0
      ],
      "translation": [
        -7.278622149442526e-12,
        0.17872773110866547,
        -3.7829113175291695e-09
      ]
    },
    {
      "children": [
        31
      ],
      "name": "fluke.L_015",
      "rotation": [
        0.025772424414753914,
        0.14364534616470337,
        -0.5618475079536438,
        0.81426602602005
      ],
      "scale": [
        0.9999999403953552,
        0.9999999403953552,
        0.9999998211860657
      ],
      "translation": [
        0.03855017572641373,
        0.11149243265390396,
        -0.010000934824347496
      ]
    },
    {
      "children": [
        32
      ],
      "name": "fluke.L.001_016",
      "rotation": [
        -0.05662708729505539,
        -0.021723879501223564,
        0.22276128828525543,
        0.9729844927787781
      ],
      "scale": [
        0.9999999403953552,
        0.9999999403953552,
        0.9999998807907104
      ],
      "translation": [
        2.9802322387695313e-08,
        0.15456390380859375,
        -1.862645149230957e-09
      ]
    },
    {
      "name": "fluke.L.001_end_023",
      "rotation": [
        2.7755575615628914e-17,
        -3.469446951953614e-17,
        8.326672684688674e-17,
        1.0
      ],
      "translation": [
        2.220446049250313e-16,
        0.12407791614532471,
        4.163336342344337e-17
      ]
    },
    {
      "children": [
        34
      ],
      "name": "fluke.R_017",
      "rotation": [
        0.001166288391686976,
        -0.18844254314899445,
        0.565990149974823,
        0.8025853633880615
      ],
      "scale": [
        1.0,
        1.0,
        1.0000001192092896
      ],
      "translation": [
        -0.04009907692670822,
        0.11283322423696518,
        -0.008740694262087345
      ]
    },
    {
      "children": [
        35
      ],
      "name": "fluke.R.001_018",
      "rotation": [
        -0.0030844619031995535,
        -0.009937885217368603,
        -0.2289372682571411,
        0.9733855724334717
      ],
      "scale": [
        1.0,
        0.9999999403953552,
        0.9999998807907104
      ],
      "translation": [
        -9.313225746154785e-09,
        0.1346723884344101,
        -2.2351741790771484e-08
      ]
    },
    {
      "name": "fluke.R.001_end_024",
      "rotation": [
        4.163336342344337e-17,
        0.0,
        0.0,
        1.0
      ],
      "translation": [
        1.1102230246251565e-16,
        0.14727173745632172,
        -5.551115123125783e-17
      ]
    },
    {
      "matrix": [
        99.99991059303284,
        -0.14214200006808617,
        0.0019907518566541493,
        0.0,
        0.000805039464530114,
        -0.8341264581858814,
        -99.99652989785372,
        0.0,
        0.1421536474585139,
        99.99642255478341,
        -0.8341244183451839,
        0.0,
        11.059345858171582,
        -2.35798944709326,
        33.925126368686584,
        1.0
      ],
      "name": "Object_36"
    },
    {
      "mesh": 2,
      "name": "Object_37",
      "skin": 0
    },
    {
      "matrix": [
        100.00001192092896,
        1.7671157333878452e-15,
        -7.042813011091199e-17,
        0.0,
        1.1740354350527654e-17,
        -4.645561703277052,
        -99.89204015777494,
        0.0,
        -1.768479529451724e-15,
        99.89204015777494,
        -4.645561703277052,
        0.0,
        1.4381018411368132,
        -11.46520737134881,
        62.12163806952911,
        1.0
      ],
      "name": "Object_38"
    },
    {
      "mesh": 3,
      "name": "Object_39",
      "skin": 0
    },
    {
      "matrix": [
        100.00001192092896,
        -1.1544285975827176e-14,
        -3.2369216483778514e-15,
        0.0,
        2.5405618632125383e-15,
        46.78790473789715,
        -88.37925874427542,
        0.0,
        1.171724079323485e-14,
        88.37925874427542,
        46.78790473789715,
        0.0,
        1.4381018411368132,
        -10.763583433819207,
        62.141535625299156,
        1.0
      ],
      "name": "Object_40"
    },
    {
      "mesh": 4,
      "name": "Object_41",
      "skin": 0
    },
    {
      "name": "common-dolphin_eyes",
      "rotation": [
        -0.710049569606781,
        0.0004976305644959211,
        -0.0005075153894722462,
        0.7041513323783875
      ],
      "scale": [
        100.00000762939453,
        100.0,
        99.99999237060547
      ],
      "translation": [
        11.059345245361328,
        -2.3579888343811035,
        33.92512512207031
      ]
    },
    {
      "name": "common-dolphin_jaw_lower",
      "rotation": [
        -0.7233448624610901,
        -6.1480219707519096e-18,
        6.355570271837896e-18,
        0.6904869079589844
      ],
      "scale": [
        100.0,
        100.0,
        100.0
      ],
      "translation": [
        1.4381017684936523,
        -11.465206146240234,
        62.12163543701172
      ]
    },
    {
      "name": "common-dolphin_jaw_upper",
      "rotation": [
        -0.5158106088638306,
        4.363873377840263e-17,
        -4.11019098060454e-17,
        0.8567026257514954
      ],
      "scale": [
        100.0,
        100.0,
        100.0
      ],
      "translation": [
        1.4381017684936523,
        -10.763582229614258,
        62.14153289794922
      ]
    }
  ],
  "samplers": [
    {
      "magFilter": 9729,
      "minFilter": 9987,
      "wrapS": 10497,
      "wrapT": 10497
    }
  ],
  "scene": 0,
  "scenes": [
    {
      "name": "Sketchfab_Scene",
      "nodes": [
        0
      ]
    }
  ],
  "skins": [
    {
      "inverseBindMatrices": 20,
      "joints": [
        7,
        11,
        12,
        13,
        14,
        15,
        16,
        17,
        18,
        19,
        20,
        21,
        22,
        23,
        24,
        25,
        26,
        27,
        28,
        29,
        30,
        31,
        32,
        33,
        34,
        35
      ],
      "skeleton": 7
    }
  ],
  "textures": [
    {
      "sampler": 0,
      "source": 0
    },
    {
      "sampler": 0,
      "source": 1
    }
  ]
}
