{
  "accessors": [
    {
      "bufferView": 2,
      "componentType": 5126,
      "count": 65533,
      "max": [
        2.9594531059265137,
        1.8232899904251099,
        8.618148803710938
      ],
      "min": [
        -1.5603870153427124,
        -2.1349709033966064,
        -0.6088449954986572
      ],
      "type": "VEC3"
    },
    {
      "bufferView": 2,
      "byteOffset": 786396,
      "componentType": 5126,
      "count": 65533,
      "max": [
        0.9998288750648499,
        0.9999890327453613,
        1.0
      ],
      "min": [
        -0.999988317489624,
        -0.999998927116394,
        -1.0
      ],
      "type": "VEC3"
    },
    {
      "bufferView": 1,
      "componentType": 5126,
      "count": 65533,
      "max": [
        0.9947559833526611,
        0.9330360293388367
      ],
      "min": [
        0.0007440000190399587,
        0.0007450000266544521
      ],
      "type": "VEC2"
    },
    {
      "bufferView": 0,
      "componentType": 5125,
      "count": 65562,
      "type": "SCALAR"
    },
    {
      "bufferView": 2,
      "byteOffset": 1572792,
      "componentType": 5126,
      "count": 65532,
      "max": [
        2.6024789810180664,
        1.8232899904251099,
        8.648483276367188
      ],
      "min": [
        -1.488548994064331,
        -2.120112895965576,
        -0.3503760099411011
      ],
      "type": "VEC3"
    },
    {
      "bufferView": 2,
      "byteOffset": 2359176,
      "componentType": 5126,
      "count": 65532,
      "max": [
        0.9999650716781616,
        0.9999566078186035,
        1.0
      ],
      "min": [
        -0.9999655485153198,
        -0.9999117851257324,
        -1.0
      ],
      "type": "VEC3"
    },
    {
      "bufferView": 1,
      "byteOffset": 524264,
      "componentType": 5126,
      "count": 65532,
      "max": [
        0.996999979019165,
        0.9389879703521729
      ],
      "min": [
        0.019345000386238098,
        0.0007529999711550772
      ],
      "type": "VEC2"
    },
    {
      "bufferView": 0,
      "byteOffset": 262248,
      "componentType": 5125,
      "count": 65568,
      "type": "SCALAR"
    },
    {
      "bufferView": 2,
      "byteOffset": 3145560,
      "componentType": 5126,
      "count": 65532,
      "max": [
        2.692517042160034,
        1.7918360233306885,
        8.7655029296875
      ],
      "min": [
        -1.4997609853744507,
        -2.6781630516052246,
        -0.5660319924354553
      ],
      "type": "VEC3"
    },
    {
      "bufferView": 2,
      "byteOffset": 3931944,
      "componentType": 5126,
      "count": 65532,
      "max": [
        0.9999637603759766,
        0.9998923540115356,
        1.0
      ],
      "min": [
        -0.9997212290763855,
        -0.9998815059661865,
        -1.0
      ],
      "type": "VEC3"
    },
    {
      "bufferView": 1,
      "byteOffset": 1048520,
      "componentType": 5126,
      "count": 65532,
      "max": [
        0.9983900189399719,
        0.9992560148239136
      ],
      "min": [
        0.009673000313341618,
        0.0007539999787695706
      ],
      "type": "VEC2"
    },
    {
      "bufferView": 0,
      "byteOffset": 524520,
      "componentType": 5125,
      "count": 65544,
      "type": "SCALAR"
    },
    {
      "bufferView": 2,
      "byteOffset": 4718328,
      "componentType": 5126,
      "count": 65534,
      "max": [
        2.681615114212036,
        1.802211046218872,
        8.814888000488281
      ],
      "min": [
        -1.66041100025177,
        -1.7897579669952393,
        -0.5351830124855042
      ],
      "type": "VEC3"
    },
    {
      "bufferView": 2,
      "byteOffset": 5504736,
      "componentType": 5126,
      "count": 65534,
      "max": [
        0.9986099004745483,
        0.9998781681060791,
        1.0
      ],
      "min": [
        -0.9999997615814209,
        -0.9999865293502808,
        -1.0
      ],
      "type": "VEC3"
    },
    {
      "bufferView": 1,
      "byteOffset": 1572776,
      "componentType": 5126,
      "count": 65534,
      "max": [
        0.8714209794998169,
        0.7589290142059326
      ],
      "min": [
        0.003719999920576811,
        0.000754999986384064
      ],
      "type": "VEC2"
    },
    {
      "bufferView": 0,
      "byteOffset": 786696,
      "componentType": 5125,
      "count": 65568,
      "type": "SCALAR"
    },
    {
      "bufferView": 2,
      "byteOffset": 6291144,
      "componentType": 5126,
      "count": 65532,
      "max": [
        1.7551300525665283,
        1.822301983833313,
        5.215983867645264
      ],
      "min": [
        -1.66041100025177,
        -0.5715559720993042,
        -0.12778900563716888
      ],
      "type": "VEC3"
    },
    {
      "bufferView": 2,
      "byteOffset": 7077528,
      "componentType": 5126,
      "count": 65532,
      "max": [
        0.9964255094528198,
        0.9999933242797852,
        0.9994644522666931
      ],
      "min": [
        -0.9999850988388062,
        -0.99920654296875,
        -1.0
      ],
      "type": "VEC3"
    },
    {
      "bufferView": 1,
      "byteOffset": 2097048,
      "componentType": 5126,
      "count": 65532,
      "max": [
        0.9266840219497681,
        0.6956850290298462
      ],
      "min": [
        0.07589299976825714,
        0.06670299917459488
      ],
      "type": "VEC2"
    },
    {
      "bufferView": 0,
      "byteOffset": 1048968,
      "componentType": 5125,
      "count": 65550,
      "type": "SCALAR"
    },
    {
      "bufferView": 2,
      "byteOffset": 7863912,
      "componentType": 5126,
      "count": 65532,
      "max": [
        1.562628984451294,
        1.6516560316085815,
        4.920989990234375
      ],
      "min": [
        -1.7820379734039307,
        -1.6970189809799194,
        -0.8176990151405334
      ],
      "type": "VEC3"
    },
    {
      "bufferView": 2,
      "byteOffset": 8650296,
      "componentType": 5126,
      "count": 65532,
      "max": [
        0.9970237612724304,
        0.9999504089355469,
        0.9998020529747009
      ],
      "min": [
        -0.999849259853363,
        -0.9954023957252502,
        -1.0
      ],
      "type": "VEC3"
    },
    {
      "bufferView": 1,
      "byteOffset": 2621304,
      "componentType": 5126,
      "count": 65532,
      "max": [
        0.913191020488739,
        0.8072919845581055
      ],
      "min": [
        0.07514899969100952,
        0.2045239955186844
      ],
      "type": "VEC2"
    },
    {
      "bufferView": 0,
      "byteOffset": 1311168,
      "componentType": 5125,
      "count": 65736,
      "type": "SCALAR"
    },
    {
      "bufferView": 2,
      "byteOffset": 9436680,
      "componentType": 5126,
      "count": 65534,
      "max": [
        2.1588408946990967,
        1.541795015335083,
        4.975430011749268
      ],
      "min": [
        -1.2553999423980713,
        -1.5847790241241455,
        0.7650070190429688
      ],
      "type": "VEC3"
    },
    {
      "bufferView": 2,
      "byteOffset": 10223088,
      "componentType": 5126,
      "count": 65534,
      "max": [
        0.9995202422142029,
        0.9999537467956543,
        1.0
      ],
      "min": [
        -0.9999619722366333,
        -0.9999513626098633,
        -1.0
      ],
      "type": "VEC3"
    },
    {
      "bufferView": 1,
      "byteOffset": 3145560,
      "componentType": 5126,
      "count": 65534,
      "max": [
        0.9261190295219421,
        0.796750009059906
      ],
      "min": [
        0.3077389895915985,
        0.3016909956932068
      ],
      "type": "VEC2"
    },
    {
      "bufferView": 0,
      "byteOffset": 1574112,
      "componentType": 5125,
      "count": 65556,
      "type": "SCALAR"
    },
    {
      "bufferView": 2,
      "byteOffset": 11009496,
      "componentType": 5126,
      "count": 65533,
      "max": [
        2.1903250217437744,
        1.0444949865341187,
        5.202988147735596
      ],
      "min": [
        -1.43094003200531,
        -1.7387789487838745,
        0.6826630234718323
      ],
      "type": "VEC3"
    },
    {
      "bufferView": 2,
      "byteOffset": 11795892,
      "componentType": 5126,
      "count": 65533,
      "max": [
        0.9998966455459595,
        0.9999768733978271,
        1.0
      ],
      "min": [
        -0.9999054670333862,
        -0.9991294741630554,
        -0.9998223185539246
      ],
      "type": "VEC3"
    },
    {
      "bufferView": 1,
      "byteOffset": 3669832,
      "componentType": 5126,
      "count": 65533,
      "max": [
        0.6445140242576599,
        0.7775300145149231
      ],
      "min": [
        0.29092299938201904,
        0.2721779942512512
      ],
      "type": "VEC2"
    },
    {
      "bufferView": 0,
      "byteOffset": 1836336,
      "componentType": 5125,
      "count": 65541,
      "type": "SCALAR"
    },
    {
      "bufferView": 2,
      "byteOffset": 12582288,
      "componentType": 5126,
      "count": 65534,
      "max": [
        1.7807519435882568,
        1.8235069513320923,
        5.302666187286377
      ],
      "min": [
        -1.9348609447479248,
        -1.64934504032135,
        -0.8220139741897583
      ],
      "type": "VEC3"
    },
    {
      "bufferView": 2,
      "byteOffset": 13368696,
      "componentType": 5126,
      "count": 65534,
      "max": [
        0.9998990297317505,
        0.997485876083374,
        1.0
      ],
      "min": [
        -0.9997895359992981,
        -0.9999707937240601,
        -1.0
      ],
      "type": "VEC3"
    },
    {
      "bufferView": 1,
      "byteOffset": 4194096,
      "componentType": 5126,
      "count": 65534,
      "max": [
        0.6372359991073608,
        0.8214290142059326
      ],
      "min": [
        0.05580399930477142,
        0.38044801354408264
      ],
      "type": "VEC2"
    },
    {
      "bufferView": 0,
      "byteOffset": 2098500,
      "componentType": 5125,
      "count": 69105,
      "type": "SCALAR"
    },
    {
      "bufferView": 2,
      "byteOffset": 14155104,
      "componentType": 5126,
      "count": 65532,
      "max": [
        2.7909231185913086,
        1.83132803440094,
        5.458686828613281
      ],
      "min": [
        -1.9266999959945679,
        -0.6883500218391418,
        -0.8220139741897583
      ],
      "type": "VEC3"
    },
    {
      "bufferView": 2,
      "byteOffset": 14941488,
      "componentType": 5126,
      "count": 65532,
      "max": [
        0.9999719858169556,
        0.9973191618919373,
        1.0
      ],
      "min": [
        -0.9999740123748779,
        -0.9966655373573303,
        -1.0
      ],
      "type": "VEC3"
    },
    {
      "bufferView": 1,
      "byteOffset": 4718368,
      "componentType": 5126,
      "count": 65532,
      "max": [
        0.8342289924621582,
        0.9488289952278137
      ],
      "min": [
        0.05580399930477142,
        0.43020200729370117
      ],
      "type": "VEC2"
    },
    {
      "bufferView": 0,
      "byteOffset": 2374920,
      "componentType": 5125,
      "count": 67674,
      "type": "SCALAR"
    },
    {
      "bufferView": 2,
      "byteOffset": 15727872,
      "componentType": 5126,
      "count": 65533,
      "max": [
        0.7521730065345764,
        1.7804139852523804,
        8.972816467285156
      ],
      "min": [
        -0.5370910167694092,
        -2.2654809951782227,
        -0.8220139741897583
      ],
      "type": "VEC3"
    },
    {
      "bufferView": 2,
      "byteOffset": 16514268,
      "componentType": 5126,
      "count": 65533,
      "max": [
        0.9999998807907104,
        0.9999027252197266,
        1.0
      ],
      "min": [
        -0.933896541595459,
        -0.9970057010650635,
        -1.0
      ],
      "type": "VEC3"
    },
    {
      "bufferView": 1,
      "byteOffset": 5242624,
      "componentType": 5126,
      "count": 65533,
      "max": [
        0.5625690221786499,
        0.9940509796142578
      ],
      "min": [
        0.23484399914741516,
        0.7241269946098328
      ],
      "type": "VEC2"
    },
    {
      "bufferView": 0,
      "byteOffset": 2645616,
      "componentType": 5125,
      "count": 65613,
      "type": "SCALAR"
    },
    {
      "bufferView": 2,
      "byteOffset": 17300664,
      "componentType": 5126,
      "count": 65534,
      "max": [
        1.5296399593353271,
        1.8993489742279053,
        8.975940704345703
      ],
      "min": [
        -1.712151050567627,
        -3.2072970867156982,
        -0.8374519944190979
      ],
      "type": "VEC3"
    },
    {
      "bufferView": 2,
      "byteOffset": 18087072,
      "componentType": 5126,
      "count": 65534,
      "max": [
        0.999984622001648,
        0.998151421546936,
        1.0
      ],
      "min": [
        -0.8078895211219788,
        -0.9972482919692993,
        -1.0
      ],
      "type": "VEC3"
    },
    {
      "bufferView": 1,
      "byteOffset": 5766888,
      "componentType": 5126,
      "count": 65534,
      "max": [
        0.6788589954376221,
        0.9992560148239136
      ],
      "min": [
        0.0007440000190399587,
        0.781682014465332
      ],
      "type": "VEC2"
    },
    {
      "bufferView": 0,
      "byteOffset": 2908068,
      "componentType": 5125,
      "count": 66714,
      "type": "SCALAR"
    },
    {
      "bufferView": 2,
      "byteOffset": 18873480,
      "componentType": 5126,
      "count": 65533,
      "max": [
        1.5218130350112915,
        1.790397047996521,
        8.975940704345703
      ],
      "min": [
        -1.9563850164413452,
        -2.3824329376220703,
        -0.8212239742279053
      ],
      "type": "VEC3"
    },
    {
      "bufferView": 2,
      "byteOffset": 19659876,
      "componentType": 5126,
      "count": 65533,
      "max": [
        0.9999860525131226,
        0.9994668364524841,
        1.0
      ],
      "min": [
        -0.9999982118606567,
        -0.9999204874038696,
        -1.0
      ],
      "type": "VEC3"
    },
    {
      "bufferView": 1,
      "byteOffset": 6291160,
      "componentType": 5126,
      "count": 65533,
      "max": [
        0.8133329749107361,
        0.9992560148239136
      ],
      "min": [
        0.221342995762825,
        0.7458159923553467
      ],
      "type": "VEC2"
    },
    {
      "bufferView": 0,
      "byteOffset": 3174924,
      "componentType": 5125,
      "count": 65925,
      "type": "SCALAR"
    },
    {
      "bufferView": 2,
      "byteOffset": 20446272,
      "componentType": 5126,
      "count": 65532,
      "max": [
        0.4819659888744354,
        2.0021109580993652,
        5.9700927734375
      ],
      "min": [
        -1.9563850164413452,
        -1.732772946357727,
        -0.8286899924278259
      ],
      "type": "VEC3"
    },
    {
      "bufferView": 2,
      "byteOffset": 21232656,
      "componentType": 5126,
      "count": 65532,
      "max": [
        0.9999253749847412,
        0.9999719858169556,
        1.0
      ],
      "min": [
        -0.9999808073043823,
        -0.9999854564666748,
        -1.0
      ],
      "type": "VEC3"
    },
    {
      "bufferView": 1,
      "byteOffset": 6815424,
      "componentType": 5126,
      "count": 65532,
      "max": [
        0.9318940043449402,
        0.9992560148239136
      ],
      "min": [
        0.0014880000380799174,
        0.706246018409729
      ],
      "type": "VEC2"
    },
    {
      "bufferView": 0,
      "byteOffset": 3438624,
      "componentType": 5125,
      "count": 67263,
      "type": "SCALAR"
    },
    {
      "bufferView": 2,
      "byteOffset": 22019040,
      "componentType": 5126,
      "count": 65533,
      "max": [
        0.8939909934997559,
        1.9598029851913452,
        0.9513660073280334
      ],
      "min": [
        -1.2878819704055786,
        -1.3229639530181885,
        -0.8220139741897583
      ],
      "type": "VEC3"
    },
    {
      "bufferView": 2,
      "byteOffset": 22805436,
      "componentType": 5126,
      "count": 65533,
      "max": [
        0.9999966621398926,
        0.9999792575836182,
        1.0
      ],
      "min": [
        -0.9876068830490112,
        -0.999863862991333,
        -1.0
      ],
      "type": "VEC3"
    },
    {
      "bufferView": 1,
      "byteOffset": 7339680,
      "componentType": 5126,
      "count": 65533,
      "max": [
        0.18867799639701843,
        0.8238040208816528
      ],
      "min": [
        0.03645800054073334,
        0.586292028427124
      ],
      "type": "VEC2"
    },
    {
      "bufferView": 0,
      "byteOffset": 3707676,
      "componentType": 5125,
      "count": 65541,
      "type": "SCALAR"
    },
    {
      "bufferView": 2,
      "byteOffset": 23591832,
      "componentType": 5126,
      "count": 65532,
      "max": [
        2.801553964614868,
        1.6513420343399048,
        8.735355377197266
      ],
      "min": [
        -1.2057199478149414,
        -1.79135000705719,
        -0.717208981513977
      ],
      "type": "VEC3"
    },
    {
      "bufferView": 2,
      "byteOffset": 24378216,
      "componentType": 5126,
      "count": 65532,
      "max": [
        0.999955415725708,
        0.9847614765167236,
        1.0
      ],
      "min": [
        -0.9999819993972778,
        -0.9999980926513672,
        -0.9999661445617676
      ],
      "type": "VEC3"
    },
    {
      "bufferView": 1,
      "byteOffset": 7863944,
      "componentType": 5126,
      "count": 65532,
      "max": [
        0.9877920150756836,
        0.9735829830169678
      ],
      "min": [
        0.04582799971103668,
        0.06310299783945084
      ],
      "type": "VEC2"
    },
    {
      "bufferView": 0,
      "byteOffset": 3969840,
      "componentType": 5125,
      "count": 65544,
      "type": "SCALAR"
    },
    {
      "bufferView": 2,
      "byteOffset": 25164600,
      "componentType": 5126,
      "count": 65534,
      "max": [
        1.670954942703247,
        1.4271149635314941,
        8.966373443603516
      ],
      "min": [
        -1.3203569650650024,
        -1.596187949180603,
        0.6523249745368958
      ],
      "type": "VEC3"
    },
    {
      "bufferView": 2,
      "byteOffset": 25951008,
      "componentType": 5126,
      "count": 65534,
      "max": [
        0.9980167746543884,
        0.9999998807907104,
        0.9997732043266296
      ],
      "min": [
        -0.9999465942382813,
        -0.9999606609344482,
        -1.0
      ],
      "type": "VEC3"
    },
    {
      "bufferView": 1,
      "byteOffset": 8388200,
      "componentType": 5126,
      "count": 65534,
      "max": [
        0.9922810196876526,
        0.9992560148239136
      ],
      "min": [
        0.1875,
        0.2738890051841736
      ],
      "type": "VEC2"
    },
    {
      "bufferView": 0,
      "byteOffset": 4232016,
      "componentType": 5125,
      "count": 65562,
      "type": "SCALAR"
    },
    {
      "bufferView": 2,
      "byteOffset": 26737416,
      "componentType": 5126,
      "count": 65532,
      "max": [
        3.0139009952545166,
        1.935107946395874,
        7.903046131134033
      ],
      "min": [
        -1.1897209882736206,
        -1.6922659873962402,
        -0.7692149877548218
      ],
      "type": "VEC3"
    },
    {
      "bufferView": 2,
      "byteOffset": 27523800,
      "componentType": 5126,
      "count": 65532,
      "max": [
        0.9990310668945313,
        0.9999885559082031,
        1.0
      ],
      "min": [
        -0.9999982118606567,
        -0.9999768733978271,
        -1.0
      ],
      "type": "VEC3"
    },
    {
      "bufferView": 1,
      "byteOffset": 8912472,
      "componentType": 5126,
      "count": 65532,
      "max": [
        0.9184619784355164,
        0.5061889886856079
      ],
      "min": [
        0.0855650007724762,
        0.006446999963372946
      ],
      "type": "VEC2"
    },
    {
      "bufferView": 0,
      "byteOffset": 4494264,
      "componentType": 5125,
      "count": 65544,
      "type": "SCALAR"
    },
    {
      "bufferView": 2,
      "byteOffset": 28310184,
      "componentType": 5126,
      "count": 65533,
      "max": [
        2.2356560230255127,
        1.822301983833313,
        8.123634338378906
      ],
      "min": [
        -1.1277010440826416,
        -2.0938050746917725,
        -0.09745000302791595
      ],
      "type": "VEC3"
    },
    {
      "bufferView": 2,
      "byteOffset": 29096580,
      "componentType": 5126,
      "count": 65533,
      "max": [
        0.9999759197235107,
        0.9999964237213135,
        1.0
      ],
      "min": [
        -0.999792754650116,
        -0.9998391270637512,
        -1.0
      ],
      "type": "VEC3"
    },
    {
      "bufferView": 1,
      "byteOffset": 9436728,
      "componentType": 5126,
      "count": 65533,
      "max": [
        0.9775670170783997,
        0.7358629703521729
      ],
      "min": [
        0.3311010003089905,
        0.0012000000569969416
      ],
      "type": "VEC2"
    },
    {
      "bufferView": 0,
      "byteOffset": 4756440,
      "componentType": 5125,
      "count": 65553,
      "type": "SCALAR"
    },
    {
      "bufferView": 2,
      "byteOffset": 29882976,
      "componentType": 5126,
      "count": 65532,
      "max": [
        2.6564390659332275,
        1.8236260414123535,
        8.937461853027344
      ],
      "min": [
        -1.771936058998108,
        -3.061328887939453,
        -0.5640869736671448
      ],
      "type": "VEC3"
    },
    {
      "bufferView": 2,
      "byteOffset": 30669360,
      "componentType": 5126,
      "count": 65532,
      "max": [
        0.9999622106552124,
        0.9999415874481201,
        1.0
      ],
      "min": [
        -0.9997113347053528,
        -0.9999854564666748,
        -1.0
      ],
      "type": "VEC3"
    },
    {
      "bufferView": 1,
      "byteOffset": 9960992,
      "componentType": 5126,
      "count": 65532,
      "max": [
        0.8371170163154602,
        0.9285709857940674
      ],
      "min": [
        0.3325890004634857,
        0.014318999834358692
      ],
      "type": "VEC2"
    },
    {
      "bufferView": 0,
      "byteOffset": 5018652,
      "componentType": 5125,
      "count": 65550,
      "type": "SCALAR"
    },
    {
      "bufferView": 2,
      "byteOffset": 31455744,
      "componentType": 5126,
      "count": 65534,
      "max": [
        2.611046075820923,
        1.827623963356018,
        6.208466053009033
      ],
      "min": [
        -1.428205966949463,
        -0.9326800107955933,
        -0.9148290157318115
      ],
      "type": "VEC3"
    },
    {
      "bufferView": 2,
      "byteOffset": 32242152,
      "componentType": 5126,
      "count": 65534,
      "max": [
        0.9999294281005859,
        0.9999620914459229,
        1.0
      ],
      "min": [
        -0.999895453453064,
        -0.9996605515480042,
        -1.0
      ],
      "type": "VEC3"
    },
    {
      "bufferView": 1,
      "byteOffset": 10485248,
      "componentType": 5126,
      "count": 65534,
      "max": [
        0.9179450273513794,
        0.5282739996910095
      ],
      "min": [
        0.24925599992275238,
        0.0012989999959245324
      ],
      "type": "VEC2"
    },
    {
      "bufferView": 0,
      "byteOffset": 5280852,
      "componentType": 5125,
      "count": 65550,
      "type": "SCALAR"
    },
    {
      "bufferView": 2,
      "byteOffset": 33028560,
      "componentType": 5126,
      "count": 65532,
      "max": [
        2.289491891860962,
        1.8032740354537964,
        8.852179527282715
      ],
      "min": [
        -1.2792819738388062,
        -3.001616954803467,
        0.37061700224876404
      ],
      "type": "VEC3"
    },
    {
      "bufferView": 2,
      "byteOffset": 33814944,
      "componentType": 5126,
      "count": 65532,
      "max": [
        0.9972429275512695,
        0.9999996423721313,
        1.0
      ],
      "min": [
        -0.9999815225601196,
        -0.9987776875495911,
        -1.0
      ],
      "type": "VEC3"
    },
    {
      "bufferView": 1,
      "byteOffset": 11009520,
      "componentType": 5126,
      "count": 65532,
      "max": [
        0.9180099964141846,
        0.6688989996910095
      ],
      "min": [
        0.01860100030899048,
        0.0031320000998675823
      ],
      "type": "VEC2"
    },
    {
      "bufferView": 0,
      "byteOffset": 5543052,
      "componentType": 5125,
      "count": 65544,
      "type": "SCALAR"
    },
    {
      "bufferView": 2,
      "byteOffset": 34601328,
      "componentType": 5126,
      "count": 65532,
      "max": [
        2.959475040435791,
        1.8999730348587036,
        8.739498138427734
      ],
      "min": [
        -1.4715460538864136,
        -2.0010809898376465,
        -0.9079020023345947
      ],
      "type": "VEC3"
    },
    {
      "bufferView": 2,
      "byteOffset": 35387712,
      "componentType": 5126,
      "count": 65532,
      "max": [
        0.9999837875366211,
        0.999984622001648,
        1.0
      ],
      "min": [
        -0.9999692440032959,
        -0.999919056892395,
        -1.0
      ],
      "type": "VEC3"
    },
    {
      "bufferView": 1,
      "byteOffset": 11533776,
      "componentType": 5126,
      "count": 65532,
      "max": [
        0.7514169812202454,
        0.6636899709701538
      ],
      "min": [
        0.026785999536514282,
        0.014636999927461147
      ],
      "type": "VEC2"
    },
    {
      "bufferView": 0,
      "byteOffset": 5805228,
      "componentType": 5125,
      "count": 65559,
      "type": "SCALAR"
    },
    {
      "bufferView": 2,
      "byteOffset": 36174096,
      "componentType": 5126,
      "count": 65533,
      "max": [
        2.867785930633545,
        1.9381400346755981,
        8.397113800048828
      ],
      "min": [
        -1.5793800354003906,
        -2.021373987197876,
        -0.8905680179595947
      ],
      "type": "VEC3"
    },
    {
      "bufferView": 2,
      "byteOffset": 36960492,
      "componentType": 5126,
      "count": 65533,
      "max": [
        0.9997792840003967,
        0.99977046251297,
        1.0
      ],
      "min": [
        -0.9998840093612671,
        -0.9999412298202515,
        -1.0
      ],
      "type": "VEC3"
    },
    {
      "bufferView": 1,
      "byteOffset": 12058032,
      "componentType": 5126,
      "count": 65533,
      "max": [
        0.6962140202522278,
        0.603422999382019
      ],
      "min": [
        0.1875,
        0.013712000101804733
      ],
      "type": "VEC2"
    },
    {
      "bufferView": 0,
      "byteOffset": 6067464,
      "componentType": 5125,
      "count": 65547,
      "type": "SCALAR"
    },
    {
      "bufferView": 2,
      "byteOffset": 37746888,
      "componentType": 5126,
      "count": 65534,
      "max": [
        2.9526500701904297,
        1.7463109493255615,
        8.280097961425781
      ],
      "min": [
        -1.5653259754180908,
        -3.144639015197754,
        -0.8038859963417053
      ],
      "type": "VEC3"
    },
    {
      "bufferView": 2,
      "byteOffset": 38533296,
      "componentType": 5126,
      "count": 65534,
      "max": [
        0.9997116923332214,
        0.9999145269393921,
        1.0
      ],
      "min": [
        -0.9999905824661255,
        -0.9997983574867249,
        -1.0
      ],
      "type": "VEC3"
    },
    {
      "bufferView": 1,
      "byteOffset": 12582296,
      "componentType": 5126,
      "count": 65534,
      "max": [
        0.9776769876480103,
        0.7671129703521729
      ],
      "min": [
        0.19196400046348572,
        0.0008030000026337802
      ],
      "type": "VEC2"
    },
    {
      "bufferView": 0,
      "byteOffset": 6329652,
      "componentType": 5125,
      "count": 65550,
      "type": "SCALAR"
    },
    {
      "bufferView": 2,
      "byteOffset": 39319704,
      "componentType": 5126,
      "count": 65534,
      "max": [
        2.7965409755706787,
        1.8067799806594849,
        8.423118591308594
      ],
      "min": [
        -1.4164270162582397,
        -3.2142539024353027,
        -0.5368189811706543
      ],
      "type": "VEC3"
    },
    {
      "bufferView": 2,
      "byteOffset": 40106112,
      "componentType": 5126,
      "count": 65534,
      "max": [
        0.9999299049377441,
        0.9997726082801819,
        1.0
      ],
      "min": [
        -0.9999359846115112,
        -0.999961256980896,
        -1.0
      ],
      "type": "VEC3"
    },
    {
      "bufferView": 1,
      "byteOffset": 13106568,
      "componentType": 5126,
      "count": 65534,
      "max": [
        0.977616012096405,
        0.8385419845581055
      ],
      "min": [
        0.0014880000380799174,
        0.0007539999787695706
      ],
      "type": "VEC2"
    },
    {
      "bufferView": 0,
      "byteOffset": 6591852,
      "componentType": 5125,
      "count": 65544,
      "type": "SCALAR"
    },
    {
      "bufferView": 2,
      "byteOffset": 40892520,
      "componentType": 5126,
      "count": 65532,
      "max": [
        2.4320199489593506,
        1.7548389434814453,
        8.782840728759766
      ],
      "min": [
        -1.36518394947052,
        -1.7216860055923462,
        0.07590500265359879
      ],
      "type": "VEC3"
    },
    {
      "bufferView": 2,
      "byteOffset": 41678904,
      "componentType": 5126,
      "count": 65532,
      "max": [
        0.9999713897705078,
        0.9999711513519287,
        1.0
      ],
      "min": [
        -0.9997256398200989,
        -0.999993085861206,
        -1.0
      ],
      "type": "VEC3"
    },
    {
      "bufferView": 1,
      "byteOffset": 13630840,
      "componentType": 5126,
      "count": 65532,
      "max": [
        0.9748160243034363,
        0.7328870296478271
      ],
      "min": [
        0.002976000076159835,
        0.0008440000237897038
      ],
      "type": "VEC2"
    },
    {
      "bufferView": 0,
      "byteOffset": 6854028,
      "componentType": 5125,
      "count": 65547,
      "type": "SCALAR"
    },
    {
      "bufferView": 2,
      "byteOffset": 42465288,
      "componentType": 5126,
      "count": 20940,
      "max": [
        2.754276990890503,
        1.7949340343475342,
        7.447978973388672
      ],
      "min": [
        -1.4105000495910645,
        -1.7196669578552246,
        -0.3878290057182312
      ],
      "type": "VEC3"
    },
    {
      "bufferView": 2,
      "byteOffset": 42716568,
      "componentType": 5126,
      "count": 20940,
      "max": [
        0.9993768930435181,
        0.9999645948410034,
        0.998371422290802
      ],
      "min": [
        -0.9996110796928406,
        -0.9996044039726257,
        -1.0
      ],
      "type": "VEC3"
    },
    {
      "bufferView": 1,
      "byteOffset": 14155096,
      "componentType": 5126,
      "count": 20940,
      "max": [
        0.7800909876823425,
        0.7358629703521729
      ],
      "min": [
        0.003719999920576811,
        0.0045460001565515995
      ],
      "type": "VEC2"
    },
    {
      "bufferView": 0,
      "byteOffset": 7116216,
      "componentType": 5125,
      "count": 20940,
      "type": "SCALAR"
    }
  ],
  "asset": {
    "extras": {
      "author": "University of Dundee Museum Collections (https://sketchfab.com/uod_museums)",
      "license": "CC-BY-4.0 (http://creativecommons.org/licenses/by/4.0/)",
      "source": "https://sketchfab.com/3d-models/gannet-012bc06098db4e408001281ed6b187e7",
      "title": "Gannet"
    },
    "generator": "Sketchfab-14.35.0",
    "version": "2.0"
  },
  "bufferViews": [
    {
      "buffer": 0,
      "byteLength": 7199976,
      "name": "floatBufferViews",
      "target": 34963
    },
    {
      "buffer": 0,
      "byteLength": 14322616,
      "byteOffset": 7199976,
      "byteStride": 8,
      "name": "floatBufferViews",
      "target": 34962
    },
    {
      "buffer": 0,
      "byteLength": 42967848,
      "byteOffset": 21522592,
      "byteStride": 12,
      "name": "floatBufferViews",
      "target": 34962
    }
  ],
  "buffers": [
    {
      "byteLength": 64490440,
      "uri": "scene.bin"
    }
  ],
  "images": [
    {
      "uri": "textures/material_0_baseColor.png"
    }
  ],
  "materials": [
    {
      "doubleSided": true,
      "name": "material_0",
      "pbrMetallicRoughness": {
        "baseColorTexture": {
          "index": 0
        },
        "metallicFactor": 0.0
      }
    }
  ],
  "meshes": [
    {
      "name": "Object_0",
      "primitives": [
        {
          "attributes": {
            "NORMAL": 1,
            "POSITION": 0,
            "TEXCOORD_0": 2
          },
          "indices": 3,
          "material": 0,
          "mode": 4
        }
      ]
    },
    {
      "name": "Object_1",
      "primitives": [
        {
          "attributes": {
            "NORMAL": 5,
            "POSITION": 4,
            "TEXCOORD_0": 6
          },
          "indices": 7,
          "material": 0,
          "mode": 4
        }
      ]
    },
    {
      "name": "Object_2",
      "primitives": [
        {
          "attributes": {
            "NORMAL": 9,
            "POSITION": 8,
            "TEXCOORD_0": 10
          },
          "indices": 11,
          "material": 0,
          "mode": 4
        }
      ]
    },
    {
      "name": "Object_3",
      "primitives": [
        {
          "attributes": {
            "NORMAL": 13,
            "POSITION": 12,
            "TEXCOORD_0": 14
          },
          "indices": 15,
          "material": 0,
          "mode": 4
        }
      ]
    },
    {
      "name": "Object_4",
      "primitives": [
        {
          "attributes": {
            "NORMAL": 17,
            "POSITION": 16,
            "TEXCOORD_0": 18
          },
          "indices": 19,
          "material": 0,
          "mode": 4
        }
      ]
    },
    {
      "name": "Object_5",
      "primitives": [
        {
          "attributes": {
            "NORMAL": 21,
            "POSITION": 20,
            "TEXCOORD_0": 22
          },
          "indices": 23,
          "material": 0,
          "mode": 4
        }
      ]
    },
    {
      "name": "Object_6",
      "primitives": [
        {
          "attributes": {
            "NORMAL": 25,
            "POSITION": 24,
            "TEXCOORD_0": 26
          },
          "indices": 27,
          "material": 0,
          "mode": 4
        }
      ]
    },
    {
      "name": "Object_7",
      "primitives": [
        {
          "attributes": {
            "NORMAL": 29,
            "POSITION": 28,
            "TEXCOORD_0": 30
          },
          "indices": 31,
          "material": 0,
          "mode": 4
        }
      ]
    },
    {
      "name": "Object_8",
      "primitives": [
        {
          "attributes": {
            "NORMAL": 33,
            "POSITION": 32,
            "TEXCOORD_0": 34
          },
          "indices": 35,
          "material": 0,
          "mode": 4
        }
      ]
    },
    {
      "name": "Object_9",
      "primitives": [
        {
          "attributes": {
            "NORMAL": 37,
            "POSITION": 36,
            "TEXCOORD_0": 38
          },
          "indices": 39,
          "material": 0,
          "mode": 4
        }
      ]
    },
    {
      "name": "Object_10",
      "primitives": [
        {
          "attributes": {
            "NORMAL": 41,
            "POSITION": 40,
            "TEXCOORD_0": 42
          },
          "indices": 43,
          "material": 0,
          "mode": 4
        }
      ]
    },
    {
      "name": "Object_11",
      "primitives": [
        {
          "attributes": {
            "NORMAL": 45,
            "POSITION": 44,
            "TEXCOORD_0": 46
          },
          "indices": 47,
          "material": 0,
          "mode": 4
        }
      ]
    },
    {
      "name": "Object_12",
      "primitives": [
        {
          "attributes": {
            "NORMAL": 49,
            "POSITION": 48,
            "TEXCOORD_0": 50
          },
          "indices": 51,
          "material": 0,
          "mode": 4
        }
      ]
    },
    {
      "name": "Object_13",
      "primitives": [
        {
          "attributes": {
            "NORMAL": 53,
            "POSITION": 52,
            "TEXCOORD_0": 54
          },
          "indices": 55,
          "material": 0,
          "mode": 4
        }
      ]
    },
    {
      "name": "Object_14",
      "primitives": [
        {
          "attributes": {
            "NORMAL": 57,
            "POSITION": 56,
            "TEXCOORD_0": 58
          },
          "indices": 59,
          "material": 0,
          "mode": 4
        }
      ]
    },
    {
      "name": "Object_15",
      "primitives": [
        {
          "attributes": {
            "NORMAL": 61,
            "POSITION": 60,
            "TEXCOORD_0": 62
          },
          "indices": 63,
          "material": 0,
          "mode": 4
        }
      ]
    },
    {
      "name": "Object_16",
      "primitives": [
        {
          "attributes": {
            "NORMAL": 65,
            "POSITION": 64,
            "TEXCOORD_0": 66
          },
          "indices": 67,
          "material": 0,
          "mode": 4
        }
      ]
    },
    {
      "name": "Object_17",
      "primitives": [
        {
          "attributes": {
            "NORMAL": 69,
            "POSITION": 68,
            "TEXCOORD_0": 70
          },
          "indices": 71,
          "material": 0,
          "mode": 4
        }
      ]
    },
    {
      "name": "Object_18",
      "primitives": [
        {
          "attributes": {
            "NORMAL": 73,
            "POSITION": 72,
            "TEXCOORD_0": 74
          },
          "indices": 75,
          "material": 0,
          "mode": 4
        }
      ]
    },
    {
      "name": "Object_19",
      "primitives": [
        {
          "attributes": {
            "NORMAL": 77,
            "POSITION": 76,
            "TEXCOORD_0": 78
          },
          "indices": 79,
          "material": 0,
          "mode": 4
        }
      ]
    },
    {
      "name": "Object_20",
      "primitives": [
        {
          "attributes": {
            "NORMAL": 81,
            "POSITION": 80,
            "TEXCOORD_0": 82
          },
          "indices": 83,
          "material": 0,
          "mode": 4
        }
      ]
    },
    {
      "name": "Object_21",
      "primitives": [
        {
          "attributes": {
            "NORMAL": 85,
            "POSITION": 84,
            "TEXCOORD_0": 86
          },
          "indices": 87,
          "material": 0,
          "mode": 4
        }
      ]
    },
    {
      "name": "Object_22",
      "primitives": [
        {
          "attributes": {
            "NORMAL": 89,
            "POSITION": 88,
            "TEXCOORD_0": 90
          },
          "indices": 91,
          "material": 0,
          "mode": 4
        }
      ]
    },
    {
      "name": "Object_23",
      "primitives": [
        {
          "attributes": {
            "NORMAL": 93,
            "POSITION": 92,
            "TEXCOORD_0": 94
          },
          "indices": 95,
          "material": 0,
          "mode": 4
        }
      ]
    },
    {
      "name": "Object_24",
      "primitives": [
        {
          "attributes": {
            "NORMAL": 97,
            "POSITION": 96,
            "TEXCOORD_0": 98
          },
          "indices": 99,
          "material": 0,
          "mode": 4
        }
      ]
    },
    {
      "name": "Object_25",
      "primitives": [
        {
          "attributes": {
            "NORMAL": 101,
            "POSITION": 100,
            "TEXCOORD_0": 102
          },
          "indices": 103,
          "material": 0,
          "mode": 4
        }
      ]
    },
    {
      "name": "Object_26",
      "primitives": [
        {
          "attributes": {
            "NORMAL": 105,
            "POSITION": 104,
            "TEXCOORD_0": 106
          },
          "indices": 107,
          "material": 0,
          "mode": 4
        }
      ]
    },
    {
      "name": "Object_27",
      "primitives": [
        {
          "attributes": {
            "NORMAL": 109,
            "POSITION": 108,
            "TEXCOORD_0": 110
          },
          "indices": 111,
          "material": 0,
          "mode": 4
        }
      ]
    }
  ],
  "nodes": [
    {
      "children": [
        1
      ],
      "matrix": [
        0.11864631623029709,
        0.0,
        0.0,
        0.0,
        0.0,
        2.6344774413166647e-17,
        -0.11864631623029709,
        0.0,
        0.0,
        0.11864631623029709,
        2.6344774413166647e-17,
        0.0,
        0.0,
        0.0,
        0.0,
        1.0
      ],
      "name": "Sketchfab_model"
    },
    {
      "children": [
        2,
        3,
        4,
        5,
        6,
        7,
        8,
        9,
        10,
        11,
        12,
        13,
        14,
        15,
        16,
        17,
        18,
        19,
        20,
        21,
        22,
        23,
        24,
        25,
        26,
        27,
        28,
        29
      ],
      "name": "gannet.obj.cleaner.materialmerger.gles"
    },
    {
      "mesh": 0,
      "name": "Object_2"
    },
    {
      "mesh": 1,
      "name": "Object_3"
    },
    {
      "mesh": 2,
      "name": "Object_4"
    },
    {
      "mesh": 3,
      "name": "Object_5"
    },
    {
      "mesh": 4,
      "name": "Object_6"
    },
    {
      "mesh": 5,
      "name": "Object_7"
    },
    {
      "mesh": 6,
      "name": "Object_8"
    },
    {
      "mesh": 7,
      "name": "Object_9"
    },
    {
      "mesh": 8,
      "name": "Object_10"
    },
    {
      "mesh": 9,
      "name": "Object_11"
    },
    {
      "mesh": 10,
      "name": "Object_12"
    },
    {
      "mesh": 11,
      "name": "Object_13"
    },
    {
      "mesh": 12,
      "name": "Object_14"
    },
    {
      "mesh": 13,
      "name": "Object_15"
    },
    {
      "mesh": 14,
      "name": "Object_16"
    },
    {
      "mesh": 15,
      "name": "Object_17"
    },
    {
      "mesh": 16,
      "name": "Object_18"
    },
    {
      "mesh": 17,
      "name": "Object_19"
    },
    {
      "mesh": 18,
      "name": "Object_20"
    },
    {
      "mesh": 19,
      "name": "Object_21"
    },
    {
      "mesh": 20,
      "name": "Object_22"
    },
    {
      "mesh": 21,
      "name": "Object_23"
    },
    {
      "mesh": 22,
      "name": "Object_24"
    },
    {
      "mesh": 23,
      "name": "Object_25"
    },
    {
      "mesh": 24,
      "name": "Object_26"
    },
    {
      "mesh": 25,
      "name": "Object_27"
    },
    {
      "mesh": 26,
      "name": "Object_28"
    },
    {
      "mesh": 27,
      "name": "Object_29"
    }
  ],
  "samplers": [
    {
      "magFilter": 9729,
      "minFilter": 9987,
      "wrapS": 10497,
      "wrapT": 10497
    }
  ],
  "scene": 0,
  "scenes": [
    {
      "name": "Sketchfab_Scene",
      "nodes": [
        0
      ]
    }
  ],
  "textures": [
    {
      "sampler": 0,
      "source": 0
    }
  ]
}
