{
  "accessors": [
    {
      "bufferView": 2,
      "componentType": 5126,
      "count": 36,
      "max": [
        4.273940086364746,
        -5.872369766235352,
        3.0673000812530518
      ],
      "min": [
        -1.9752800464630127,
        -22.77359962463379,
        -12.163200378417969
      ],
      "type": "VEC3"
    },
    {
      "bufferView": 2,
      "byteOffset": 432,
      "componentType": 5126,
      "count": 36,
      "max": [
        0.980958104133606,
        0.8584156036376953,
        0.8107548952102661
      ],
      "min": [
        -0.980958104133606,
        -0.8584156036376953,
        -0.8107548952102661
      ],
      "type": "VEC3"
    },
    {
      "bufferView": 1,
      "componentType": 5126,
      "count": 36,
      "max": [
        0.9238290190696716,
        0.0007319999858736992
      ],
      "min": [
        0.7873539924621582,
        0.0004360000020824373
      ],
      "type": "VEC2"
    },
    {
      "bufferView": 0,
      "componentType": 5125,
      "count": 36,
      "type": "SCALAR"
    },
    {
      "bufferView": 2,
      "byteOffset": 864,
      "componentType": 5126,
      "count": 348,
      "max": [
        6.024580001831055,
        -22.35569953918457,
        -9.183340072631836
      ],
      "min": [
        1.2361700534820557,
        -24.390600204467773,
        -10.392999649047852
      ],
      "type": "VEC3"
    },
    {
      "bufferView": 2,
      "byteOffset": 5040,
      "componentType": 5126,
      "count": 348,
      "max": [
        0.9965154528617859,
        0.9969491362571716,
        0.9873591065406799
      ],
      "min": [
        -0.9956740140914917,
        -0.9960688948631287,
        -0.9925738573074341
      ],
      "type": "VEC3"
    },
    {
      "bufferView": 1,
      "byteOffset": 288,
      "componentType": 5126,
      "count": 348,
      "max": [
        1.0,
        1.0
      ],
      "min": [
        0.0,
        0.0
      ],
      "type": "VEC2"
    },
    {
      "bufferView": 0,
      "byteOffset": 144,
      "componentType": 5125,
      "count": 1584,
      "type": "SCALAR"
    },
    {
      "bufferView": 2,
      "byteOffset": 9216,
      "componentType": 5126,
      "count": 65532,
      "max": [
        24.701099395751953,
        0.2541860044002533,
        20.024200439453125
      ],
      "min": [
        -29.272600173950195,
        -27.95479965209961,
        -14.600799560546875
      ],
      "type": "VEC3"
    },
    {
      "bufferView": 2,
      "byteOffset": 795600,
      "componentType": 5126,
      "count": 65532,
      "max": [
        0.9999696612358093,
        1.0,
        0.9999923706054688
      ],
      "min": [
        -0.9999956488609314,
        -0.9999971389770508,
        -0.9999863505363464
      ],
      "type": "VEC3"
    },
    {
      "bufferView": 3,
      "componentType": 5126,
      "count": 65532,
      "max": [
        0.9999998211860657,
        0.99165278673172,
        0.9996110796928406,
        1.0
      ],
      "min": [
        -0.9999916553497314,
        -0.997978925704956,
        -0.9996302127838135,
        -1.0
      ],
      "type": "VEC4"
    },
    {
      "bufferView": 1,
      "byteOffset": 3072,
      "componentType": 5126,
      "count": 65532,
      "max": [
        0.9997069835662842,
        0.9997559785842896
      ],
      "min": [
        0.00024399999529123306,
        0.00027200000477023423
      ],
      "type": "VEC2"
    },
    {
      "bufferView": 0,
      "byteOffset": 6480,
      "componentType": 5125,
      "count": 285762,
      "type": "SCALAR"
    },
    {
      "bufferView": 2,
      "byteOffset": 1581984,
      "componentType": 5126,
      "count": 65533,
      "max": [
        24.763500213623047,
        0.24919700622558594,
        20.024200439453125
      ],
      "min": [
        -29.255599975585938,
        -27.931699752807617,
        -14.600799560546875
      ],
      "type": "VEC3"
    },
    {
      "bufferView": 2,
      "byteOffset": 2368380,
      "componentType": 5126,
      "count": 65533,
      "max": [
        0.9999668598175049,
        0.9999913573265076,
        0.999986469745636
      ],
      "min": [
        -0.9999678730964661,
        -0.9999971389770508,
        -0.9999386668205261
      ],
      "type": "VEC3"
    },
    {
      "bufferView": 3,
      "byteOffset": 1048512,
      "componentType": 5126,
      "count": 65533,
      "max": [
        0.999999463558197,
        0.9973239302635193,
        0.9999215602874756,
        1.0
      ],
      "min": [
        -0.9999983906745911,
        -0.999902069568634,
        -0.9999322891235352,
        -1.0
      ],
      "type": "VEC4"
    },
    {
      "bufferView": 1,
      "byteOffset": 527328,
      "componentType": 5126,
      "count": 65533,
      "max": [
        0.9997529983520508,
        0.9997559785842896
      ],
      "min": [
        0.00024399999529123306,
        0.00024500000290572643
      ],
      "type": "VEC2"
    },
    {
      "bufferView": 0,
      "byteOffset": 1149528,
      "componentType": 5125,
      "count": 223914,
      "type": "SCALAR"
    },
    {
      "bufferView": 2,
      "byteOffset": 3154776,
      "componentType": 5126,
      "count": 37715,
      "max": [
        24.70479965209961,
        0.22822700440883636,
        20.01569938659668
      ],
      "min": [
        -29.272600173950195,
        -27.95439910888672,
        -14.596400260925293
      ],
      "type": "VEC3"
    },
    {
      "bufferView": 2,
      "byteOffset": 3607356,
      "componentType": 5126,
      "count": 37715,
      "max": [
        0.9999276399612427,
        0.9999908804893494,
        0.999956488609314
      ],
      "min": [
        -0.9999398589134216,
        -0.9999866485595703,
        -0.9999596476554871
      ],
      "type": "VEC3"
    },
    {
      "bufferView": 3,
      "byteOffset": 2097040,
      "componentType": 5126,
      "count": 37715,
      "max": [
        0.9999638199806213,
        0.9995348453521729,
        0.999945342540741,
        1.0
      ],
      "min": [
        -0.9999761581420898,
        -0.9994319081306458,
        -0.9999710321426392,
        -1.0
      ],
      "type": "VEC4"
    },
    {
      "bufferView": 1,
      "byteOffset": 1051592,
      "componentType": 5126,
      "count": 37715,
      "max": [
        0.9997280240058899,
        0.9940699934959412
      ],
      "min": [
        0.00024399999529123306,
        0.00025099999038502574
      ],
      "type": "VEC2"
    },
    {
      "bufferView": 0,
      "byteOffset": 2045184,
      "componentType": 5125,
      "count": 66420,
      "type": "SCALAR"
    },
    {
      "bufferView": 2,
      "byteOffset": 4059936,
      "componentType": 5126,
      "count": 646,
      "max": [
        5.747429847717285,
        -22.681299209594727,
        -9.567520141601563
      ],
      "min": [
        1.564579963684082,
        -23.984800338745117,
        -10.00100040435791
      ],
      "type": "VEC3"
    },
    {
      "bufferView": 2,
      "byteOffset": 4067688,
      "componentType": 5126,
      "count": 646,
      "max": [
        0.9973574876785278,
        0.9988858699798584,
        0.9819661378860474
      ],
      "min": [
        -0.9973567724227905,
        -0.9988833665847778,
        -0.9819687604904175
      ],
      "type": "VEC3"
    },
    {
      "bufferView": 1,
      "byteOffset": 1353312,
      "componentType": 5126,
      "count": 646,
      "max": [
        1.0,
        1.0
      ],
      "min": [
        0.0,
        0.0
      ],
      "type": "VEC2"
    },
    {
      "bufferView": 0,
      "byteOffset": 2310864,
      "componentType": 5125,
      "count": 3168,
      "type": "SCALAR"
    }
  ],
  "asset": {
    "extras": {
      "author": "Virtual Museums of Małopolska (https://sketchfab.com/WirtualneMuzeaMalopolski)",
      "license": "CC0-1.0 (http://creativecommons.org/publicdomain/zero/1.0/)",
      "source": "https://sketchfab.com/3d-models/storm-petrel-8bb167b9a8144b97a011f50aabcdc270",
      "title": "Storm petrel"
    },
    "generator": "Sketchfab-12.68.0",
    "version": "2.0"
  },
  "bufferViews": [
    {
      "buffer": 0,
      "byteLength": 2323536,
      "name": "floatBufferViews",
      "target": 34963
    },
    {
      "buffer": 0,
      "byteLength": 1358480,
      "byteOffset": 2323536,
      "byteStride": 8,
      "name": "floatBufferViews",
      "target": 34962
    },
    {
      "buffer": 0,
      "byteLength": 4075440,
      "byteOffset": 3682016,
      "byteStride": 12,
      "name": "floatBufferViews",
      "target": 34962
    },
    {
      "buffer": 0,
      "byteLength": 2700480,
      "byteOffset": 7757456,
      "byteStride": 16,
      "name": "floatBufferViews",
      "target": 34962
    }
  ],
  "buffers": [
    {
      "byteLength": 10457936,
      "uri": "scene.bin"
    }
  ],
  "extensionsUsed": [
    "KHR_materials_transmission"
  ],
  "images": [
    {
      "uri": "textures/ptak_baseColor.png"
    },
    {
      "uri": "textures/ptak_metallicRoughness.png"
    },
    {
      "uri": "textures/ptak_normal.png"
    }
  ],
  "materials": [
    {
      "doubleSided": true,
      "name": "material",
      "pbrMetallicRoughness": {
        "metallicFactor": 0.0,
        "roughnessFactor": 0.6
      }
    },
    {
      "alphaMode": "BLEND",
      "doubleSided": true,
      "extensions": {
        "KHR_materials_transmission": {
          "transmissionFactor": 1.0
        }
      },
      "name": "material_1",
      "pbrMetallicRoughness": {
        "baseColorFactor": [
          0.0,
          0.0,
          0.0,
          0.25
        ],
        "metallicFactor": 0.14195884146341464,
        "roughnessFactor": 0.05659298780487805
      }
    },
    {
      "doubleSided": true,
      "name": "ptak",
      "normalTexture": {
        "index": 2
      },
      "pbrMetallicRoughness": {
        "baseColorTexture": {
          "index": 0
        },
        "metallicFactor": 0.0,
        "metallicRoughnessTexture": {
          "index": 1
        }
      }
    },
    {
      "doubleSided": true,
      "name": "zren",
      "pbrMetallicRoughness": {
        "baseColorFactor": [
          0.0,
          0.0,
          0.0,
          1.0
        ],
        "metallicFactor": 0.0,
        "roughnessFactor": 0.6
      }
    }
  ],
  "meshes": [
    {
      "name": "Object_0",
      "primitives": [
        {
          "attributes": {
            "NORMAL": 1,
            "POSITION": 0,
            "TEXCOORD_0": 2
          },
          "indices": 3,
          "material": 0,
          "mode": 4
        }
      ]
    },
    {
      "name": "Object_1",
      "primitives": [
        {
          "attributes": {
            "NORMAL": 5,
            "POSITION": 4,
            "TEXCOORD_0": 6
          },
          "indices": 7,
          "material": 1,
          "mode": 4
        }
      ]
    },
    {
      "name": "Object_2",
      "primitives": [
        {
          "attributes": {
            "NORMAL": 9,
            "POSITION": 8,
            "TANGENT": 10,
            "TEXCOORD_0": 11
          },
          "indices": 12,
          "material": 2,
          "mode": 4
        }
      ]
    },
    {
      "name": "Object_3",
      "primitives": [
        {
          "attributes": {
            "NORMAL": 14,
            "POSITION": 13,
            "TANGENT": 15,
            "TEXCOORD_0": 16
          },
          "indices": 17,
          "material": 2,
          "mode": 4
        }
      ]
    },
    {
      "name": "Object_4",
      "primitives": [
        {
          "attributes": {
            "NORMAL": 19,
            "POSITION": 18,
            "TANGENT": 20,
            "TEXCOORD_0": 21
          },
          "indices": 22,
          "material": 2,
          "mode": 4
        }
      ]
    },
    {
      "name": "Object_5",
      "primitives": [
        {
          "attributes": {
            "NORMAL": 24,
            "POSITION": 23,
            "TEXCOORD_0": 25
          },
          "indices": 26,
          "material": 3,
          "mode": 4
        }
      ]
    }
  ],
  "nodes": [
    {
      "children": [
        1
      ],
      "matrix": [
        1.0,
        0.0,
        0.0,
        0.0,
        0.0,
        -1.0,
        -2.220446049250313e-16,
        0.0,
        0.0,
        2.220446049250313e-16,
        -1.0,
        0.0,
        0.0,
        -11.13864898681641,
        16.56193923950195,
        1.0
      ],
      "name": "Sketchfab_model"
    },
    {
      "children": [
        2,
        3,
        4,
        5,
        6,
        7
      ],
      "name": "z_155_MT_FIN.obj.cleaner.materialmerger.gles"
    },
    {
      "mesh": 0,
      "name": "Object_2"
    },
    {
      "mesh": 1,
      "name": "Object_3"
    },
    {
      "mesh": 2,
      "name": "Object_4"
    },
    {
      "mesh": 3,
      "name": "Object_5"
    },
    {
      "mesh": 4,
      "name": "Object_6"
    },
    {
      "mesh": 5,
      "name": "Object_7"
    }
  ],
  "samplers": [
    {
      "magFilter": 9729,
      "minFilter": 9987,
      "wrapS": 10497,
      "wrapT": 10497
    }
  ],
  "scene": 0,
  "scenes": [
    {
      "name": "Sketchfab_Scene",
      "nodes": [
        0
      ]
    }
  ],
  "textures": [
    {
      "sampler": 0,
      "source": 0
    },
    {
      "sampler": 0,
      "source": 1
    },
    {
      "sampler": 0,
      "source": 2
    }
  ]
}
